<?xml version="1.0" encoding="UTF-8"?>
<!-- Generated by Pixelmator Pro 3.8 -->
<svg width="1280" height="640" viewBox="0 0 1280 640" xmlns="http://www.w3.org/2000/svg">
    <g id="Group">
        <path id="Path" fill="#000000" stroke="none" d="M 813.857178 29.850464 C 819.703308 29.158875 845.662659 29.867798 848.321594 34.162537 L 847.975403 34.803101 C 845.356384 35.99231 839.359253 37.219238 836.318542 37.931702 C 842.058167 38.122131 847.757935 38.938477 853.319946 40.365173 C 876.017456 46.133789 895.444946 60.781006 907.236267 81.015015 C 919.403564 101.627991 924.30426 124.807251 918.502502 148.614105 C 916.500488 156.810303 911.23584 167.7276 903.409851 172.732178 C 902.495361 173.316315 901.949402 172.97937 901.203613 172.640686 C 900.289185 171.336945 900.448975 170.363464 900.400146 168.763641 L 900.386841 168.082245 C 886.519348 178.930786 871.746338 179.293915 855.925659 172.477814 C 867.214111 207.266296 877.814453 209.070374 875.528381 250.481903 C 876.109924 248.40625 877.610291 241.368164 879.825378 240.918945 C 881.587646 243.472717 880.95282 256.677887 880.695374 260.640594 C 878.613525 292.3414 865.944519 321.536804 842.115906 342.781921 C 843.749451 344.490936 844.921387 346.075684 846.355164 347.940033 C 851.837341 341.814178 863.582947 339.687927 870.818604 343.776245 C 874.639282 345.956146 877.42749 349.575684 878.560242 353.826172 C 880.335876 360.524658 878.213989 365.776031 874.866943 371.307037 C 879.030762 374.454285 882.18689 378.693542 883.003662 383.949341 C 883.758301 388.557037 882.599731 393.280151 879.79425 397.013367 C 875.195435 403.077026 869.313721 403.964844 862.464355 404.879303 C 860.453491 429.387085 823.352173 432.152588 815.055664 412.101563 C 813.732849 412.403412 812.405579 412.678619 811.069458 412.931671 C 800.149475 414.933655 785.895813 413.424377 783.574158 400.200562 C 773.870483 403.378906 763.532043 406.042297 753.672974 409.158508 C 741.17749 413.052032 728.918518 417.66748 716.957886 422.981628 C 721.649902 423.713989 729.462646 426.217621 734.238953 427.700287 C 742.65979 430.31488 750.126221 432.467773 758.711243 434.469788 C 758.751221 434.048035 758.791138 433.630798 758.844421 433.213501 C 759.90094 424.49527 765.982361 422.577637 773.75061 423.687378 C 777.61261 416.473999 785.114563 413.464355 793.095886 416.562744 C 797.561523 418.294006 799.408142 421.405762 801.214783 425.605042 C 802.213562 425.312073 803.230103 425.076813 804.26001 424.903687 C 812.845032 423.483215 822.806152 428.108643 824.097961 437.381744 C 824.546265 440.511292 823.698425 443.689575 821.740845 446.175476 C 818.393799 450.441345 814.176758 451.124939 809.271606 451.852905 C 807.61145 469.480286 785.167786 473.386597 777.763489 459.345978 C 764.739441 462.688568 751.657715 458.014282 757.912231 442.535431 C 741.940674 440.315918 724.03363 436.391846 708.115356 436.45401 C 695.10022 436.875702 677.814636 440.528992 668.541504 450.423584 C 656.147827 463.6474 654.381104 486.907867 654.643005 504.273285 C 654.944885 524.053528 661.439087 548.192871 676.194458 562.229004 C 676.735962 561.758545 678.848938 559.916321 679.488159 559.876404 C 691.562317 559.157288 704.550842 559.752075 716.744812 559.729858 C 718.822266 559.725403 721.139465 560.497803 722.657593 561.296875 C 724.770569 563.507446 724.446533 573.313232 724.157959 576.429443 C 723.523193 583.332153 725.574036 595.659302 722.084961 601.585327 C 719.670105 603.640625 704.115784 602.885925 699.867676 602.854919 C 697.630432 611.457703 692.645386 609.868591 685.072449 609.908508 C 683.234741 609.921814 681.339233 609.85968 679.49707 609.833008 C 675.590698 606.889954 675.652832 606.179749 675.306641 601.505432 L 674.60968 601.372314 C 670.49469 604.080078 663.720764 602.339966 658.740234 602.610718 C 654.034851 602.868225 649.001038 602.63739 644.255676 602.885925 C 640.691162 603.076843 639.94989 601.758484 637.712585 599.410217 C 636.824768 600.249207 634.285706 602.655151 633.016113 602.641846 C 623.009705 602.548645 612.967773 602.850464 602.967529 602.646301 C 601.642517 602.619629 599.900635 600.906189 598.84906 600.0672 C 598.375366 600.46228 596.015625 602.424316 595.712891 602.4021 C 589.707764 601.976013 566.623962 603.991333 562.488159 601.429993 C 558.473083 595.925598 561.002441 581.472168 560.373413 574.369751 C 560.021423 570.392395 560.217163 563.924744 562.697266 560.684265 C 565.532898 558.890869 588.276184 559.74762 593.189697 559.814209 C 611.162842 537.290649 620.642822 509.786499 616.310364 480.968445 C 609.732605 437.217529 569.270996 422.777374 529.819702 423.611938 C 519.586853 423.829407 508.722382 426.315308 498.631165 428.050934 C 500.38324 433.098083 501.374481 437.15979 498.493561 442.233612 C 496.798767 445.195251 493.970245 447.338379 490.660492 448.168579 C 486.186859 449.331604 481.657257 448.417114 477.771362 446.01123 C 471.985535 451.524445 464.719788 453.650757 457.103302 449.482513 C 452.776581 447.116516 451.462646 443.667419 450.174866 439.170685 C 444.373535 438.970947 439.654449 438.367188 434.723145 434.97583 C 426.673859 429.435913 425.364349 420.686615 430.684082 412.665344 C 427.27713 410.920776 425.469086 410.130615 422.993896 407.08548 C 412.746002 413.357788 401.009247 416.87796 389.386139 410.365906 C 385.115814 407.973267 382.794647 403.294556 381.849579 398.580322 C 375.143555 398.655792 369.397705 398.336182 363.675812 394.114685 C 356.30304 388.712402 356.288849 378.365082 362.156342 371.817535 C 368.144104 365.132355 376.023804 363.640839 384.47171 363.12146 C 384.432648 338.01886 414.234406 338.17865 431.265106 345.24115 C 437.438477 323.165924 465.631531 315.659546 477.522766 337.583832 C 478.259552 337.05481 479.013397 336.550018 479.783112 336.070129 C 488.213684 330.925323 497.611084 332.73642 502.596985 341.472443 C 516.816467 337.268646 532.960754 340.655609 532.651306 358.61145 C 558.099792 374.352173 570.169006 403.809479 598.247986 416.611572 C 608.982849 421.507813 620.383606 431.184906 627.786987 440.249329 C 628.230896 437.816772 628.315186 436.351929 628.448364 433.932617 C 628.878967 424.122437 628.071045 414.298889 626.036194 404.692841 C 619.430969 408.031006 614.789063 407.54715 609.832947 401.918457 C 599.432312 409.233948 592.828857 406.739197 589.027283 395.228882 C 587.717285 394.567474 582.645325 394.012604 580.731201 393.657471 C 573.232788 392.276917 569.823181 386.284241 571.992554 378.715729 C 562.920532 372.492249 558.83844 362.682007 565.275024 352.747467 C 567.883728 348.722992 571.990662 345.906036 576.68457 344.921509 C 582.952026 343.563171 589.960815 344.965942 595.339966 348.419434 C 599.78656 337.677063 607.103394 334.445435 618.0495 338.764587 C 623.740784 323.245819 640.207336 316.396423 654.833923 324.209106 C 655.916992 317.457306 656.525146 315.974701 659.135315 309.480408 C 656.902466 304.504303 654.847168 302.599945 652.055054 298.143219 C 651.575623 297.379669 650.776611 293.886169 650.186218 292.328064 C 645.050293 290.774414 645.609619 284.626373 645.263367 280.076385 C 634.667419 273.502228 628.546021 267.656952 620.399109 258.441071 C 618.711426 256.532318 612.985962 253.371277 610.673218 251.510468 C 607.307129 248.801758 604.696106 246.288391 601.63092 243.242798 C 596.587769 243.198822 594.381165 243.419891 590.091736 240.86615 C 586.444214 234.100677 584.067566 235.438995 586.461487 227.184235 C 584.683228 224.041351 584.081299 223.422119 581.566162 221.010895 C 574.663086 219.836761 573.484497 219.984589 568.888794 214.869537 C 544.461792 212.61319 548.460022 221.201294 548.027649 192.321045 C 541.812561 187.466522 528.196777 176.846222 523.083069 171.84967 C 522.996358 146.444906 522.711955 121.042053 522.229858 95.641113 C 520.483093 95.523926 517.538269 95.070679 516.312195 96.481384 C 500.84845 114.269897 487.534088 134.44339 472.273193 152.34552 C 475.252655 152.26825 480.703766 151.624207 482.822968 153.749146 C 484.129364 157.645264 484.051666 179.393768 482.783905 183.327179 C 480.885773 185.368225 478.781677 185.236389 476.071655 185.480133 C 483.031586 194.661774 491.757813 203.712494 498.98053 212.783173 C 509.617279 213.006897 521.223083 208.968719 519.264587 222.850861 C 518.490417 228.339264 519.843445 235.371948 519.234436 241.053925 C 518.562805 247.315155 514.799866 245.005524 513.136108 246.262665 C 515.29126 249.710419 519.994385 254.00119 522.924133 256.989563 C 528.581665 262.760284 534.38208 268.263733 539.845215 274.247955 C 543.692505 274.230194 556.11377 273.78183 558.99115 275.038116 C 562.392273 276.525177 561.296326 302.613281 559.62323 306.062408 C 557.357544 307.638214 536.347229 306.453033 532.038757 306.670532 C 531.631287 306.692719 530.08783 305.982483 529.971924 305.471985 C 528.85376 300.531342 528.784485 278.775726 529.885864 275.41098 C 532.147949 273.595428 534.451355 274.088165 537.324707 274.225739 C 530.264954 266.993713 515.215759 252.731201 509.666565 245.63324 C 507.075958 245.588806 504.07782 245.784576 501.450409 245.895538 C 498.94278 249.60611 495.512329 253.690002 492.786774 257.393463 C 488.662476 262.997284 484.61499 269.049896 480.171082 274.350037 C 482.643158 274.287964 490.275146 273.568787 490.442078 276.813721 C 490.760345 282.997253 492.100952 301.530121 489.497009 306.515198 C 487.392029 307.518402 480.905731 307.274231 478.302704 307.03006 C 473.940063 306.617279 463.708984 308.148712 460.254578 305.982483 C 458.647644 303.37677 459.05069 296.327606 459.248688 293.087158 C 459.580719 287.649384 457.157898 279.232971 461.111298 275.189026 C 462.454529 273.812958 465.674622 274.208038 467.500366 274.301239 C 459.36142 266.171631 447.067139 254.278625 439.635773 245.906219 C 436.619019 245.604767 434.17981 245.770386 431.159058 245.897339 C 425.655548 255.102478 418.64856 265.377533 412.785065 274.558685 C 416.319855 274.314545 419.97052 273.826263 422.879395 275.859314 C 424.553345 278.695862 424.016235 301.561218 423.203003 305.112457 C 420.710907 307.655975 395.064972 307.26535 394.011597 305.858154 C 391.707306 302.773071 392.01358 278.611542 393.988953 275.424316 C 397.026581 273.941711 406.752014 274.656372 410.870514 274.700745 C 416.070831 265.436523 424.091248 254.873016 428.734436 245.883575 C 425.218323 245.967896 420.596405 246.58313 417.851746 244.662415 C 416.607056 242.801514 416.477448 237.28656 416.616364 235.004852 C 416.956421 229.41748 415.118652 217.651398 418.253052 213.387299 C 421.273346 212.152374 432.751312 212.937225 436.722443 213.067261 C 442.333374 205.178253 454.150909 193.422394 460.64917 185.409515 C 458.50647 185.44989 452.646515 185.775787 452.328705 183.132751 C 451.55899 176.72641 450.552643 158.491333 453.139282 153.230194 C 455.290863 151.552277 467.012939 152.213196 470.462067 152.250549 C 473.552979 147.484833 478.337769 142.17926 481.78067 137.482849 C 491.742706 123.892334 504.84845 109.258728 514.21875 95.558105 C 511.667664 95.74408 504.406769 96.445496 504.350403 92.734863 C 504.26651 87.207458 502.980988 68.231506 505.199585 64.133423 C 508.993164 62.42395 527.760437 63.541321 532.998474 63.246948 C 533.431274 63.222534 534.559692 63.750366 534.690186 64.330017 C 535.972168 70.021301 536.558105 89.302185 535.042175 94.257019 C 533.084595 96.237732 530.904602 95.843506 528.115112 95.863098 C 531.193542 100.052185 534.667542 103.367249 538.139709 107.213196 C 544.783142 114.571777 551.888245 121.643066 558.525879 128.978973 C 560.969177 129.054047 576.164795 128.256775 576.882141 129.797546 C 578.728271 133.762909 579.198853 157.383362 576.997559 160.102692 C 573.512939 161.768677 567.61792 161.100555 563.570862 160.976746 L 563.558838 182.026581 C 565.695801 182.175262 568.139465 182.288452 570.266663 182.146423 C 578.761169 181.579529 579.927734 182.546326 579.924194 190.689758 C 591.162415 193.690521 587.839355 195.962433 594.724731 202.127319 C 600.508789 207.306305 615.762573 211.76709 623.578796 212.821808 C 614.918701 204.501251 605.646057 193.935059 608.699219 179.764465 C 609.361023 176.692169 612.635254 171.6521 613.84845 168.102722 C 621.388123 146.049683 630.392639 133.57959 651.078491 122.581482 C 652.521118 108.914673 657.439636 99.98468 665.931458 89.608459 C 665.434204 84.066345 661.261597 74.506042 661.763184 71.554138 L 662.411255 71.664246 C 665.771606 75.582092 666.690491 79.697083 668.346252 84.57019 C 668.514954 80.656738 667.800232 65.159302 669.416077 62.944702 C 671.795349 65.463379 671.715454 79.276306 671.866394 83.396118 C 672.984985 79.163452 675.728333 68.364685 678.498291 65.427856 L 679.013184 65.67334 C 679.523682 69.707947 676.762573 78.776428 675.679504 83.054321 C 677.23761 80.696289 681.152771 73.882385 684.011536 73.855286 C 684.171326 76.035767 678.440552 85.723877 676.895813 88.773499 C 681.445801 97.911255 684.038147 106.231689 686.355286 116.088989 C 693.368958 116.963013 697.599365 117.759338 704.399902 119.664185 C 706.845825 115.805298 712.447815 110.626343 716.163269 107.936768 C 716.567261 95.449768 725.929138 78.443481 733.968201 69.245361 C 755.275452 44.864075 782.211426 32.86676 813.857178 29.850464 M 524.614929 171.006256 C 531.783508 177.066376 540.444885 184.100922 547.976563 189.756195 C 547.982788 178.275635 553.783691 182.755859 561.372192 181.924927 C 561.802307 181.246155 561.741943 181.548462 561.785034 181.096619 L 561.802795 160.857788 C 558.174744 160.953217 550.394531 161.772705 547.961487 159.587341 C 546.584106 156.978119 547.026672 137.096619 547.221497 132.879547 C 547.423035 128.525757 553.521362 128.777893 556.701904 129.2258 C 550.091309 122.409851 543.572144 115.505615 537.146301 108.515137 C 534.421143 105.589783 527.412415 97.861938 524.371216 95.678833 C 523.739136 108.486328 524.278015 123.291748 524.492004 136.150238 C 524.682434 147.614899 524.288696 159.64505 524.614929 171.006256 M 439.128845 212.925629 C 444.423706 212.86438 448.979462 212.323273 448.84317 219.462555 C 448.789032 222.302185 448.582184 225.294067 448.595917 228.12085 L 472.807648 228.213623 L 487.425781 228.114624 C 487.433746 225.770813 487.52655 222.800262 487.392029 220.518127 C 486.916626 212.452026 490.403015 212.717438 496.904388 212.886169 C 489.033142 203.57312 481.331451 194.724365 473.520111 185.266144 C 470.131968 185.132945 466.742483 185.070933 463.351654 185.080109 C 461.249329 188.239838 457.387421 192.076935 454.814545 195.004456 C 449.580078 200.960266 444.123627 206.755005 439.128845 212.925629 M 470.231232 274.505463 L 478.182404 274.230194 C 480.345093 271.154419 482.486481 268.373352 484.791656 265.404114 C 489.678558 258.50592 494.677368 252.502106 499.470581 245.92395 C 484.757477 246.221375 487.089752 243.839844 487.481262 230.391846 L 448.727325 230.205811 C 448.8414 234.530823 449.451782 240.789337 447.934082 244.648224 C 446.753296 245.848022 445.447784 245.894196 443.749847 246.258667 L 443.597137 246.863708 C 450.207733 255.598785 463.019165 265.96875 470.231232 274.505463 M 489.164093 402.770752 C 494.457153 408.945435 496.427643 412.119324 494.025238 420.362579 C 500.57193 418.622467 507.331635 416.917908 513.767334 414.86264 C 516.603394 414.094696 519.438171 413.295654 522.302673 412.647583 C 510.691528 406.206543 502.596985 399.685669 492.592346 391.198242 C 492.717072 396.724823 493.019348 398.6203 489.164093 402.770752 M 482.04126 181.453918 L 480.988312 183.054596 L 481.448212 183.448822 C 483.243317 181.539581 482.908203 180.266449 482.891754 177.798828 C 482.842926 170.31781 482.694214 162.838013 482.721741 155.356934 C 482.022156 162.940552 482.332001 173.243958 482.356873 181.057037 Z M 528.063171 399.698944 C 533.509399 402.300201 543.373779 404.981384 549.354919 406.641571 C 554.07489 407.71582 558.991577 408.763428 563.677368 409.908691 C 559.883362 404.018097 549.790833 388.241882 545.663391 383.372284 C 543.241943 395.175598 539.484314 397.435059 528.063171 399.698944 M 734.163513 215.808807 C 743.654114 244.604645 755.186707 247.833618 774.585144 267.054565 L 775.384216 267.478455 C 776.063416 258.780243 752.061584 228.539429 745.833679 220.196777 C 744.111389 217.891541 738.970947 210.212524 737.173157 208.329041 C 735.956909 211.031982 735.148987 213.016663 734.163513 215.808807 M 779.294922 368.252991 C 771.251465 373.75293 767.633728 375.732727 758.391663 379.026489 C 757.663635 383.851685 756.331909 387.558258 751.13385 389.067535 C 742.406738 391.593323 733.595337 392.356873 724.841614 395.242218 C 722.258057 399.690063 719.505859 404.399902 716.664917 408.692383 L 723.283508 405.811462 C 742.997192 397.790222 764.055847 393.510986 784.865906 389.440369 C 774.971375 378.538208 782.13147 371.338074 780.378113 368.577026 Z M 664.306763 404.115784 C 661.248291 412.048309 652.223755 414.134644 644.934875 410.867523 C 643.026062 421.778595 643.070496 428.841095 644.433289 439.832092 C 647.314209 435.74823 649.249573 433.8927 653.058289 430.678833 C 657.803589 427.105408 662.753113 423.838318 668.31958 421.672058 C 683.212524 415.879181 697.20874 414.143524 707.933411 400.941895 L 707.289734 400.822021 C 703.228027 400.094025 699.934265 400.986267 695.299927 400.24939 C 683.088196 398.300659 683.372314 385.640625 693.071533 380.034149 C 694.421021 379.252869 695.788208 378.507111 697.177612 377.792419 C 696.613892 377.8013 696.196594 377.752472 695.672852 377.890076 C 685.938049 378.751251 685.835999 378.587036 677.947815 384.32666 C 680.606812 387.655884 683.350159 391.242676 682.582153 395.717163 C 680.904236 405.496338 671.746521 405.91803 664.306763 404.115784"/>
        <path id="path1" fill="#d7926e" stroke="none" d="M 719.852112 104.559509 C 729.413757 62.114136 775.379761 34.760498 816.635986 33.08606 C 823.401062 32.811707 830.281494 33.337769 836.997742 34.091125 C 831.0672 36.934753 827.640259 38.370239 822.513245 42.463501 C 843.607422 38.158081 865.607178 45.60321 882.608643 58.144287 C 900.502258 71.344543 913.299927 93.840149 916.438354 115.777832 C 918.688904 129.352295 917.659058 143.032928 912.305603 155.779114 C 910.805176 153.909363 908.15509 144.30426 905.758057 140.226563 C 901.594238 132.598572 894.420837 126.601013 885.751404 125.039856 C 884.348694 124.787659 878.600159 124.174194 877.809998 123.836853 C 860.404663 126.363098 851.81073 142.417236 851.20697 158.723053 C 851.855103 178.994263 858.842102 189.864532 866.796875 207.814575 C 873.046997 221.916901 873.921448 240.276611 870.898499 255.191315 C 870.361328 257.90976 868.985229 261.411224 868.91864 264.016937 L 869.384766 264.333862 C 872.296753 262.872131 876.420593 254.469971 877.898804 251.412354 C 876.243042 312.032867 843.048096 355.903656 781.802979 365.336578 C 784.38208 361.887451 786.415161 358.163116 788.545898 355.322144 C 790.969604 349.999756 793.024841 344.850525 794.196777 339.030975 C 797.929993 320.520233 796.687012 302.218201 788.288391 285.141327 C 786.588257 281.678864 781.336914 274.851715 780.444702 272.561127 C 777.474976 264.933624 776.409607 259.183289 772.219177 251.595215 C 762.963867 234.849976 749.73999 221.369507 739.423767 205.435699 C 739.441528 199.458588 738.944336 197.767731 736.072266 192.551025 C 739.130737 181.504089 737.803467 169.296814 734.03479 158.597015 C 740.271606 152.736603 742.730774 149.159637 745.682739 141.174744 C 748.594788 130.599243 747.156494 113.140564 744.311096 102.51001 C 746.685974 100.379761 759.110779 92.329651 759.545776 91.337036 C 757.077698 87.579407 745.292114 97.195679 743.081482 98.897156 C 745.69165 95.926514 759.829895 81.805603 759.381531 79.266479 C 755.524048 79.70459 744.550842 91.997131 741.412415 95.350769 C 743.303406 91.952698 751.275879 76.970581 748.63916 73.457092 C 746.85907 74.490112 740.453552 90.298767 738.154175 94.407043 C 738.908813 89.159241 739.641235 82.993469 738.007751 77.851318 L 737.221985 77.80072 C 736.422974 78.790161 734.851563 93.486023 734.172424 96.430786 C 728.574829 98.560608 724.837158 101.312866 719.852112 104.559509"/>
        <path id="path2" fill="#b9755a" stroke="none" d="M 745.682739 141.174744 C 747.964417 143.665924 750.423645 153.747803 751.799744 157.554718 C 753.233521 161.481018 754.818237 165.352295 756.544983 169.160034 C 765.538452 189.019318 795.652771 225.112549 818.154114 226.809998 C 823.761719 227.222961 829.293152 225.316376 833.455383 221.53595 C 837.090942 218.223602 839.754333 213.520477 841.942749 209.172455 L 841.760803 208.502655 C 846.257507 198.579681 847.784546 186.877075 848.698975 176.096008 C 849.049622 172.012543 849.458008 165.704742 850.425781 161.890717 L 851.20697 158.723053 C 851.855103 178.994263 858.842102 189.864532 866.796875 207.814575 C 873.046997 221.916901 873.921448 240.276611 870.898499 255.191315 C 870.361328 257.90976 868.985229 261.411224 868.91864 264.016937 L 869.384766 264.333862 C 872.296753 262.872131 876.420593 254.469971 877.898804 251.412354 C 876.243042 312.032867 843.048096 355.903656 781.802979 365.336578 C 784.38208 361.887451 786.415161 358.163116 788.545898 355.322144 C 790.969604 349.999756 793.024841 344.850525 794.196777 339.030975 C 797.929993 320.520233 796.687012 302.218201 788.288391 285.141327 C 786.588257 281.678864 781.336914 274.851715 780.444702 272.561127 C 777.474976 264.933624 776.409607 259.183289 772.219177 251.595215 C 762.963867 234.849976 749.73999 221.369507 739.423767 205.435699 C 739.441528 199.458588 738.944336 197.767731 736.072266 192.551025 C 739.130737 181.504089 737.803467 169.296814 734.03479 158.597015 C 740.271606 152.736603 742.730774 149.159637 745.682739 141.174744"/>
        <path id="path3" fill="#deccbc" stroke="none" d="M 851.20697 158.723053 C 851.855103 178.994263 858.842102 189.864532 866.796875 207.814575 C 873.046997 221.916901 873.921448 240.276611 870.898499 255.191315 C 870.361328 257.90976 868.985229 261.411224 868.91864 264.016937 L 869.384766 264.333862 C 872.296753 262.872131 876.420593 254.469971 877.898804 251.412354 C 876.243042 312.032867 843.048096 355.903656 781.802979 365.336578 C 784.38208 361.887451 786.415161 358.163116 788.545898 355.322144 C 816.751343 346.559509 836.940063 319.570282 847.15863 292.705414 C 858.416016 263.102539 855.632751 237.818787 841.942749 209.172455 L 841.760803 208.502655 C 846.257507 198.579681 847.784546 186.877075 848.698975 176.096008 C 849.049622 172.012543 849.458008 165.704742 850.425781 161.890717 Z"/>
        <path id="path4" fill="#fbeddf" stroke="none" d="M 841.760803 208.502655 C 828.323914 180.93811 819.170654 146.774994 834.02356 118.148682 C 835.306458 115.680664 839.550171 108.200012 842.1026 107.400085 L 842.320129 108.360657 C 851.082703 95.942932 868.776611 90.681396 883.416504 91.355225 L 877.570313 94.941956 C 898.335999 94.606384 903.742737 99.52124 916.438354 115.777832 C 918.688904 129.352295 917.659058 143.032928 912.305603 155.779114 C 910.805176 153.909363 908.15509 144.30426 905.758057 140.226563 C 901.594238 132.598572 894.420837 126.601013 885.751404 125.039856 C 884.348694 124.787659 878.600159 124.174194 877.809998 123.836853 C 860.404663 126.363098 851.81073 142.417236 851.20697 158.723053 L 850.425781 161.890717 C 849.458008 165.704742 849.049622 172.012543 848.698975 176.096008 C 847.784546 186.877075 846.257507 198.579681 841.760803 208.502655"/>
        <path id="path5" fill="#d7926e" stroke="none" d="M 701.265991 229.618103 C 705.096863 232.053375 713.61084 227.008423 713.832825 227.18866 C 720.628967 232.707672 726.910156 218.132141 730.93634 218.179657 C 731.997253 219.631653 733.914917 225.263885 734.771667 227.390625 C 745.012451 248.493652 756.025696 254.66925 772.787415 269.925659 C 786.508362 284.075958 792.967163 301.419159 792.638672 321.075134 C 792.39447 335.732758 788.523682 354.110291 777.501648 364.581909 C 771.815247 369.984222 763.447693 374.694 755.595093 375.648407 C 754.130188 377.077759 755.470764 383.918274 752.363464 385.063538 C 742.992737 388.51709 732.774109 389.387146 723.097046 392.228088 C 718.791199 393.49765 708.856689 398.877747 705.37207 396.889069 C 704.462036 393.257935 709.558044 391.211548 710.126221 388.281799 C 708.985413 387.926666 708.164185 388.193054 707.072205 388.650238 C 702.220398 390.68335 703.520996 399.832153 697.29303 397.945557 C 696.010132 397.559387 695.712769 397.364014 694.785034 396.374146 C 693.604248 391.184937 701.128357 387.997711 701.456848 385.303253 C 697.497253 384.859344 694.239014 388.375 692.587708 391.628845 C 691.92627 392.933899 692.090515 394.931458 690.794312 395.100128 C 687.695862 392.285828 689.729004 387.061096 692.352417 384.677338 C 697.386292 380.105133 705.425354 378.595917 711.866333 376.931274 C 717.361877 379.261749 726.430725 382.280273 732.08606 379.257324 L 731.970642 378.706879 C 728.787903 378.058746 724.442078 378.049866 721.609985 377.273041 C 699.139709 371.1073 687.984436 347.229828 692.583252 325.274475 C 692.79187 324.306732 693.022705 323.343445 693.280212 322.389099 C 699.450378 304.442139 712.381226 294.405548 731.584412 293.278015 C 739.525818 292.811951 745.323181 294.627502 752.873962 296.545135 C 739.916443 287.911255 726.106689 289.003235 712.283569 294.738464 C 708.954346 290.778839 706.197754 285.638489 703.032715 282.149445 L 703.094849 281.869781 L 700.498047 279.104218 C 703.889404 276.427521 705.238892 274.993683 707.848999 271.660034 C 708.865601 269.828949 710.192871 267.374603 710.219421 265.261169 L 709.637939 265.231873 L 708.421692 266.612457 C 704.217957 274.523193 694.021484 280.626831 685.192261 281.190582 C 683.048279 281.328156 678.999878 280.586884 677.54834 281.013031 C 678.156433 282.15387 678.800171 282.766449 679.65686 283.720795 C 676.984558 284.985962 666.512939 283.33017 663.330139 282.40686 C 658.220825 280.9198 653.391235 277.315338 648.721375 274.718536 L 648.299622 274.980408 C 648.459412 275.974731 648.601501 276.969086 648.73468 277.963409 C 642.164917 276.738312 627.355957 262.307068 623.525513 256.608612 C 620.859924 252.642395 616.740479 245.923492 613.186584 242.919647 C 608.661011 239.095001 595.528687 241.904877 591.852234 237.990112 L 591.954773 237.18576 C 595.48291 234.208069 597.867126 235.069641 601.731262 233.682037 C 597.349976 229.83609 592.376038 234.674622 588.620667 233.240356 L 588.468384 232.399628 C 590.261292 227.536652 598.542725 228.633514 600.582031 226.502808 C 597.801453 224.111969 591.939697 226.245361 588.858582 227.072815 C 589.496033 226.332825 590.139709 225.612793 590.849915 224.940277 C 593.174438 222.730957 596.145142 221.323761 599.327148 220.924744 C 610.059753 219.487854 616.407104 227.296051 625.140869 231.641449 C 636.110107 237.099609 649.422729 240.263336 661.576721 237.053436 C 665.980286 235.890472 675.315491 232.797791 678.578186 229.592407 C 680.269409 230.089966 685.853699 230.427765 687.917847 230.596924 C 692.561096 230.619141 696.689331 230.395844 701.265991 229.618103"/>
        <path id="path6" fill="#b9755a" stroke="none" d="M 772.787415 269.925659 C 786.508362 284.075958 792.967163 301.419159 792.638672 321.075134 C 792.39447 335.732758 788.523682 354.110291 777.501648 364.581909 C 771.815247 369.984222 763.447693 374.694 755.595093 375.648407 C 754.130188 377.077759 755.470764 383.918274 752.363464 385.063538 C 742.992737 388.51709 732.774109 389.387146 723.097046 392.228088 C 718.791199 393.49765 708.856689 398.877747 705.37207 396.889069 C 704.462036 393.257935 709.558044 391.211548 710.126221 388.281799 C 708.985413 387.926666 708.164185 388.193054 707.072205 388.650238 C 702.220398 390.68335 703.520996 399.832153 697.29303 397.945557 C 696.010132 397.559387 695.712769 397.364014 694.785034 396.374146 C 693.604248 391.184937 701.128357 387.997711 701.456848 385.303253 C 697.497253 384.859344 694.239014 388.375 692.587708 391.628845 C 691.92627 392.933899 692.090515 394.931458 690.794312 395.100128 C 687.695862 392.285828 689.729004 387.061096 692.352417 384.677338 C 697.386292 380.105133 705.425354 378.595917 711.866333 376.931274 C 717.361877 379.261749 726.430725 382.280273 732.08606 379.257324 L 731.970642 378.706879 C 728.787903 378.058746 724.442078 378.049866 721.609985 377.273041 C 699.139709 371.1073 687.984436 347.229828 692.583252 325.274475 C 692.79187 324.306732 693.022705 323.343445 693.280212 322.389099 C 694.758362 325.483093 694.634094 329.589172 695.237793 333.002747 C 696.742615 341.268188 701.7276 349.462646 707.760254 355.149017 C 724.135803 370.592346 755.46637 369.753357 770.368103 352.592133 C 784.741638 336.034637 786.446228 306.062408 779.246094 285.940308 C 777.350708 280.644592 774.274475 275.908142 772.747375 270.630219 Z"/>
        <path id="path7" fill="#b9755a" stroke="none" d="M 601.731262 233.682037 C 604.1026 237.211517 612.838562 236.953644 616.804382 240.35788 C 620.183838 243.259186 623.354187 247.213043 626.247498 250.519226 C 635.750549 261.379272 647.966736 270.352783 662.420166 272.965149 C 666.517395 273.706421 674.902649 275.273407 678.857849 274.376709 C 680.602356 272.716522 680.810974 271.853119 683.319031 272.272614 C 692.574341 273.817383 699.184082 267.793182 708.421692 266.612457 C 704.217957 274.523193 694.021484 280.626831 685.192261 281.190582 C 683.048279 281.328156 678.999878 280.586884 677.54834 281.013031 C 678.156433 282.15387 678.800171 282.766449 679.65686 283.720795 C 676.984558 284.985962 666.512939 283.33017 663.330139 282.40686 C 658.220825 280.9198 653.391235 277.315338 648.721375 274.718536 L 648.299622 274.980408 C 648.459412 275.974731 648.601501 276.969086 648.73468 277.963409 C 642.164917 276.738312 627.355957 262.307068 623.525513 256.608612 C 620.859924 252.642395 616.740479 245.923492 613.186584 242.919647 C 608.661011 239.095001 595.528687 241.904877 591.852234 237.990112 L 591.954773 237.18576 C 595.48291 234.208069 597.867126 235.069641 601.731262 233.682037"/>
        <path id="path8" fill="#b9755a" stroke="none" d="M 701.265991 229.618103 C 705.096863 232.053375 713.61084 227.008423 713.832825 227.18866 C 720.628967 232.707672 726.910156 218.132141 730.93634 218.179657 C 731.997253 219.631653 733.914917 225.263885 734.771667 227.390625 C 720.264954 237.267853 707.298584 239.420349 690.337158 233.894226 C 688.690247 233.357117 686.213257 232.71521 685.39209 231.128296 C 686.213257 230.551636 686.745911 230.706116 687.917847 230.596924 C 692.561096 230.619141 696.689331 230.395844 701.265991 229.618103"/>
        <path id="path9" fill="#b9755a" stroke="none" d="M 700.498047 279.104218 C 703.889404 276.427521 705.238892 274.993683 707.848999 271.660034 C 707.769165 275.020355 705.980225 279.960968 703.094849 281.869781 Z"/>
        <path id="path10" fill="#d7926e" stroke="none" d="M 699.583557 142.825592 C 699.787781 140.630035 699.601379 138.376831 699.956421 136.195465 C 700.919739 130.304901 704.444275 124.843994 708.261902 120.389526 C 711.684326 116.398376 731.091675 98.963684 736.169983 99.23407 C 737.341858 99.296143 738.638 100.066833 739.432617 100.899109 C 744.231201 105.928101 744.226746 131.410706 742.81958 138.148712 C 742.091614 141.638641 740.205017 145.327423 738.269592 148.305115 C 736.494019 151.045807 725.671692 162.111786 725.520752 162.612061 C 725.41864 162.938812 725.476318 163.293945 725.454163 163.634827 C 727.562683 163.33963 729.187378 162.041687 731.033997 160.870636 C 734.514221 170.789673 734.376587 178.929871 733.42218 189.287872 C 732.516663 188.602081 728.05542 185.431702 727.700317 185.01358 C 725.853699 184.722382 726.288696 184.516357 724.823792 185.152527 L 724.375488 186.14859 C 730.124023 189.073059 733.755127 193.482269 735.73053 199.576172 C 736.001282 200.423726 736.254293 201.276326 736.489563 202.133972 C 735.233337 201.079712 734.283386 200.000122 732.725281 199.740479 C 731.86853 201.05661 734.953674 212.014313 730.869751 213.507599 C 729.933105 211.602814 729.746643 209.636353 728.406128 208.660645 L 727.802368 208.968719 C 725.80481 216.166138 726.874634 219.339111 719.132996 224.017853 L 718.618103 223.65918 C 718.578125 222.497467 718.737915 220.412018 718.143127 219.719116 C 715.999023 220.851044 715.031372 223.031952 713.229126 224.262878 C 709.87323 226.557861 705.043579 228.222504 701.265991 229.618103 C 696.689331 230.395844 692.561096 230.619141 687.917847 230.596924 C 685.853699 230.427765 680.269409 230.089966 678.578186 229.592407 C 677.561646 229.25412 676.545105 228.886139 675.475342 229.245239 C 664.750671 232.839966 655.166809 236.031158 643.6698 234.187653 C 644.659668 230.683533 645.31665 227.981903 646.035767 224.414703 C 648.26416 225.199554 655.73053 228.032043 657.683716 226.751373 C 657.182129 225.833008 656.871399 225.572357 655.841492 225.143585 C 643.554382 220.028473 628.683655 214.824219 619.660461 204.6185 C 620.829712 203.867859 620.783997 203.760406 622.13562 203.671631 C 625.723267 205.526245 626.832581 205.87381 631.03186 206.359009 C 634.623047 205.75708 640.162964 203.335571 641.348206 199.617035 C 637.095581 197.505829 639.381653 201.471649 632.585571 202.869934 L 632.079468 202.969818 C 625.626526 203.052826 621.407227 201.373993 618.660339 195.234802 L 617.876404 192.713043 C 618.138794 188.823578 624.984192 187.735138 625.848877 184.174591 C 627.264038 178.344879 622.78418 176.210114 618.184509 174.630707 C 617.021057 174.230774 616.356506 173.960846 615.914368 172.89505 L 616.754211 171.062225 C 624.166077 148.356171 635.133545 131.154968 658.780151 123.123047 C 673.4422 118.141174 687.407349 118.532166 702.295837 122.19043 C 697.697021 130.445251 696.2854 133.694092 699.583557 142.825592"/>
        <path id="path11" fill="#fbeddf" stroke="none" d="M 616.754211 171.062225 C 633.868408 170.65332 642.8974 180.992676 651.025208 194.548157 C 657.728088 196.806671 661.226074 197.805939 668.603699 197.929321 C 686.044617 198.220093 698.873352 183.721802 716.269836 186.790497 C 716.869141 186.896149 719.328308 188.406769 720.393677 188.883942 C 721.796448 186.212097 721.494568 186.764313 724.375488 186.14859 C 730.124023 189.073059 733.755127 193.482269 735.73053 199.576172 C 736.001282 200.423726 736.254293 201.276326 736.489563 202.133972 C 735.233337 201.079712 734.283386 200.000122 732.725281 199.740479 C 731.86853 201.05661 734.953674 212.014313 730.869751 213.507599 C 729.933105 211.602814 729.746643 209.636353 728.406128 208.660645 L 727.802368 208.968719 C 725.80481 216.166138 726.874634 219.339111 719.132996 224.017853 L 718.618103 223.65918 C 718.578125 222.497467 718.737915 220.412018 718.143127 219.719116 C 715.999023 220.851044 715.031372 223.031952 713.229126 224.262878 C 709.87323 226.557861 705.043579 228.222504 701.265991 229.618103 C 696.689331 230.395844 692.561096 230.619141 687.917847 230.596924 C 685.853699 230.427765 680.269409 230.089966 678.578186 229.592407 C 677.561646 229.25412 676.545105 228.886139 675.475342 229.245239 C 664.750671 232.839966 655.166809 236.031158 643.6698 234.187653 C 644.659668 230.683533 645.31665 227.981903 646.035767 224.414703 C 648.26416 225.199554 655.73053 228.032043 657.683716 226.751373 C 657.182129 225.833008 656.871399 225.572357 655.841492 225.143585 C 643.554382 220.028473 628.683655 214.824219 619.660461 204.6185 C 620.829712 203.867859 620.783997 203.760406 622.13562 203.671631 C 625.723267 205.526245 626.832581 205.87381 631.03186 206.359009 C 634.623047 205.75708 640.162964 203.335571 641.348206 199.617035 C 637.095581 197.505829 639.381653 201.471649 632.585571 202.869934 L 632.079468 202.969818 C 625.626526 203.052826 621.407227 201.373993 618.660339 195.234802 L 617.876404 192.713043 C 618.138794 188.823578 624.984192 187.735138 625.848877 184.174591 C 627.264038 178.344879 622.78418 176.210114 618.184509 174.630707 C 617.021057 174.230774 616.356506 173.960846 615.914368 172.89505 Z"/>
        <path id="path12" fill="#deccbc" stroke="none" d="M 724.375488 186.14859 C 730.124023 189.073059 733.755127 193.482269 735.73053 199.576172 C 736.001282 200.423726 736.254293 201.276326 736.489563 202.133972 C 735.233337 201.079712 734.283386 200.000122 732.725281 199.740479 C 731.86853 201.05661 734.953674 212.014313 730.869751 213.507599 C 729.933105 211.602814 729.746643 209.636353 728.406128 208.660645 L 727.802368 208.968719 C 725.80481 216.166138 726.874634 219.339111 719.132996 224.017853 L 718.618103 223.65918 C 718.578125 222.497467 718.737915 220.412018 718.143127 219.719116 C 715.999023 220.851044 715.031372 223.031952 713.229126 224.262878 C 709.87323 226.557861 705.043579 228.222504 701.265991 229.618103 C 696.689331 230.395844 692.561096 230.619141 687.917847 230.596924 C 685.853699 230.427765 680.269409 230.089966 678.578186 229.592407 C 677.561646 229.25412 676.545105 228.886139 675.475342 229.245239 C 664.750671 232.839966 655.166809 236.031158 643.6698 234.187653 C 644.659668 230.683533 645.31665 227.981903 646.035767 224.414703 C 648.26416 225.199554 655.73053 228.032043 657.683716 226.751373 C 657.182129 225.833008 656.871399 225.572357 655.841492 225.143585 C 643.554382 220.028473 628.683655 214.824219 619.660461 204.6185 C 620.829712 203.867859 620.783997 203.760406 622.13562 203.671631 C 625.723267 205.526245 626.832581 205.87381 631.03186 206.359009 C 642.102783 214.921448 671.125061 223.538452 685.192261 223.048828 C 697.470581 222.947662 708.048767 220.497742 716.678223 211.220612 C 722.573242 204.884796 728.015503 196.297943 720.393677 188.883942 C 721.796448 186.212097 721.494568 186.764313 724.375488 186.14859"/>
        <path id="path13" fill="#deccbc" stroke="none" d="M 618.660339 195.234802 C 621.368591 195.251709 630.215088 200.996704 632.079468 202.969818 C 625.626526 203.052826 621.407227 201.373993 618.660339 195.234802"/>
        <path id="path14" fill="#b9755a" stroke="none" d="M 725.454163 163.634827 C 727.562683 163.33963 729.187378 162.041687 731.033997 160.870636 C 734.514221 170.789673 734.376587 178.929871 733.42218 189.287872 C 732.516663 188.602081 728.05542 185.431702 727.700317 185.01358 C 729.498108 180.909668 728.650269 167.220673 725.454163 163.634827"/>
        <path id="path15" fill="#fbeddf" stroke="none" d="M 671.848633 148.796051 C 700.418152 149.143219 699.747803 186.710602 672.421265 187.372467 C 663.956055 186.730133 656.281006 181.531616 649.871094 176.221649 C 650.816589 163.101257 657.537231 150.358612 671.848633 148.796051"/>
        <path id="path16" fill="#000000" stroke="none" d="M 669.611328 154.469574 C 674.285645 154.209473 678.316223 154.693787 682.080505 157.728699 C 683.944946 159.231323 688.415039 164.388092 689.29834 166.542358 C 684.260071 169.878326 688.166443 178.355072 674.60968 182.553497 C 665.647339 183.186066 662.25592 179.324097 654.895996 175.974823 L 654.381104 175.745789 C 657.368591 165.418396 657.435181 157.885864 669.611328 154.469574"/>
        <path id="path17" fill="#faf9fa" stroke="none" d="M 667.467346 159.542938 C 669.621948 158.413513 672.284302 159.22525 673.4422 161.364716 C 674.596375 163.503448 673.819519 166.175293 671.697693 167.359619 C 670.299438 168.140015 668.590393 168.107117 667.223145 167.274384 C 665.853821 166.442993 665.039246 164.937653 665.092468 163.336548 C 665.141968 161.736298 666.0495 160.286652 667.467346 159.542938"/>
        <path id="path18" fill="#000000" stroke="none" d="M 733.963745 106.970825 C 735.042419 107.585205 733.351135 107.665039 734.083618 108.226135 C 735.947998 109.653259 736.778076 109.228882 738.336182 111.102173 C 738.589233 112.819641 737.821289 113.8526 737.035522 115.458679 C 741.177124 129.982697 739.792175 142.072723 727.220886 152.283386 C 724.575256 154.43457 721.45459 155.684967 718.777893 158.003967 L 718.493774 158.52066 L 717.783569 158.689331 C 716.407471 156.289185 715.515198 152.56662 714.423218 149.939575 C 707.218689 132.587036 721.015137 117.613342 733.963745 106.970825"/>
        <path id="path19" fill="#875c4c" stroke="none" d="M 735.415283 111.763184 L 735.74823 112.170227 C 734.873779 119.86969 736.485107 124.312195 736.400818 131.589142 C 736.329773 137.916016 725.254395 154.397278 718.604736 153.567139 C 717.521667 152.671783 717.494995 151.598877 717.175415 150.173065 C 719.230652 146.439453 724.388794 139.457336 720.708862 136.0224 C 719.004272 135.412903 717.996582 135.825714 716.127808 136.17511 C 719.794434 126.457153 725.893616 116.641663 735.415283 111.763184"/>
        <path id="path20" fill="#b9755a" stroke="none" d="M 718.378357 139.257111 C 719.528076 140.858276 716.371887 145.341187 715.453064 146.90152 C 714.285583 146.592163 714.804993 143.571381 715.075745 142.699127 C 715.732727 140.587463 716.567261 140.188416 718.378357 139.257111"/>
        <path id="path21" fill="#8fbb7a" stroke="none" d="M 433.234711 348.832306 C 433.736755 346.994537 434.559753 343.798462 435.268677 342.124939 C 437.821838 336.097168 442.699432 331.354797 448.79657 328.972137 C 462.051453 323.831787 471.71701 329.908783 476.313141 342.524475 C 484.446289 334.534241 496.664246 332.421265 500.684235 345.334351 C 509.492096 341.911896 520.509338 340.358215 527.446167 349.009857 C 528.981628 350.923065 530.110413 353.848389 529.755737 356.34314 C 526.417664 355.757141 520.024109 349.964264 516.966553 351.353668 L 516.946533 352.410156 C 518.442505 355.82373 527.733337 363.813965 531.013794 367.045593 C 534.86554 370.916382 539.731995 375.62619 542.754944 380.096283 C 542.595154 384.646301 542.291565 389.493652 538.389221 392.685333 C 523.999268 404.462006 506.712402 386.395233 494.697327 379.124115 C 491.055542 376.922394 485.286163 372.967224 482.464722 370.707764 C 479.282837 368.754608 466.595673 360.289429 463.213165 362.655396 C 463.292633 365.514099 466.310242 367.729156 468.485809 369.87323 C 472.620331 373.819519 476.663818 377.304138 481.601349 381.543365 C 486.86203 386.057861 494.33374 391.358093 487.95578 399.4104 C 485.869019 402.047211 478.598328 399.015381 475.74939 399.703369 C 472.706421 400.16507 470.753265 401.035095 468.004211 402.238098 C 464.870697 398.371704 462.024841 395.402008 456.598145 394.918121 C 453.15329 394.583313 449.725464 395.705261 447.145264 398.012146 C 444.06015 400.80426 443.140381 403.645233 442.315613 407.560486 C 438.052826 407.880066 436.878693 408.217438 432.95285 410.308197 C 427.782257 408.323975 426.433716 407.649231 423.441833 402.757446 C 419.669556 405.909119 416.654114 408.155273 411.863953 409.664551 C 404.005157 412.141541 393.654694 411.773102 387.779663 405.332092 C 385.053223 402.317993 384.74649 399.592407 384.239532 395.788208 C 377.287598 395.943542 369.606781 396.072327 364.109497 390.812012 C 361.905457 388.732605 360.66629 385.829681 360.68924 382.799652 C 360.704346 381.06842 361.059448 379.798859 361.641846 378.196381 C 366.776459 367.587128 376.960876 366.450714 387.380157 366.082306 C 386.663239 348.286316 398.037781 343.372284 413.922363 344.038147 C 420.844971 344.326691 426.843414 346.239929 433.234711 348.832306"/>
        <path id="path22" fill="#67925e" stroke="none" d="M 468.485809 369.87323 C 472.620331 373.819519 476.663818 377.304138 481.601349 381.543365 C 486.86203 386.057861 494.33374 391.358093 487.95578 399.4104 C 485.869019 402.047211 478.598328 399.015381 475.74939 399.703369 C 472.706421 400.16507 470.753265 401.035095 468.004211 402.238098 C 464.870697 398.371704 462.024841 395.402008 456.598145 394.918121 C 453.15329 394.583313 449.725464 395.705261 447.145264 398.012146 C 444.06015 400.80426 443.140381 403.645233 442.315613 407.560486 C 438.052826 407.880066 436.878693 408.217438 432.95285 410.308197 C 427.782257 408.323975 426.433716 407.649231 423.441833 402.757446 C 419.669556 405.909119 416.654114 408.155273 411.863953 409.664551 C 404.005157 412.141541 393.654694 411.773102 387.779663 405.332092 C 385.053223 402.317993 384.74649 399.592407 384.239532 395.788208 C 377.287598 395.943542 369.606781 396.072327 364.109497 390.812012 C 361.905457 388.732605 360.66629 385.829681 360.68924 382.799652 C 360.704346 381.06842 361.059448 379.798859 361.641846 378.196381 C 369.140228 385.609497 378.95224 384.282257 388.018036 381.099457 C 389.568146 385.338745 390.974854 388.113129 395.339294 390.084076 C 401.190796 392.729736 407.874634 390.630066 411.954529 386.053406 C 414.366669 388.086517 415.791199 388.876648 419.024567 389.089691 C 421.94986 389.280579 427.677521 387.092133 427.633118 383.722931 C 426.298309 383.483276 426.138947 384.042542 424.587067 385.085754 C 422.949097 386.497314 419.200775 387.327423 417.10199 386.408569 C 413.611176 384.881531 412.709137 382.852905 411.371246 379.568024 C 414.558899 378.325073 417.582733 381.947327 422.400848 382.391235 C 425.715485 382.022827 428.311401 379.74115 431.468903 378.049866 C 435.412079 375.936951 440.636322 379.275024 442.639648 375.648407 C 449.250244 385.431946 465.935608 382.764099 466.13092 375.288818 C 466.906433 373.477722 467.691254 371.675446 468.485809 369.87323"/>
        <path id="path23" fill="#67925e" stroke="none" d="M 482.464722 370.707764 C 486.240112 367.955536 487.013824 365.52298 489.181854 363.813965 L 489.993744 364.657379 C 490.570374 366.30426 491.84967 366.934601 493.370941 367.844574 C 498.514862 368.186401 500.212372 368.301819 504.713501 365.407562 C 505.609833 368.687622 507.748077 371.489807 510.67511 373.220215 C 518.015015 377.64151 528.048096 375.888062 531.013794 367.045593 C 534.86554 370.916382 539.731995 375.62619 542.754944 380.096283 C 542.595154 384.646301 542.291565 389.493652 538.389221 392.685333 C 523.999268 404.462006 506.712402 386.395233 494.697327 379.124115 C 491.055542 376.922394 485.286163 372.967224 482.464722 370.707764"/>
        <path id="path24" fill="#000000" stroke="none" d="M 442.639648 375.648407 C 440.888916 369.731171 439.35614 372.2836 434.236603 371.604462 C 428.423279 370.832062 423.87149 365.29657 425.750122 359.330566 C 426.490021 356.996521 428.124634 355.050812 430.296082 353.919373 C 431.991791 353.036041 433.434906 352.858459 435.302429 352.649841 L 435.722351 353.09375 C 433.490875 355.34436 429.371429 356.795868 428.314514 359.343903 C 424.094788 369.504761 438.176666 369.376068 443.760071 368.448273 C 444.08902 372.261414 444.172028 374.929291 447.411163 377.455048 C 453.218262 381.987274 461.11441 379.257324 466.13092 375.288818 C 465.935608 382.764099 449.250244 385.431946 442.639648 375.648407"/>
        <path id="path25" fill="#000000" stroke="none" d="M 411.954529 386.053406 C 409.753662 382.497772 410.56424 382.533325 406.056854 382.954987 C 401.280487 383.407776 398.455048 382.928406 396.216461 378.240753 C 395.128296 376.000397 394.999573 373.413513 395.859985 371.076202 C 396.548035 369.180725 397.516632 367.871246 399.339722 367.00119 L 400.00827 367.254211 C 398.851013 369.970886 396.826385 373.59314 397.969849 376.469604 C 400.059753 381.720947 406.478119 381.53009 410.870087 379.772217 L 411.371246 379.568024 C 412.709137 382.852905 413.611176 384.881531 417.10199 386.408569 C 419.200775 387.327423 422.949097 386.497314 424.587067 385.085754 C 426.138947 384.042542 426.298309 383.483276 427.633118 383.722931 C 427.677521 387.092133 421.94986 389.280579 419.024567 389.089691 C 415.791199 388.876648 414.366669 388.086517 411.954529 386.053406"/>
        <path id="path26" fill="#000000" stroke="none" d="M 502.856232 363.880554 C 503.72229 362.571014 504.484009 360.999634 505.876984 360.506927 L 506.426514 360.822083 C 506.555695 362.628723 505.776215 363.955994 504.713501 365.407562 C 500.212372 368.301819 498.514862 368.186401 493.370941 367.844574 C 491.84967 366.934601 490.570374 366.30426 489.993744 364.657379 C 494.503754 366.583923 498.614288 366.215485 502.856232 363.880554"/>
        <path id="path27" fill="#b9755a" stroke="none" d="M 524.228333 356.66272 C 548.090698 369.229553 557.510681 388.477173 576.606445 405.731628 C 589.592773 417.468323 603.387451 420.571198 616.066223 432.10376 C 620.880737 436.480621 624.380493 440.733215 628.306335 445.855835 C 629.753418 447.742401 632.674316 452.691895 634.090393 453.406586 C 634.219116 453.193512 634.534302 452.736267 634.59198 452.527649 C 633.784058 449.930847 631.728821 446.463959 630.370483 443.973694 C 632.110535 433.977051 631.395874 424.282227 630.521362 414.285522 C 629.300659 406.517273 627.795837 399.406006 625.480469 391.872955 C 624.927795 390.07074 623.247192 385.201172 623.179688 383.674103 L 624.006226 383.15033 C 629.136414 385.014709 635.812744 417.867859 638.382874 424.552979 C 638.39624 418.67572 637.490662 415.541809 637.042297 410.139526 C 642.555603 399.130798 646.497437 391.278137 653.724182 381.21933 C 645.924805 400.857544 637.255371 417.312988 641.530151 439.392639 C 641.934082 441.487854 643.234741 451.187073 644.411072 452.416687 L 645.072449 452.252441 C 646.115662 454.951416 646.8703 455.186646 649.600281 456.420685 C 646.31543 466.794678 644.815002 492.687439 646.599487 503.363281 C 646.466309 511.220306 649.129761 530.791931 652.081665 537.841125 C 653.826233 546.736877 656.374207 551.766296 661.212769 559.596741 L 655.166809 559.52124 C 645.387695 543.491943 645.329956 531.78186 643.398987 513.670654 C 640.513672 527.373901 645.858154 546.674683 652.072815 559.161682 L 651.935242 559.574524 C 649.538147 559.916321 644.255676 559.654419 641.601196 559.592285 C 640.518066 560.315857 639.674683 560.804138 638.720276 561.6875 C 638.09436 562.353333 638.476074 562.087036 637.543884 562.437622 C 636.198914 561.492126 635.417664 560.821899 634.170288 559.734314 C 630.219543 559.485779 624.505615 559.663269 620.422607 559.663269 C 623.02478 549.431396 626.493896 539.181702 628.079956 528.763306 C 628.661438 524.94574 631.187256 506.182037 628.443909 503.842651 C 628.039978 505.44519 627.889038 509.595642 627.911255 511.304688 C 628.106567 528.519165 622.137878 543.216736 618.521851 559.654419 C 614.977295 559.618896 611.433655 559.52124 607.892639 559.352539 C 614.782898 548.490295 620.732483 536.105469 622.129883 523.187927 C 619.671997 527.831116 617.585205 535.257568 615.458923 540.375793 C 612.345825 547.86438 609.46228 552.45874 605.159973 559.139526 C 601.140442 559.636658 601.534607 561.083801 598.854797 561.949341 C 598.606628 561.754089 596.733826 560.280273 597.086304 559.827515 C 623.481995 525.624939 632.616638 468.814453 595.377747 438.682404 C 577.358887 424.10025 548.3703 420.171692 525.808594 421.308105 C 517.737122 421.712067 509.855682 423.40329 501.764648 424.375488 C 498.216125 425.73822 480.694885 426.279785 477.616882 424.473114 C 485.242676 424.033661 498.131317 422.972717 505.342072 420.402527 C 520.764526 414.902588 527.860291 414.38324 544.004578 414.458679 C 541.206848 413.744751 538.400757 413.064056 535.586853 412.416748 C 532.065857 412.261383 527.835022 412.061584 524.627808 410.525696 C 512.672668 404.794922 493.995056 389.311646 484.280731 380.291595 C 479.124817 375.772644 473.323914 370.88089 468.455627 366.135559 C 483.676147 374.037018 497.229797 384.854919 511.870544 394.101349 C 534.952515 408.683502 553.481873 409.779968 578.759827 415.941345 C 576.89325 414.329956 576.304626 413.735107 574.029602 412.678619 C 572.929199 412.332397 569.700256 411.360229 569.041931 410.672241 C 561.629639 402.952759 554.089111 390.150635 547.771057 381.174957 C 543.988586 376.744812 540.471558 372.638733 536.38501 368.483826 C 532.527466 364.559753 527.871399 360.648956 524.228333 356.66272"/>
        <path id="path28" fill="#875c4c" stroke="none" d="M 501.764648 424.375488 C 508.764984 418.618042 538.509033 417.082153 548.105774 418.267395 C 555.928223 419.235046 571.858032 421.680969 579.072754 424.48645 C 604.129272 434.238953 623.793152 461.845154 626.568909 488.452637 C 626.856995 491.1604 627.059448 502.741791 628.443909 503.842651 C 628.039978 505.44519 627.889038 509.595642 627.911255 511.304688 C 628.106567 528.519165 622.137878 543.216736 618.521851 559.654419 C 614.977295 559.618896 611.433655 559.52124 607.892639 559.352539 C 614.782898 548.490295 620.732483 536.105469 622.129883 523.187927 C 619.671997 527.831116 617.585205 535.257568 615.458923 540.375793 C 612.345825 547.86438 609.46228 552.45874 605.159973 559.139526 C 601.140442 559.636658 601.534607 561.083801 598.854797 561.949341 C 598.606628 561.754089 596.733826 560.280273 597.086304 559.827515 C 623.481995 525.624939 632.616638 468.814453 595.377747 438.682404 C 577.358887 424.10025 548.3703 420.171692 525.808594 421.308105 C 517.737122 421.712067 509.855682 423.40329 501.764648 424.375488"/>
        <path id="path29" fill="#875c4c" stroke="none" d="M 484.280731 380.291595 C 494.401245 383.026031 493.901855 385.298828 501.503204 391.597748 C 506.492218 395.730499 515.281494 400.227234 520.870605 403.827271 C 525.153381 406.583862 531.831482 409.029785 535.586853 412.416748 C 532.065857 412.261383 527.835022 412.061584 524.627808 410.525696 C 512.672668 404.794922 493.995056 389.311646 484.280731 380.291595"/>
        <path id="path30" fill="#875c4c" stroke="none" d="M 630.521362 414.285522 L 631.307129 415.049072 L 632.186035 414.689514 C 634.423279 417.867859 635.382141 447.471619 634.59198 452.527649 C 633.784058 449.930847 631.728821 446.463959 630.370483 443.973694 C 632.110535 433.977051 631.395874 424.282227 630.521362 414.285522"/>
        <path id="path31" fill="#875c4c" stroke="none" d="M 547.771057 381.174957 C 552.552307 383.32785 555.256592 392.889526 559.188232 395.193359 C 557.133423 391.291473 552.998901 386.088989 551.798157 383.034912 L 552.042297 382.844025 C 554.573853 386.009033 558.246216 391.988403 560.773376 395.357635 C 562.825989 398.096466 573.546204 410.978516 574.029602 412.678619 C 572.929199 412.332397 569.700256 411.360229 569.041931 410.672241 C 561.629639 402.952759 554.089111 390.150635 547.771057 381.174957"/>
        <path id="path32" fill="#533324" stroke="none" d="M 638.720276 561.6875 C 639.279602 553.346558 638.538269 544.632751 639.319519 535.355225 C 640.509216 542.848267 641.365906 551.464417 642.480103 559.206116 C 645.463074 559.281494 649.165283 559.476868 652.072815 559.161682 L 651.935242 559.574524 C 649.538147 559.916321 644.255676 559.654419 641.601196 559.592285 C 640.518066 560.315857 639.674683 560.804138 638.720276 561.6875"/>
        <path id="path33" fill="#000000" stroke="none" d="M 587.367065 422.089355 C 604.614868 425.201111 626.716309 458.67569 627.058044 475.477417 C 626.158264 473.568604 625.364563 471.664246 624.615295 469.693359 C 618.437927 453.464294 609.679749 437.235291 594.927124 427.309631 C 592.400024 425.609467 589.646057 424.086914 587.367065 422.089355"/>
        <path id="path34" fill="#000000" stroke="none" d="M 635.124634 463.682922 C 635.408752 463.909302 635.768311 464.157898 635.901489 464.481934 C 640.158508 475.00238 639.732361 493.761658 637.219849 504.006897 L 637.020142 504.357605 C 636.620605 500.429077 637.517273 492.390015 637.499512 487.919922 C 637.459595 479.277161 636.53186 472.12146 635.124634 463.682922"/>
        <path id="path35" fill="#8fbb7a" stroke="none" d="M 620.433289 342.821838 C 620.887878 337.366333 622.988831 333.35791 627.166382 329.735657 C 632.179504 325.470886 638.687012 323.382568 645.245605 323.933868 C 654.980347 324.737305 663.521057 331.648895 662.540039 342.156006 C 662.366882 344.038147 661.723206 346.501801 662.09613 348.308472 C 664.590881 347.682617 666.921326 346.683838 669.362793 348.299622 C 673.899475 351.30481 672.545532 356.365295 670.294983 359.934265 C 670.095215 360.253876 669.890991 360.569031 669.686829 360.884216 C 678.365051 360.200592 682.506714 362.260315 683.585388 371.475708 C 675.630676 378.373962 678.422791 374.773865 670.534729 377.051086 C 667.707031 377.863464 668.057678 386.603851 657.301941 380.615631 C 658.389526 377.907837 659.596985 375.639496 659.379456 372.75415 L 658.749084 372.225891 C 655.948059 372.909515 653.071594 377.246429 651.238281 379.616852 C 648.190491 383.90036 645.413696 388.3703 642.924011 393.000488 C 640.944214 396.711487 638.533813 401.80304 636.190002 405.14563 C 632.909607 396.733704 631.750977 389.915405 627.464661 381.148346 C 633.65979 378.720154 634.991455 377.299683 637.033447 371.169403 C 636.016907 366.526215 631.688843 359.548096 626.457947 363.565369 C 623.871765 365.767151 619.52771 368.257416 616.173157 366.366394 L 615.565491 365.469727 C 609.195068 359.339447 602.286133 368.164215 604.666321 376.039032 C 606.837463 379.177399 608.197571 381.032928 611.788757 382.573242 C 615.20282 384.038147 615.425659 381.796417 618.010498 382.448944 C 621.461365 387.256409 624.09906 394.962555 624.812805 400.782104 C 625.119995 403.285706 621.326416 404.803833 618.865417 403.960388 C 613.863098 402.242493 613.014832 401.33252 610.432617 397.137634 C 606.395813 401.607727 599.219238 406.051208 593.816956 400.067413 C 591.620544 397.639221 592.175415 394.292236 592.559814 391.260376 C 582.499268 392.387909 570.225403 390.292694 575.470093 377.162048 C 568.187866 372.736389 565.267883 370.694427 565.082336 361.461273 C 568.641541 343.305756 584.98822 345.125732 597.402771 353.266876 C 599.735046 339.869965 608.659241 336.092346 620.433289 342.821838"/>
        <path id="path36" fill="#67925e" stroke="none" d="M 565.082336 361.461273 C 568.973999 371.924042 582.222717 374.290039 591.479797 369.105286 C 593.939453 372.811859 599.800293 378.693542 604.666321 376.039032 C 606.837463 379.177399 608.197571 381.032928 611.788757 382.573242 C 615.20282 384.038147 615.425659 381.796417 618.010498 382.448944 C 621.461365 387.256409 624.09906 394.962555 624.812805 400.782104 C 625.119995 403.285706 621.326416 404.803833 618.865417 403.960388 C 613.863098 402.242493 613.014832 401.33252 610.432617 397.137634 C 606.395813 401.607727 599.219238 406.051208 593.816956 400.067413 C 591.620544 397.639221 592.175415 394.292236 592.559814 391.260376 C 582.499268 392.387909 570.225403 390.292694 575.470093 377.162048 C 568.187866 372.736389 565.267883 370.694427 565.082336 361.461273"/>
        <path id="path37" fill="#67925e" stroke="none" d="M 637.033447 371.169403 C 640.211792 370.121796 641.765442 369.171844 644.601929 367.38739 C 644.735168 372.856232 645.764954 376.882416 651.238281 379.616852 C 648.190491 383.90036 645.413696 388.3703 642.924011 393.000488 C 640.944214 396.711487 638.533813 401.80304 636.190002 405.14563 C 632.909607 396.733704 631.750977 389.915405 627.464661 381.148346 C 633.65979 378.720154 634.991455 377.299683 637.033447 371.169403"/>
        <linearGradient id="linearGradient1" x1="830.969541" y1="402.224762" x2="830.010714" y2="346.208837" gradientUnits="userSpaceOnUse">
            <stop offset="1e-05" stop-color="#79a266" stop-opacity="1"/>
            <stop offset="1" stop-color="#9bc686" stop-opacity="1"/>
        </linearGradient>
        <path id="path38" fill="url(#linearGradient1)" stroke="none" d="M 845.081177 352.907349 C 846.603699 352.281403 847.886597 350.812073 849.076294 349.800018 C 853.484192 346.049011 861.483337 343.216919 867.262939 345.423096 C 880.553345 350.501373 876.926636 364.027039 870.534485 372.301361 C 875.901245 375.648407 878.995239 378.342865 880.397949 384.850464 C 877.135254 387.691467 876.362915 388.375 872.048218 389.564697 C 868.181824 390.226105 864.532898 388.51709 861.607605 386.119995 C 858.762207 386.941223 858.202881 387.083313 855.206543 387.27417 C 854.500732 387.642639 853.901489 387.926666 853.248962 388.36618 C 853.240112 388.388367 847.673523 396.130005 847.722351 396.098907 C 845.391907 396.973389 846.062195 398.336182 844.60614 399.423737 C 838.906494 403.663025 836.429565 403.023743 831.222595 399.765564 L 830.388062 399.934235 C 827.822266 401.301422 822.286865 403.028198 820.480164 400.280487 C 815.730408 393.049316 823.116943 387.327423 827.32959 383.927155 C 826.193176 379.647949 825.673828 377.632629 827.813416 373.539856 C 830.290344 368.794525 834.614014 367.098846 839.203918 370.144012 C 840.202698 370.80542 841.49884 371.82196 842.608643 371.648834 C 842.120361 363.476593 827.391724 364.155792 823.725098 376.096741 C 823.636292 379.106354 823.729553 379.599121 824.55072 382.533325 C 812.578735 384.548584 800.593384 386.492859 788.599182 388.36618 C 782.921631 383.998169 782.269104 381.423553 782.397888 374.485382 C 783.143616 372.438995 784.026978 370.681122 784.963562 368.723541 C 789.518005 367.422882 795.404175 366.557312 800.411377 365.176727 C 812.325684 361.878571 819.863098 357.626007 830.374695 351.668823 C 833.211243 349.671265 836.917847 347.212036 839.536865 345.059143 C 842.328979 347.509491 844.153442 349.089752 845.081177 352.907349"/>
        <path id="path39" fill="#67925e" stroke="none" d="M 808.521484 371.5867 C 815.712646 371.235992 817.7901 371.773132 823.725098 376.096741 C 823.636292 379.106354 823.729553 379.599121 824.55072 382.533325 C 812.578735 384.548584 800.593384 386.492859 788.599182 388.36618 C 782.921631 383.998169 782.269104 381.423553 782.397888 374.485382 C 783.241211 376.389679 786.281982 378.524872 788.235107 379.070862 C 796.980042 381.52121 803.407715 378.058746 808.521484 371.5867"/>
        <path id="path40" fill="#000000" stroke="none" d="M 850.763062 387.371796 C 855.397461 385.081299 856.871155 381.290375 855.042297 376.349731 C 853.941406 373.371185 849.968506 373.016052 848.707886 371.173828 C 854.656128 367.751373 862.508728 379.212891 855.206543 387.27417 C 854.500732 387.642639 853.901489 387.926666 853.248962 388.36618 C 852.285706 388.099792 851.673096 387.775757 850.763062 387.371796"/>
        <path id="path41" fill="#8fbb7a" stroke="none" d="M 830.374695 351.668823 C 833.211243 349.671265 836.917847 347.212036 839.536865 345.059143 C 842.328979 347.509491 844.153442 349.089752 845.081177 352.907349 C 844.788208 352.716431 843.700623 351.682159 843.696228 351.677704 C 840.100586 350.408173 836.789063 351.806427 833.397644 351.517914 C 831.746338 351.375854 832.09259 351.366943 830.374695 351.668823"/>
        <linearGradient id="linearGradient2" x1="846.315215" y1="386.639382" x2="848.894282" y2="391.122786" gradientUnits="userSpaceOnUse">
            <stop offset="1e-05" stop-color="#3f6536" stop-opacity="1"/>
            <stop offset="1" stop-color="#567d4c" stop-opacity="1"/>
        </linearGradient>
        <path id="path42" fill="url(#linearGradient2)" stroke="none" d="M 847.722351 396.098907 C 848.050842 395.286591 848.969727 393.599731 849.404785 392.747498 C 848.357178 392.086029 848.414856 393.444397 846.182068 393.684113 C 844.770386 392.441162 844.379822 391.23822 843.434326 389.737823 C 842.679626 388.543701 842.830566 390.670013 841.805176 388.703491 L 842.382263 388.028809 C 843.838257 387.460602 849.027466 387.327423 850.763062 387.371796 C 851.673096 387.775757 852.285706 388.099792 853.248962 388.36618 C 853.240112 388.388367 847.673523 396.130005 847.722351 396.098907"/>
        <path id="path43" fill="#8fbb7a" stroke="none" d="M 872.048218 389.564697 C 871.22699 389.395996 871.590942 389.578033 870.960571 389.009827 C 874.551819 388.67688 875.111145 388.086517 878.040833 385.915833 C 877.499329 383.683014 874.178894 376.997833 872.967041 374.938171 C 871.022766 373.779541 870.090576 373.766266 870.392456 371.520081 L 870.534485 372.301361 C 875.901245 375.648407 878.995239 378.342865 880.397949 384.850464 C 877.135254 387.691467 876.362915 388.375 872.048218 389.564697"/>
        <path id="path44" fill="#8fbb7a" stroke="none" d="M 444.749084 410.734314 C 445.49881 406.344177 446.057709 402.4245 450.067902 399.583527 C 452.200897 398.067261 454.863983 397.495697 457.431366 398.003265 C 461.235596 398.735718 463.82309 401.372467 465.802002 404.506439 C 466.135376 405.034668 466.459412 405.571777 466.774597 406.113342 C 469.928497 404.559692 472.746826 402.983826 476.296722 402.74411 C 488.22348 401.927338 493.906738 409.233948 490.955658 420.318207 C 485.341187 421.121643 468.584808 420.988495 465.65683 422.5466 L 465.398041 423.354492 C 467.248657 425.573975 472.442749 426.834656 475.306396 427.527161 C 483.501251 428.889893 487.487915 428.814484 495.624207 428.374969 C 499.332977 435.779266 497.837036 443.747284 488.570587 445.642761 C 484.015259 446.574951 480.656708 444.550781 477.026031 442.095978 C 472.121826 447.982117 465.81488 451.422363 458.024841 446.79248 C 453.932098 444.359863 453.18454 440.577881 452.401947 436.165466 C 441.060699 436.223175 429.337708 433.484283 430.490509 419.394836 C 433.378998 411.781982 436.67453 410.348145 444.749084 410.734314"/>
        <path id="path45" fill="#67925e" stroke="none" d="M 452.401947 436.165466 C 441.060699 436.223175 429.337708 433.484283 430.490509 419.394836 C 434.125183 424.393188 438.556671 426.315308 444.532013 427.340698 C 446.966797 427.757996 453.81665 427.957733 455.36322 425.73822 L 456.625214 424.659515 C 460.340668 426.11554 457.873474 432.143738 469.42157 429.480347 C 472.57016 429.573547 473.347015 430.035217 475.306396 427.527161 C 483.501251 428.889893 487.487915 428.814484 495.624207 428.374969 C 499.332977 435.779266 497.837036 443.747284 488.570587 445.642761 C 484.015259 446.574951 480.656708 444.550781 477.026031 442.095978 C 472.121826 447.982117 465.81488 451.422363 458.024841 446.79248 C 453.932098 444.359863 453.18454 440.577881 452.401947 436.165466"/>
        <path id="path46" fill="#000000" stroke="none" d="M 455.36322 425.73822 L 456.625214 424.659515 C 460.340668 426.11554 457.873474 432.143738 469.42157 429.480347 C 467.793335 435.730469 457.718994 432.827332 455.36322 425.73822"/>
        <path id="path47" fill="#deccbc" stroke="none" d="M 877.809998 123.836853 C 878.600159 124.174194 884.348694 124.787659 885.751404 125.039856 C 894.420837 126.601013 901.594238 132.598572 905.758057 140.226563 C 908.15509 144.30426 910.805176 153.909363 912.305603 155.779114 C 909.921814 161.366089 907.51593 164.105774 903.827087 168.880859 C 903.40094 165.663452 903.116821 163.740448 902.31781 160.605621 C 891.340149 175.669434 870.663208 177.077484 855.313049 168.087616 C 854.380859 156.798737 854.629517 136.724182 869.402527 133.467682 C 875.319763 132.162201 879.288208 134.762604 883.966919 137.985291 C 879.452454 130.807434 876.456116 130.354645 868.350525 130.348022 C 870.61438 128.78363 876.926636 125.700806 877.809998 123.836853"/>
        <path id="path48" fill="#deccbc" stroke="none" d="M 648.74353 281.909698 C 661.483521 283.276917 672.851868 290.898712 686.630493 285.878204 C 687.18103 285.678436 687.797974 283.7164 691.069519 283.40564 C 693.57312 283.17038 698.615845 280.413757 700.498047 279.104218 L 703.094849 281.869781 L 703.032715 282.149445 C 706.197754 285.638489 708.954346 290.778839 712.283569 294.738464 C 703.201416 299.443817 696.312012 306.035736 692.010681 315.450928 C 690.46582 319.006592 689.351624 322.739746 688.699097 326.561737 C 686.355286 340.171783 689.067566 352.419006 696.991211 363.627502 C 675.559631 349.706757 667.476196 330.48587 665.518616 305.929199 L 662.362488 310.195099 C 659.397156 303.585388 659.317322 298.445038 658.860046 291.351501 C 657.368591 294.361176 656.724854 295.564117 655.828247 298.764618 C 653.302429 293.384552 652.942871 289.527069 652.756409 283.7164 L 649.387207 288.013336 C 649.262939 286.064606 648.965515 283.86734 648.74353 281.909698"/>
        <path id="path49" fill="#fbeddf" stroke="none" d="M 703.032715 282.149445 C 706.197754 285.638489 708.954346 290.778839 712.283569 294.738464 C 703.201416 299.443817 696.312012 306.035736 692.010681 315.450928 C 683.372314 312.023956 678.760132 306.435272 675.351013 298.072174 C 688.530457 294.183594 692.694214 291.258301 703.032715 282.149445"/>
        <path id="path50" fill="#8fbb7a" stroke="none" d="M 775.805908 427.074371 L 776.192078 426.173218 C 777.8479 422.182556 780.080688 419.567993 784.501953 418.547058 C 787.488342 417.862976 790.624268 418.401672 793.211304 420.042969 C 796.940002 422.40451 798.027649 425.289856 798.813354 429.29834 C 808.792236 426.262054 817.452759 426.639343 821.50116 437.537109 C 821.461182 447.276337 815.091187 448.377197 807.100952 449.522461 C 806.510559 454.791565 805.82251 458.808899 801.16156 462.342316 C 798.038269 464.66864 794.114014 465.648499 790.263794 465.063416 C 784.155701 464.162354 781.709778 460.753174 778.682434 455.936829 C 773.777283 457.526001 768.814453 459.057495 763.891602 456.655975 C 757.850098 453.712891 758.946533 447.702454 761.179382 442.757385 C 766.785828 442.992676 774.132446 442.726318 778.975342 443.005981 C 780.844238 442.428894 781.177124 442.495483 782.144836 441.141602 C 780.542358 437.057709 764.646179 436.702576 761.663208 434.585205 C 761.285889 432.121521 763.114746 428.557007 765.27655 427.300781 C 768.783386 425.263275 772.148132 426.026764 775.805908 427.074371"/>
        <path id="path51" fill="#67925e" stroke="none" d="M 821.50116 437.537109 C 821.461182 447.276337 815.091187 448.377197 807.100952 449.522461 C 806.510559 454.791565 805.82251 458.808899 801.16156 462.342316 C 798.038269 464.66864 794.114014 465.648499 790.263794 465.063416 C 784.155701 464.162354 781.709778 460.753174 778.682434 455.936829 C 773.777283 457.526001 768.814453 459.057495 763.891602 456.655975 C 757.850098 453.712891 758.946533 447.702454 761.179382 442.757385 C 766.785828 442.992676 774.132446 442.726318 778.975342 443.005981 C 780.26709 446.206512 781.58551 448.217407 784.981323 449.575714 C 787.524902 450.59671 790.374756 450.494629 792.838379 449.296051 C 794.849243 448.341705 795.781433 447.267456 797.104309 445.549561 C 802.440002 448.994232 807.274048 446.264221 809.879761 441.097198 C 814.176758 441.541107 817.803406 439.348267 821.50116 437.537109"/>
        <path id="path52" fill="#000000" stroke="none" d="M 797.104309 445.549561 C 797.690247 440.724335 808.71228 450.499054 806.58606 435.424133 C 809.524658 435.797058 809.768799 438.584717 809.879761 441.097198 C 807.274048 446.264221 802.440002 448.994232 797.104309 445.549561"/>
        <path id="path53" fill="#fcdc9a" stroke="none" d="M 680.131836 562.424377 C 686.004639 562.171326 716.860229 561.612 720.282715 563.041382 C 722.182617 567.06311 722.38678 597.323914 720.047424 599.68988 C 717.721375 600.440125 715.026917 600.16925 712.51886 600.124878 C 707.529419 600.107178 702.952759 600.07605 697.963318 600.360168 C 695.872559 606.863342 695.628418 607.502563 688.299561 607.404907 C 685.303284 607.36499 681.973999 607.924255 679.34613 606.170837 C 677.348572 602.721741 678.822327 579.186096 678.263 574.045715 C 677.938965 571.075989 677.974426 564.701599 680.131836 562.424377"/>
        <path id="path54" fill="#000000" stroke="none" d="M 704.550842 574.014648 C 707.533875 574.054565 713.877197 575.550537 713.957092 579.079529 C 710.911987 582.963623 705.225586 572.749512 701.621094 579.492371 C 703.219177 582.790588 714.15686 582.34668 714.46759 587.500366 C 714.773865 592.676208 710.126221 593.936951 705.873718 594.469604 C 702.007263 594.212158 697.479492 592.645142 697.701477 587.944275 C 700.822083 586.288513 705.98468 594.829163 710.880859 589.235962 L 710.010803 590.225952 L 710.818787 589.067322 C 709.189636 586.927734 705.22113 586.062134 702.757507 584.912415 C 695.357605 581.454407 696.427429 575.532715 704.550842 574.014648"/>
        <path id="path55" fill="#000000" stroke="none" d="M 689.200745 574.636108 C 690.501404 574.684937 691.566772 574.529541 692.521118 575.310791 C 693.111511 579.310364 692.987244 595.024475 692.090515 599.61438 C 691.828613 600.946106 689.529236 601.754028 688.241882 602.180176 C 686.861328 602.073608 685.960266 602.171265 684.877136 601.345642 C 684.797241 599.672119 684.593018 600.400146 685.360962 599.05072 C 686.577271 598.686646 687.012329 598.646729 688.250793 598.473572 C 689.799988 596.436096 689.178589 578.529053 689.200745 574.636108"/>
        <path id="path56" fill="#000000" stroke="none" d="M 689.551453 568.039673 C 690.223389 567.524109 691.134949 567.449402 691.881897 567.848816 C 692.63208 568.248352 693.075989 569.047363 693.022705 569.895203 C 692.964111 570.740784 692.417786 571.474426 691.62439 571.772949 C 690.62561 572.150208 689.498169 571.737427 688.97876 570.800781 C 688.46051 569.865479 688.703918 568.691772 689.551453 568.039673"/>
        <linearGradient id="linearGradient3" x1="799.590147" y1="440.196093" x2="657.870167" y2="401.292569" gradientUnits="userSpaceOnUse">
            <stop offset="1e-05" stop-color="#885c53" stop-opacity="1"/>
            <stop offset="1" stop-color="#ab846b" stop-opacity="1"/>
        </linearGradient>
        <path id="path57" fill="url(#linearGradient3)" stroke="none" d="M 701.399109 419.603516 C 710.547913 416.02121 718.888855 410.401398 728.197449 406.996704 C 752.345703 398.154175 777.901123 393.595306 803.128052 389.005371 C 808.481445 388.028809 814.021423 387.140991 819.401489 386.550598 C 811.016174 389.862122 793.424377 394.913727 784.519653 397.004486 C 776.778076 400.107361 760.411438 404.173523 751.599976 406.881287 C 737.221985 411.302551 728.197449 415.612793 714.867126 420.815369 C 707.933411 424.197876 700.244995 426.439575 692.982788 429.773254 C 684.961487 430.727661 669.575867 438.935425 662.992737 444.000336 C 659.98761 446.313049 655.664001 452.017151 653.426697 452.61203 C 647.851318 461.982788 648.459412 481.256958 647.815796 492.003845 C 647.598267 495.626038 647.766968 499.918579 646.599487 503.363281 C 644.815002 492.687439 646.31543 466.794678 649.600281 456.420685 C 646.8703 455.186646 646.115662 454.951416 645.072449 452.252441 C 644.033752 443.924866 647.70929 439.63681 653.408936 434.332153 C 665.989075 422.63092 683.274658 421.601074 697.816895 413.490997 C 704.741699 409.629028 708.581482 404.040314 714.636292 399.268372 C 715.408691 398.669128 719.568054 397.270813 720.753296 396.862427 C 715.177856 406.610535 710.015259 412.691956 701.399109 419.603516"/>
        <path id="path58" fill="#000000" stroke="none" d="M 649.600281 456.420685 C 655.606262 438.997559 670.419312 429.675629 687.362976 424.49527 C 684.823853 426.182129 679.474854 428.832214 676.536194 430.252716 C 666.339783 435.184448 658.189758 442.042725 653.426697 452.61203 C 647.851318 461.982788 648.459412 481.256958 647.815796 492.003845 C 647.598267 495.626038 647.766968 499.918579 646.599487 503.363281 C 644.815002 492.687439 646.31543 466.794678 649.600281 456.420685"/>
        <path id="path59" fill="#875c4c" stroke="none" d="M 714.867126 420.815369 L 714.978088 420.646667 C 718.373901 415.359802 766.230957 402.482239 767.469482 400.231659 C 762.120422 399.414856 757.015564 403.081482 751.13385 403.707397 C 758.19635 400.688843 777.603699 395.366455 785.216614 396.12558 L 784.484192 396.964539 L 784.004761 396.44519 L 784.519653 397.004486 C 776.778076 400.107361 760.411438 404.173523 751.599976 406.881287 C 737.221985 411.302551 728.197449 415.612793 714.867126 420.815369"/>
        <path id="path60" fill="#67925e" stroke="none" d="M 880.397949 384.850464 C 880.948364 398.154175 871.466675 401.780884 859.969666 402.304626 C 859.867493 404.537476 859.849792 406.881287 859.11731 409.011993 C 853.737244 424.624023 830.037354 427.260834 820.022888 414.889282 C 818.535828 413.055969 817.528198 410.97406 816.622681 408.8078 C 805.995605 411.138306 789.642334 413.650787 786.184326 399.792206 C 796.434021 396.485107 806.89679 393.812805 817.137573 390.461365 C 814.185669 400.773193 819.965271 406.983398 830.148315 402.983826 C 829.979614 403.050415 837.952087 408.479309 842.746277 404.275604 C 846.750244 400.764343 846.546021 400.648926 848.685669 395.708282 C 843.394348 402.380127 838.156311 406.557251 830.388062 399.934235 L 831.222595 399.765564 C 836.429565 403.023743 838.906494 403.663025 844.60614 399.423737 C 846.062195 398.336182 845.391907 396.973389 847.722351 396.098907 C 847.673523 396.130005 853.240112 388.388367 853.248962 388.36618 C 853.901489 387.926666 854.500732 387.642639 855.206543 387.27417 C 858.202881 387.083313 858.762207 386.941223 861.607605 386.119995 C 864.532898 388.51709 868.181824 390.226105 872.048218 389.564697 C 876.362915 388.375 877.135254 387.691467 880.397949 384.850464"/>
        <path id="path61" fill="#aedfe0" stroke="none" d="M 641.845337 562.397705 C 646.927979 562.16687 668.603699 561.678589 672.425659 563.014771 C 673.597595 564.284302 674.2146 568.656738 674.037048 570.281433 C 673.464417 575.621582 675.599548 596.751282 672.403503 600.07605 C 668.417297 600.320251 644.748413 600.475586 641.66333 599.805298 C 640.33606 598.486938 640.020874 595.4151 640.060852 593.275513 C 640.225098 583.864807 639.319519 573.499695 640.531372 564.217712 C 640.602417 563.667236 641.499084 562.752869 641.845337 562.397705"/>
        <path id="path62" fill="#000000" stroke="none" d="M 647.540588 568.68335 C 652.689819 568.554626 660.9198 567.689026 665.323242 570.47229 C 669.034302 572.820496 668.221924 578.174011 665.589661 581.063782 C 663.125977 583.771606 661.243835 583.90918 657.714844 584.126709 L 651.038513 584.020142 C 651.06958 587.087524 652.179321 592.010376 650.124084 594.074524 C 648.450623 594.247681 649.160828 594.442993 647.851318 593.794861 C 647.149963 587.234009 647.522827 575.621582 647.540588 568.68335"/>
        <path id="path63" fill="#aedfe0" stroke="none" d="M 651.065125 571.741882 C 656.303223 571.679688 667.440674 570.743103 662.326904 579.598877 C 658.975464 581.028259 654.780579 580.655396 651.078491 580.619873 Z"/>
        <path id="path64" fill="#b3d6ba" stroke="none" d="M 564.528809 562.402161 C 567.731995 562.206848 595.113586 561.54541 595.778564 563.445313 C 597.416077 568.115173 597.903076 596.320679 595.470459 600.071655 C 590.817505 600.417908 569.448975 600.733032 564.28241 599.277039 C 563.66272 598.793213 563.166931 595.677002 563.193115 595.215393 C 563.525574 589.382507 561.567078 566.019958 564.528809 562.402161"/>
        <path id="path65" fill="#000000" stroke="none" d="M 569.843628 568.559082 C 575.371521 568.510254 588.494995 566.894409 590.453491 573.131287 C 592.064026 578.262756 588.914063 581.059326 584.638428 582.488708 C 586.753174 584.76593 591.849182 590.634277 591.958374 593.657288 L 591.179749 594.216614 C 589.696655 594.17218 589.282959 594.02124 587.887756 593.657288 C 585.765503 589.910706 583.301819 586.421692 580.705444 582.994751 C 578.508118 582.914856 575.956604 583.016968 573.730835 583.043579 C 573.76062 585.200928 573.994995 592.037048 573.638977 593.790405 L 572.740051 594.31427 C 570.874329 594.221069 571.617004 594.558411 570.322144 593.568481 C 569.702026 588.694458 569.994568 574.494019 569.843628 568.559082"/>
        <path id="path66" fill="#b3d6ba" stroke="none" d="M 573.768616 571.804016 C 578.61554 571.737427 590.338562 570.272522 585.600769 578.702209 C 582.294617 579.847534 577.401062 579.607788 573.779724 579.607788 Z"/>
        <path id="path67" fill="#e9b4c3" stroke="none" d="M 603.109619 562.495361 C 608.232666 562.428833 631.018555 561.443298 634.13031 563.369873 C 634.716248 564.825867 635.368835 568.110718 635.191223 569.606689 C 634.565369 574.853638 636.798157 597.057495 633.850647 600.098267 C 628.972168 600.337952 608.098145 600.835144 602.544495 599.272644 C 601.632324 598.500183 601.178162 593.954651 601.286072 593.058044 C 601.971008 587.353821 599.557922 566.157532 603.109619 562.495361"/>
        <path id="path68" fill="#000000" stroke="none" d="M 608.497192 568.510254 C 612.811951 568.461426 621.047668 567.866638 624.572205 570.174866 C 631.413635 574.653809 631.01416 584.779236 626.782837 591.060486 C 621.66156 595.184265 615.022583 594.105652 608.441711 593.985779 C 608.379862 585.493917 608.398356 577.002075 608.497192 568.510254"/>
        <path id="path69" fill="#e9b4c3" stroke="none" d="M 612.17804 571.737427 C 615.842468 571.701904 618.834839 571.351257 622.050903 573.304382 C 624.034973 574.493591 625.436096 576.45343 625.919434 578.715515 C 626.618164 581.889465 625.290894 586.186401 623.625854 588.929688 C 620.298767 591.269104 616.149658 590.656494 612.043579 590.576599 Z"/>
        <path id="path70" fill="#875c4c" stroke="none" d="M 692.982788 429.773254 C 700.098511 430.190552 707.582703 425.014648 713.979309 425.627258 C 724.579712 426.648254 735.632813 431.79303 745.997925 434.403198 C 754.707275 436.68927 763.163574 438.389404 771.899597 440.147247 C 738.669128 441.061707 694.571899 420.833069 666.362 448.95874 C 653.204773 462.080444 652.001831 488.377136 652.081665 505.951172 C 652.419067 524.812561 658.061035 544.561768 669.771118 559.694397 L 663.636475 559.636658 C 659.650208 553.395386 656.689392 548.077454 654.26123 541.006104 C 653.79071 539.63446 653.453308 537.809998 652.458984 537.361694 L 652.081665 537.841125 C 649.129761 530.791931 646.466309 511.220306 646.599487 503.363281 C 647.766968 499.918579 647.598267 495.626038 647.815796 492.003845 C 648.459412 481.256958 647.851318 461.982788 653.426697 452.61203 C 655.664001 452.017151 659.98761 446.313049 662.992737 444.000336 C 669.575867 438.935425 684.961487 430.727661 692.982788 429.773254"/>
        <path id="path71" fill="#b3d6ba" stroke="none" d="M 419.401428 214.870392 C 424.472534 214.824219 442.985443 214.09845 446.117645 215.830963 C 447.199402 218.307922 446.995239 223.712006 446.78302 226.588928 C 446.474518 230.774445 447.881714 240.360535 445.84552 243.71109 C 441.379425 244.143463 422.477661 244.533661 419.20343 243.109619 C 418.020447 240.545197 417.894379 217.441467 419.401428 214.870392"/>
        <path id="path72" fill="#000000" stroke="none" d="M 425.739441 224.665497 C 430.950409 224.820465 435.204315 224.769867 440.411743 224.588715 C 439.417816 229.452972 440.031738 233.027283 439.638885 237.863098 L 425.283997 237.802307 C 425.327942 233.662506 424.943085 229.572357 424.966156 225.425018 Z"/>
        <path id="path73" fill="#b3d6ba" stroke="none" d="M 427.323273 227.057678 L 437.84198 227.227692 L 437.817993 235.631683 C 434.337372 235.593903 430.795044 235.638275 427.308655 235.647614 Z"/>
        <path id="path74" fill="#000000" stroke="none" d="M 432.794373 218.604492 C 433.976471 219.431885 436.694061 221.810364 435.761841 223.379944 C 434.011108 222.914764 434.526031 223.020844 433.062469 221.562622 C 431.682404 222.493927 431.302429 222.909454 429.630676 223.08432 L 429.289795 222.557404 C 430.032837 220.646423 431.204742 219.94458 432.794373 218.604492"/>
        <path id="path75" fill="#e9b4c3" stroke="none" d="M 453.627106 154.423401 C 460.855621 153.764709 474.068329 154.296051 481.782471 154.445618 C 482.20459 162.275116 481.163635 174.157074 482.04126 181.453918 L 480.988312 183.054596 C 473.204956 183.22995 461.125946 183.565582 453.584045 182.901031 C 453.182312 175.206879 453.403839 162.242279 453.627106 154.423401"/>
        <path id="path76" fill="#000000" stroke="none" d="M 461.360321 156.552399 C 463.926514 157.608398 470.357758 162.853577 471.642853 165.500977 L 471.114166 165.708313 C 467.910522 164.306915 465.96048 162.35553 463.244232 160.139557 C 463.526123 165.028259 463.526123 169.869446 463.567841 174.763855 L 471.808868 174.734161 C 474.859802 174.259155 472.1409 169.149414 474.571289 166.853119 L 475.309937 167.408447 C 476.001068 169.290558 475.500793 174.551239 475.343201 176.699738 C 470.739502 176.776093 465.892548 176.702393 461.269775 176.699738 C 461.701233 170.818481 461.33902 162.645813 461.360321 156.552399"/>
        <path id="path77" fill="#aedfe0" stroke="none" d="M 461.533447 276.525177 C 469.604034 276.245514 479.729858 276.028015 487.647278 276.756012 C 490.533966 277.017914 489.685669 302.377991 488.698883 305.023682 C 484.276733 305.454254 465.844635 305.170166 461.207184 304.775085 C 460.845825 300.797729 460.707794 279.610321 461.533447 276.525177"/>
        <path id="path78" fill="#000000" stroke="none" d="M 474.778137 279.361725 C 476.912415 280.826599 478.124725 284.044891 479.328552 286.464142 L 481.706543 286.641724 C 483.470612 286.761566 484.822266 286.477478 485.343414 288.408417 C 484.478271 290.255066 482.279633 291.915253 480.684692 293.34906 C 481.299042 295.248962 482.968109 298.529419 481.285278 299.87439 C 479.401367 299.661316 477.224915 298.014465 475.420441 296.980133 C 472.708221 297.410767 470.760803 299.878815 468.476959 299.350616 C 467.958923 297.694855 468.992767 294.991455 469.453094 293.100433 C 467.988647 291.666656 464.865814 289.416107 465.486389 287.405212 C 467.095978 286.42865 469.14502 286.58844 471.115479 286.495178 C 472.329132 284.004913 473.441986 281.789856 474.778137 279.361725"/>
        <path id="path79" fill="#aedfe0" stroke="none" d="M 474.83139 282.939575 C 476.335785 284.426636 475.924713 286.109009 478.08609 288.20871 C 479.986847 288.92337 480.786774 288.719147 482.881531 288.617065 C 479.502136 291.10733 478.90509 291.49353 479.125244 295.728363 L 479.154999 296.212189 L 478.693329 296.385315 L 475.79599 294.596405 C 473.97467 294.791748 472.855591 295.470917 471.265961 296.332062 C 471.067993 295.075836 471.711212 293.650879 472.122253 292.376892 C 470.751068 291.134003 469.091766 289.797852 467.661499 288.585999 C 469.618652 288.630371 470.944153 288.870117 472.662476 287.991119 C 473.997772 286.743805 474.308044 284.759583 474.83139 282.939575"/>
        <path id="path80" fill="#aea1db" stroke="none" d="M 490.246307 214.885895 C 494.616089 214.722137 513.722961 214.326996 516.728149 215.810974 C 518.164612 219.379974 517.241333 226.233337 517.284363 230.284851 C 517.31543 233.235962 518.085571 241.811615 516.424072 243.790527 C 512.162598 244.166534 493.621307 244.311279 490.171753 243.15448 C 489.052216 241.737488 488.950592 216.906525 490.246307 214.885895"/>
        <path id="path81" fill="#000000" stroke="none" d="M 495.161621 218.96933 C 501.086243 218.826426 507.011434 218.791372 512.937195 218.864166 C 512.962524 222.308838 513.645264 230.619568 512.662903 233.372192 C 511.466583 233.998108 510.816284 234.083771 509.524506 234.384277 C 510.254272 236.808838 513.713196 237.400146 513.378479 240.125275 L 512.791199 240.374725 C 511.25174 239.637848 509.520966 237.75354 508.2323 236.510162 C 501.143646 228.795105 500.100922 237.979889 494.235657 240.02713 L 493.6315 239.648529 C 494.122009 237.088135 497.843689 235.747528 497.664337 233.619446 C 496.308685 233.504944 496.013947 233.531555 494.693298 233.112518 C 493.722961 230.962708 494.639618 222.871246 494.456268 220.098663 Z"/>
        <path id="path82" fill="#aea1db" stroke="none" d="M 503.504761 221.217712 C 505.911713 221.167694 508.319336 221.157745 510.726593 221.187988 L 510.884644 231.697357 L 503.293915 231.838531 C 501.135651 231.858948 498.545044 231.72934 496.354401 231.671143 L 496.513763 221.317596 Z"/>
        <path id="path83" fill="#fcdc9a" stroke="none" d="M 531.33252 276.56955 C 535.702698 276.227753 555.03949 275.846039 558.41449 277.297577 C 560.166565 279.97876 559.445679 300.80661 559.036865 304.681885 C 555.18512 305.432037 536.146179 305.032532 531.254395 304.939331 C 530.94812 300.88205 530.964539 280.604675 531.33252 276.56955"/>
        <path id="path84" fill="#000000" stroke="none" d="M 550.788269 286.810394 C 553.304321 284.084839 554.221436 282.983978 557.407288 280.955353 C 555.482239 284.35788 553.164001 287.5224 550.500183 290.383759 C 551.839417 292.403534 556.292664 297.583893 553.80365 299.377228 C 550.778076 299.719025 548.871948 298.081055 546.295105 298.032227 C 543.138062 297.978912 539.577087 300.02536 536.551453 298.897827 L 535.784851 298.205322 C 536.024536 296.367615 538.810913 292.692078 540.018311 290.934204 C 537.344727 287.258728 535.601074 285.167938 533.634583 280.995239 C 536.986023 283.272522 542.015442 289.296234 544.889282 292.523407 C 547.159363 290.592438 548.724548 288.958862 550.788269 286.810394"/>
        <path id="path85" fill="#fbeddf" stroke="none" d="M 536.551453 298.897827 C 538.585876 296.225525 540.70282 292.798615 543.870483 292.27478 C 542.787842 294.951538 538.941406 297.286469 536.551453 298.897827"/>
        <path id="path86" fill="#fbeddf" stroke="none" d="M 547.381287 291.347046 L 548.652222 291.826447 C 549.860046 293.375671 553.061951 296.847015 553.000671 298.351837 C 550.752747 296.53186 548.582947 295.035889 547.048828 292.603271 Z"/>
        <path id="path87" fill="#fbeddf" stroke="none" d="M 544.902161 294.969299 C 546.604492 295.253418 546.978271 295.670654 548.156372 296.727142 L 548.160828 297.23764 L 547.055969 297.042297 C 545.310974 297.104431 544.390747 297.193268 542.684387 296.91803 C 543.03418 295.8349 543.660522 295.777191 544.902161 294.969299"/>
        <path id="path88" fill="#000000" stroke="none" d="M 552.392517 281.430267 L 552.876831 281.523529 L 552.90564 282.0784 C 550.913025 284.537628 547.531799 287.485138 545.134277 289.71347 L 541.516907 286.308777 C 539.258789 284.510956 537.986145 283.117096 536.00592 281.017456 C 543.166443 283.454468 545.123169 283.698639 552.392517 281.430267"/>
        <path id="path89" fill="#b3d6ba" stroke="none" d="M 508.951416 64.956421 C 513.071289 64.94043 530.364807 64.454346 533.052612 65.672913 C 534.219666 69.455811 534.168579 88.279907 533.723816 92.703796 C 532.823547 93.651123 532.813354 93.373169 531.238831 93.667542 C 527.890015 93.676392 508.557251 94.260132 506.805603 92.974121 C 505.492126 88.826355 505.489471 70.454163 506.066956 65.846008 C 507.394226 64.787292 506.955231 65.115784 508.951416 64.956421"/>
        <path id="path90" fill="#000000" stroke="none" d="M 511.49057 73.464722 C 513.927124 76.144531 517.178284 79.186096 519.797729 81.769653 C 522.427856 78.977478 525.346924 76.143616 528.431641 73.859314 L 529.003784 74.015991 C 529.548035 77.663147 522.907227 80.494324 521.809021 83.360596 L 523.060852 84.637695 C 524.338379 85.641724 525.035339 86.009338 525.742004 87.47998 L 525.494751 88.108582 C 522.620056 88.064575 521.743774 86.504333 519.961548 84.524963 C 518.347961 86.294312 517.267944 87.998474 514.921936 88.179565 L 514.577881 87.484436 C 515.225525 85.558716 516.798279 84.522217 518.379944 83.118225 C 515.969482 80.677246 512.689941 78.376892 510.661804 75.925659 C 510.352844 75.552307 511.19046 74.126526 511.49057 73.464722"/>
        <path id="path91" fill="#000000" stroke="none" d="M 510.807831 69.128235 C 514.965881 68.989685 525.095703 68.966187 528.924316 69.318176 C 529.659851 70.45636 529.344727 70.60199 529.237732 72.290161 C 524.188354 70.047119 514.903687 72.683838 511.385345 71.076477 Z"/>
        <path id="path92" fill="#aea1db" stroke="none" d="M 395.313538 276.56955 C 401.656036 276.254395 416.009552 276.241089 421.912109 276.88916 C 422.239258 284.88382 422.119873 295.417664 421.893036 303.527679 C 421.87616 304.135895 421.373688 304.730682 420.984802 305.161255 C 417.843781 305.405426 394.348511 306.519623 394.565582 303.13266 C 394.908722 297.788055 393.399902 280.174103 395.313538 276.56955"/>
        <path id="path93" fill="#fcdc9a" stroke="none" d="M 551.140747 131.122131 C 555.052856 130.901062 572.984192 130.24588 575.672485 131.677032 C 577.076538 135.002289 576.590027 153.747803 576.067566 158.268097 C 576.000061 158.855377 575.405273 158.924194 574.706116 159.245087 C 566.639526 159.17627 556.954041 159.33963 549.020203 158.810486 C 548.558105 153.783783 548.404053 137.253754 549.189331 131.738739 C 549.251953 131.298798 550.432251 131.25708 551.140747 131.122131"/>
        <path id="path94" fill="#000000" stroke="none" d="M 553.735352 134.368835 C 558.549866 134.016388 566.82019 134.20816 571.746643 134.318207 C 572.035583 138.022125 571.923279 143.469238 571.960999 147.303253 C 569.629211 147.513672 567.019958 147.621979 564.661926 147.767578 C 568.162537 151.147034 571.879333 154.318207 574.350098 158.47049 C 571.133606 156.729919 570.642212 156.222565 568.050232 153.782471 C 566.38739 152.227905 564.702332 150.505127 563.074158 148.898193 C 559.722229 151.613098 558.137512 154.220093 553.910645 156.245667 L 553.714478 155.716522 C 556.003235 152.275848 558.137512 150.552155 561.028625 147.644135 L 553.439697 147.715179 C 553.44989 143.269928 553.389526 138.798096 553.735352 134.368835"/>
        <path id="path95" fill="#fcdc9a" stroke="none" d="M 555.609924 136.4552 L 569.757935 136.496918 L 569.906677 145.557404 L 555.625 145.544922 Z"/>
        <path id="path96" fill="#b9755a" stroke="none" d="M 582.831299 204.065796 C 585.711731 196.048981 577.65271 197.793518 575.083008 196.238953 C 575.327148 195.405701 576.151001 194.457123 576.930481 194.189911 C 585.255005 191.334747 589.662048 203.967285 595.857117 207.073242 C 606.800171 212.55899 616.222473 215.762207 628.257507 216.716125 C 629.917664 216.847961 640.304993 222.479248 643.501099 223.644501 C 642.395752 227.37735 641.135071 230.11792 639.901062 233.666534 C 636.46521 232.462158 628.093262 229.844055 625.382385 227.961914 C 613.721497 219.866943 600.838135 211.131805 587.385254 222.927155 C 585.674927 220.851959 584.679688 219.520691 582.559631 217.802795 C 579.999207 217.512878 577.941284 217.405487 575.531311 216.422699 L 575.206421 215.799927 L 575.689392 215.366638 C 580.440002 211.040405 577.043274 209.368652 578.824646 207.469177 C 580.598022 208.26651 582.386963 210.912994 584.261963 212.488434 L 584.009827 212.344574 C 584.883423 210.706116 583.388367 206.704376 582.831299 204.321075 Z"/>
        <path id="path97" fill="#e9b4c3" stroke="none" d="M 550.702148 184.196777 C 551.169718 184.163025 551.637451 184.134776 552.105347 184.11203 C 556.100891 183.949127 575.370667 183.45636 577.248352 185.15741 C 577.95636 187.04483 577.783264 188.77298 577.791687 190.815338 C 575.256104 191.709381 572.711243 192.179016 571.523804 194.497101 C 571.906433 195.61969 572.200256 196.343262 572.660583 197.416595 C 572.376526 202.831299 566.916992 202.757172 575.973938 206.65686 C 576.098206 207.671204 576.751587 212.236694 575.365295 212.392975 C 569.989258 212.998444 555.533997 213.756195 550.784241 212.2052 C 549.509399 209.341125 549.64209 187.348938 550.702148 184.196777"/>
        <path id="path98" fill="#000000" stroke="none" d="M 561.262085 189.966187 C 571.914001 188.721924 571.862488 195.6073 565.646545 202.09848 L 565.279419 202.474426 C 564.693054 204.112823 565.17334 205.967499 565.423279 207.744446 C 564.058228 207.805695 564.110168 207.866913 562.847717 207.399933 L 562.53302 206.49176 C 562.943604 204.919037 563.19574 203.593079 563.49408 201.993256 C 557.789917 198.564056 555.341797 195.051971 561.262085 189.966187"/>
        <path id="path99" fill="#e9b4c3" stroke="none" d="M 562.410034 192.3992 C 564.271301 191.524109 566.489563 192.323425 567.364868 194.18454 C 568.241333 196.045227 567.443604 198.264069 565.583069 199.140717 C 564.376343 199.724213 562.94928 199.614532 561.845886 198.853546 C 560.742554 198.092468 560.132996 196.797455 560.249756 195.462158 C 560.366455 194.126892 561.191406 192.957275 562.410034 192.3992"/>
        <path id="path100" fill="#67925e" stroke="none" d="M 657.301941 380.615631 C 668.057678 386.603851 667.707031 377.863464 670.534729 377.051086 C 678.422791 374.773865 675.630676 378.373962 683.585388 371.475708 C 682.351379 379.204041 679.408264 380.482483 672.616577 383.287933 C 675.697266 386.506226 680.145142 390.22168 679.630249 394.922546 C 678.64032 403.995941 668.253052 402.495544 662.611023 400.005249 C 660.933105 404.692841 660.222839 406.370789 655.268921 408.909912 C 653.147034 409.997498 650.754395 410.50354 648.463867 409.762207 C 646.976807 408.377258 647.496216 409.18512 646.874756 407.218689 C 647.39856 403.321198 655.25116 384.371094 657.301941 380.615631"/>
        <path id="path101" fill="#b9755a" stroke="none" d="M 670.57019 90.434204 C 671.466858 90.454529 672.949524 90.429749 673.477783 90.95575 C 677.756958 95.194946 681.556763 110.656494 682.506714 116.096069 C 674.756165 116.217285 671.688843 116.389954 663.929443 118.015503 C 660.77771 118.791443 657.368591 119.932678 654.234619 120.910706 C 656.662781 110.280151 661.692139 97.335022 670.57019 90.434204"/>
        <linearGradient id="linearGradient4" x1="668.705802" y1="349.609122" x2="690.377071" y2="340.455874" gradientUnits="userSpaceOnUse">
            <stop offset="1e-05" stop-color="#9f5e4c" stop-opacity="1"/>
            <stop offset="1" stop-color="#b57153" stop-opacity="1"/>
        </linearGradient>
        <path id="path102" fill="url(#linearGradient4)" stroke="none" d="M 661.177246 313.524353 C 662.988403 315.113556 665.820496 328.910004 667.587158 333.189209 C 670.77417 340.877075 675.174438 348.00351 680.620117 354.296753 C 689.560303 364.781708 696.458496 365.571808 706.535095 373.766266 L 700.129578 374.436554 C 694.79834 374.560791 690.896484 375.0802 685.636169 375.759369 C 687.766907 365.607361 684.379944 360.360413 674.876038 357.479492 C 676.558411 349.080902 672.731995 346.444092 665.216736 344.490936 C 666.761536 336.775909 663.605347 330.929779 658.225281 325.718384 C 658.797913 321.692139 659.237366 317.111115 661.177246 313.524353"/>
        <path id="path103" fill="#67925e" stroke="none" d="M 615.565491 365.469727 L 616.173157 366.366394 C 619.52771 368.257416 623.871765 365.767151 626.457947 363.565369 C 627.747009 364.235657 628.257507 364.151337 629.274048 364.555298 C 638.267456 368.133118 634.019348 375.39978 626.519653 379.288361 C 617.870667 383.767303 604.735168 381.889618 607.350159 369.123016 C 607.936157 366.259857 612.893616 365.620636 615.565491 365.469727"/>
        <path id="path104" fill="#875c4c" stroke="none" d="M 613.503113 177.025513 C 620.460388 177.1521 627.733704 180.720123 619.148621 186.814453 C 617.924805 187.535339 616.29834 188.337952 615.013672 189.02066 C 611.310242 185.342072 609.737915 181.365601 613.503113 177.025513"/>
        <path id="path105" fill="#b9755a" stroke="none" d="M 582.831299 204.321075 C 580.111511 204.027222 576.184753 204.15152 574.855713 201.523132 L 575.416809 200.803619 C 579.384827 199.941071 580.526123 201.009521 582.831299 204.065796 Z"/>
        <path id="path106" fill="#faf9fa" stroke="none" d="M 611.827393 190.677765 C 615.604492 191.949982 615.746582 193.914276 616.279236 197.615448 C 615.295593 197.897766 615.813171 197.88092 614.726501 197.583496 C 613.256287 195.476318 612.657898 193.135162 611.827393 190.677765"/>
        <path id="path107" fill="#000000" fill-opacity="0.973" stroke="none" d="M 482.04126 181.453918 L 482.356873 181.057037 C 482.332001 173.243958 482.022156 162.940552 482.721741 155.356934 C 482.694214 162.838013 482.842926 170.31781 482.891754 177.798828 C 482.908203 180.266449 483.243317 181.539581 481.448212 183.448822 L 480.988312 183.054596 Z"/>
        <path id="path108" fill="#b9755a" stroke="none" d="M 607.722595 244.408905 C 612.438171 244.878998 613.203491 247.093628 615.39502 250.912964 C 612.000916 248.836395 610.302124 247.35199 607.722595 244.408905"/>
        <path id="path109" fill="#faf9fa" stroke="none" d="M 616.73114 200.097778 L 622.13562 203.671631 C 620.783997 203.760406 620.829712 203.867859 619.660461 204.6185 C 618.724731 203.359589 617.600769 201.463196 616.73114 200.097778"/>
    </g>
</svg>
