<svg xmlns="http://www.w3.org/2000/svg" width="1024" height="1024" preserveAspectRatio="none" style="display:block" viewBox="0 0 2048 2048"><defs><linearGradient id="Gradient1" x1="1092.81" x2="1141.63" y1="1174.75" y2="1154.13" gradientUnits="userSpaceOnUse"><stop class="stop0" offset="0" stop-color="#9F5E4C"/><stop class="stop1" offset="1" stop-color="#B57153"/></linearGradient><linearGradient id="Gradient2" x1="1387.66" x2="1068.4" y1="1378.82" y2="1291.18" gradientUnits="userSpaceOnUse"><stop class="stop0" offset="0" stop-color="#885C53"/><stop class="stop1" offset="1" stop-color="#AB846B"/></linearGradient><linearGradient id="Gradient3" x1="1492.92" x2="1498.73" y1="1258.17" y2="1268.27" gradientUnits="userSpaceOnUse"><stop class="stop0" offset="0" stop-color="#3F6536"/><stop class="stop1" offset="1" stop-color="#567D4C"/></linearGradient><linearGradient id="Gradient4" x1="1458.35" x2="1456.19" y1="1293.28" y2="1167.09" gradientUnits="userSpaceOnUse"><stop class="stop0" offset="0" stop-color="#79A266"/><stop class="stop1" offset="1" stop-color="#9BC686"/></linearGradient></defs><path d="M1419.8 454.413c13.17-1.558 71.65.039 77.64 9.714l-.78 1.443c-5.9 2.679-19.41 5.443-26.26 7.048 12.93.429 25.77 2.268 38.3 5.482a196.64 196.64 0 0 1 121.46 91.574c27.41 46.436 38.45 98.653 25.38 152.284-4.51 18.464-16.37 43.058-34 54.332-2.06 1.316-3.29.557-4.97-.206-2.06-2.937-1.7-5.13-1.81-8.734l-.03-1.535c-31.24 24.439-64.52 25.257-100.16 9.902 25.43 78.37 49.31 82.434 44.16 175.724 1.31-4.676 4.69-20.531 9.68-21.543 3.97 5.753 2.54 35.501 1.96 44.428-4.69 71.414-33.23 137.184-86.91 185.044 3.68 3.85 6.32 7.42 9.55 11.62 12.35-13.8 38.81-18.59 55.11-9.38a37.05 37.05 0 0 1 17.44 22.64c4 15.09-.78 26.92-8.32 39.38 9.38 7.09 16.49 16.64 18.33 28.48 1.7 10.38-.91 21.02-7.23 29.43-10.36 13.66-23.61 15.66-39.04 17.72-4.53 55.21-88.11 61.44-106.8 16.27-2.98.68-5.97 1.3-8.98 1.87-24.6 4.51-56.71 1.11-61.94-28.68-21.86 7.16-45.15 13.16-67.36 20.18a762 762 0 0 0-82.71 31.14c10.57 1.65 28.17 7.29 38.93 10.63 18.97 5.89 35.79 10.74 55.13 15.25.09-.95.18-1.89.3-2.83 2.38-19.64 16.08-23.96 33.58-21.46 8.7-16.25 25.6-23.03 43.58-16.05 10.06 3.9 14.22 10.91 18.29 20.37 2.25-.66 4.54-1.19 6.86-1.58 19.34-3.2 41.78 7.22 44.69 28.11 1.01 7.05-.9 14.21-5.31 19.81-7.54 9.61-17.04 11.15-28.09 12.79-3.74 39.71-54.3 48.51-70.98 16.88-29.34 7.53-58.81-3-44.72-37.87-35.98-5-76.32-13.84-112.18-13.7-29.32.95-68.26 9.18-89.15 31.47-27.92 29.79-31.9 82.19-31.31 121.31.68 44.56 15.31 98.94 48.55 130.56 1.22-1.06 5.98-5.21 7.42-5.3 27.2-1.62 56.46-.28 83.93-.33 4.68-.01 9.9 1.73 13.32 3.53 4.76 4.98 4.03 27.07 3.38 34.09-1.43 15.55 3.19 43.32-4.67 56.67-5.44 4.63-40.48 2.93-50.05 2.86-5.04 19.38-16.27 15.8-33.33 15.89-4.14.03-8.41-.11-12.56-.17-8.8-6.63-8.66-8.23-9.44-18.76l-1.57-.3c-9.27 6.1-24.53 2.18-35.75 2.79-10.6.58-21.94.06-32.63.62-8.03.43-9.7-2.54-14.74-7.83-2 1.89-7.72 7.31-10.58 7.28-22.542-.21-45.164.47-67.692.01-2.985-.06-6.909-3.92-9.278-5.81-1.067.89-6.383 5.31-7.065 5.26-13.528-.96-65.53 3.58-74.847-2.19-9.045-12.4-3.347-44.96-4.764-60.96-.793-8.96-.352-23.53 5.235-30.83 6.388-4.04 57.623-2.11 68.692-1.96 40.489-50.74 61.845-112.7 52.085-177.62-14.818-98.56-105.968-131.09-194.842-129.21-23.052.49-47.527 6.09-70.26 10 3.947 11.37 6.18 20.52-.31 31.95a28.25 28.25 0 0 1-17.646 13.37c-10.078 2.62-20.282.56-29.036-4.86-13.034 12.42-29.402 17.21-46.56 7.82-9.747-5.33-12.707-13.1-15.608-23.23-13.069-.45-23.7-1.81-34.809-9.45-18.133-12.48-21.083-32.19-9.099-50.26-7.675-3.93-11.748-5.71-17.324-12.57-23.086 14.13-49.526 22.06-75.71 7.39-9.62-5.39-14.849-15.93-16.978-26.55-15.107.17-28.051-.55-40.941-10.06-16.609-12.17-16.641-35.48-3.423-50.23 13.489-15.06 31.24-18.42 50.271-19.59-.088-56.55 67.048-56.19 105.414-40.28 13.907-49.73 77.419-66.64 104.207-17.25a94 94 0 0 1 5.092-3.41c18.992-11.59 40.162-7.51 51.394 12.17 32.033-9.47 68.402-1.84 67.705 38.61 57.329 35.46 84.518 101.82 147.773 130.66 24.183 11.03 49.866 32.83 66.544 53.25 1-5.48 1.19-8.78 1.49-14.23.97-22.1-.85-44.23-5.434-65.87-14.88 7.52-25.337 6.43-36.502-6.25-23.43 16.48-38.306 10.86-46.87-15.07-2.951-1.49-14.377-2.74-18.689-3.54-16.892-3.11-24.573-16.61-19.686-33.66-20.437-14.02-29.633-36.12-15.133-58.5a40.55 40.55 0 0 1 25.703-17.63c14.119-3.06 29.908.1 42.026 7.88 10.017-24.2 26.5-31.48 51.159-21.75 12.821-34.96 49.916-50.39 82.866-32.79 2.44-15.21 3.81-18.55 9.69-33.18-5.03-11.21-9.66-15.5-15.95-25.54-1.08-1.72-2.88-9.59-4.21-13.1-11.57-3.5-10.31-17.35-11.09-27.6-23.87-14.81-37.66-27.978-56.013-48.739-3.802-4.3-16.7-11.421-21.91-15.613-7.583-6.102-13.465-11.764-20.37-18.625-11.361-.099-16.332.399-25.995-5.354-8.217-15.241-13.571-12.226-8.178-30.822-4.006-7.08-5.362-8.475-11.028-13.907-15.551-2.645-18.206-2.312-28.559-13.835-55.028-5.083-46.021 14.264-46.995-50.796-14.001-10.936-44.674-34.861-56.194-46.117q-.293-85.846-1.922-171.679c-3.935-.264-10.569-1.285-13.331 1.893-34.836 40.073-64.83 85.519-99.209 125.848 6.712-.174 18.992-1.625 23.766 3.162 2.943 8.777 2.768 57.771-.088 66.632-4.276 4.598-9.016 4.301-15.121 4.85 15.679 20.684 35.337 41.073 51.608 61.507 23.962.504 50.107-8.593 45.695 22.68-1.744 12.364 1.304 28.207-.068 41.007-1.513 14.105-9.99 8.902-13.738 11.734 4.855 7.767 15.45 17.433 22.05 24.165 12.745 13 25.812 25.398 38.119 38.879 8.667-.04 36.649-1.05 43.131 1.78 7.662 3.35 5.193 62.12 1.424 69.89-5.104 3.55-52.435.88-62.141 1.37-.918.05-4.395-1.55-4.656-2.7-2.519-11.13-2.675-60.14-.194-67.72 5.096-4.09 10.285-2.98 16.758-2.67-15.904-16.292-49.806-48.422-62.307-64.412-5.836-.1-12.59.341-18.509.591-5.649 8.359-13.377 17.559-19.517 25.902-9.291 12.624-18.409 26.259-28.42 38.199 5.569-.14 22.762-1.76 23.138 5.55.717 13.93 3.737 55.68-2.129 66.91-4.742 2.26-19.354 1.71-25.218 1.16-9.828-.93-32.876 2.52-40.658-2.36-3.62-5.87-2.712-21.75-2.266-29.05.748-12.25-4.71-31.21 4.196-40.32 3.026-3.1 10.28-2.21 14.393-2-18.335-18.314-46.031-45.106-62.772-63.967-6.796-.679-12.291-.306-19.096-.02-12.398 20.737-28.183 43.884-41.392 64.567 7.963-.55 16.187-1.65 22.74 2.93 3.771 6.39 2.561 57.9.729 65.9-5.614 5.73-63.388 4.85-65.761 1.68-5.191-6.95-4.501-61.38-.051-68.56 6.843-3.34 28.752-1.73 38.03-1.63 11.715-20.87 29.783-44.667 40.243-64.918-7.921.19-18.333 1.576-24.516-2.751-2.804-4.192-3.096-16.616-2.783-21.756.766-12.587-3.374-39.093 3.687-48.699 6.804-2.782 32.661-1.014 41.607-.721 12.64-17.772 39.262-44.255 53.901-62.306-4.827.091-18.028.825-18.744-5.129-1.734-14.432-4.001-55.511 1.826-67.363 4.847-3.78 31.254-2.291 39.024-2.207 6.963-10.736 17.742-22.688 25.498-33.268 22.442-30.616 51.966-63.582 73.075-94.446-5.747.419-22.104 1.999-22.231-6.36-.189-12.452-3.085-55.2 1.913-64.432 8.546-3.851 50.824-1.334 62.624-1.997.975-.055 3.517 1.134 3.811 2.44 2.888 12.821 4.208 56.256.793 67.418-4.41 4.462-9.321 3.574-15.605 3.618 6.935 9.437 14.761 16.905 22.583 25.569 14.966 16.577 30.972 32.507 45.925 49.033 5.504.169 39.736-1.627 41.352 1.844 4.159 8.933 5.219 62.144.26 68.27-7.85 3.753-21.13 2.248-30.247 1.969l-.027 47.42c4.814.335 10.319.59 15.111.27 19.136-1.277 21.764.901 21.756 19.246 25.317 6.76 17.831 11.878 33.342 25.766 13.03 11.667 47.393 21.716 65.001 24.092-19.509-18.744-40.398-42.547-33.52-74.47 1.491-6.921 8.867-18.275 11.6-26.271 16.985-49.68 37.27-77.772 83.87-102.548 3.25-30.788 14.33-50.905 33.46-74.28-1.12-12.485-10.52-34.022-9.39-40.672l1.46.248c7.57 8.826 9.64 18.096 13.37 29.074.38-8.816-1.23-43.728 2.41-48.717 5.36 5.674 5.18 36.791 5.52 46.072 2.52-9.535 8.7-33.862 14.94-40.478l1.16.553c1.15 9.089-5.07 29.518-7.51 39.155 3.51-5.312 12.33-20.662 18.77-20.723.36 4.912-12.55 26.737-16.03 33.607 10.25 20.585 16.09 39.329 21.31 61.535 15.8 1.969 25.33 3.763 40.65 8.054 5.51-8.693 18.13-20.36 26.5-26.419.91-28.13 22-66.441 40.11-87.162 48-54.925 108.68-81.952 179.97-88.747M768.209 772.402c16.149 13.652 35.661 29.499 52.628 42.239.014-25.863 13.082-15.77 30.177-17.642.969-1.529.833-.848.93-1.866l.04-45.593c-8.173.215-25.7 2.061-31.181-2.862-3.103-5.878-2.106-50.666-1.667-60.166.454-9.808 14.192-9.24 21.357-8.231a2398 2398 0 0 1-44.054-46.656c-6.139-6.59-21.928-23.999-28.779-28.917-1.424 28.852-.21 62.205.272 91.172.429 25.827-.458 52.928.277 78.522M575.63 866.836c11.928-.138 22.191-1.357 21.884 14.726-.122 6.397-.588 13.137-.557 19.505l54.543.209 32.931-.223c.018-5.28.227-11.972-.076-17.113-1.071-18.171 6.783-17.573 21.429-17.193-17.732-20.98-35.082-40.914-52.679-62.221q-11.449-.45-22.907-.419c-4.736 7.118-13.436 15.762-19.232 22.357-11.792 13.417-24.084 26.471-35.336 40.372m70.066 138.724 17.912-.62c4.872-6.929 9.696-13.194 14.889-19.883 11.009-15.54 22.27-29.065 33.068-43.884-33.145.67-27.891-4.695-27.009-34.99l-87.303-.419c.257 9.743 1.632 23.842-1.787 32.535-2.66 2.703-5.601 2.807-9.426 3.628l-.344 1.363c14.892 19.678 43.753 43.039 60 62.27m42.651 288.95c11.924 13.91 16.363 21.06 10.951 39.63 14.748-3.92 29.976-7.76 44.474-12.39 6.389-1.73 12.775-3.53 19.228-4.99-26.157-14.51-44.392-29.2-66.93-48.32.281 12.45.962 16.72-7.723 26.07m-16.046-498.572-2.372 3.606 1.036.888c4.044-4.301 3.289-7.169 3.252-12.728-.11-16.853-.445-33.703-.383-50.556-1.576 17.084-.878 40.295-.822 57.896zm103.676 491.652c12.269 5.86 34.491 11.9 47.965 15.64 10.633 2.42 21.709 4.78 32.265 7.36-8.547-13.27-31.283-48.81-40.581-59.78-5.455 26.59-13.92 31.68-39.649 36.78m464.293-414.259c21.38 64.87 47.36 72.144 91.06 115.444l1.8.955c1.53-19.595-52.54-87.72-66.57-106.514-3.88-5.193-15.46-22.492-19.51-26.735-2.74 6.089-4.56 10.56-6.78 16.85m101.67 343.419c-18.12 12.39-26.27 16.85-47.09 24.27-1.64 10.87-4.64 19.22-16.35 22.62-19.66 5.69-39.51 7.41-59.23 13.91-5.82 10.02-12.02 20.63-18.42 30.3l14.91-6.49c44.41-18.07 91.85-27.71 138.73-36.88-22.29-24.56-6.16-40.78-10.11-47zm-259.04 80.79c-6.89 17.87-27.22 22.57-43.64 15.21-4.3 24.58-4.2 40.49-1.13 65.25 6.49-9.2 10.85-13.38 19.43-20.62 10.69-8.05 21.84-15.41 34.38-20.29 33.55-13.05 65.08-16.96 89.24-46.7l-1.45-.27c-9.15-1.64-16.57.37-27.01-1.29-27.51-4.39-26.87-32.91-5.02-45.54 3.04-1.76 6.12-3.44 9.25-5.05-1.27.02-2.21-.09-3.39.22-21.93 1.94-22.16 1.57-39.93 14.5 5.99 7.5 12.17 15.58 10.44 25.66-3.78 22.03-24.41 22.98-41.17 18.92"/><path fill="#D7926E" d="M1208.03 622.714c21.54-95.619 125.09-157.24 218.03-161.012 15.24-.618 30.74.567 45.87 2.264-13.36 6.406-21.08 9.64-32.63 18.861 47.52-9.699 97.08 7.073 135.38 35.325 40.31 29.737 69.14 80.414 76.21 129.834 5.07 30.58 2.75 61.399-9.31 90.113-3.38-4.212-9.35-25.85-14.75-35.036-9.38-17.184-25.54-30.695-45.07-34.212-3.16-.568-16.11-1.95-17.89-2.71-39.21 5.691-58.57 41.857-59.93 78.59 1.46 45.666 17.2 70.154 35.12 110.591 14.08 31.769 16.05 73.129 9.24 106.728-1.21 6.124-4.31 14.012-4.46 19.882l1.05.714c6.56-3.293 15.85-22.221 19.18-29.109-3.73 136.563-78.51 235.393-216.48 256.643 5.81-7.77 10.39-16.16 15.19-22.56 5.46-11.99 10.09-23.59 12.73-36.7 8.41-41.7 5.61-82.93-13.31-121.4-3.83-7.8-15.66-23.18-17.67-28.34-6.69-17.183-9.09-30.137-18.53-47.231-20.85-37.723-50.64-68.091-73.88-103.986.04-13.465-1.08-17.274-7.55-29.026 6.89-24.886 3.9-52.386-4.59-76.49 14.05-13.202 19.59-21.26 26.24-39.248 6.56-23.824 3.32-63.154-3.09-87.102 5.35-4.799 33.34-22.934 34.32-25.17-5.56-8.465-32.11 13.198-37.09 17.031 5.88-6.692 37.73-38.503 36.72-44.223-8.69.987-33.41 28.679-40.48 36.234 4.26-7.655 22.22-41.406 16.28-49.321-4.01 2.327-18.44 37.94-23.62 47.195 1.7-11.822 3.35-25.712-.33-37.296l-1.77-.114c-1.8 2.229-5.34 35.335-6.87 41.969-12.61 4.798-21.03 10.998-32.26 18.312"/><path fill="#B9755A" d="M1266.22 705.199c5.14 5.612 10.68 28.324 13.78 36.9 3.23 8.845 6.8 17.566 10.69 26.144 20.26 44.738 88.1 126.047 138.79 129.871a46.22 46.22 0 0 0 34.47-11.881c8.19-7.462 14.19-18.057 19.12-27.852l-.41-1.509c10.13-22.354 13.57-48.717 15.63-73.004.79-9.199 1.71-23.409 3.89-32.001l1.76-7.136c1.46 45.666 17.2 70.154 35.12 110.591 14.08 31.769 16.05 73.129 9.24 106.728-1.21 6.124-4.31 14.012-4.46 19.882l1.05.714c6.56-3.293 15.85-22.221 19.18-29.109-3.73 136.563-78.51 235.393-216.48 256.643 5.81-7.77 10.39-16.16 15.19-22.56 5.46-11.99 10.09-23.59 12.73-36.7 8.41-41.7 5.61-82.93-13.31-121.4-3.83-7.8-15.66-23.18-17.67-28.34-6.69-17.183-9.09-30.137-18.53-47.231-20.85-37.723-50.64-68.091-73.88-103.986.04-13.465-1.08-17.274-7.55-29.026 6.89-24.886 3.9-52.386-4.59-76.49 14.05-13.202 19.59-21.26 26.24-39.248"/><path fill="#DECCBC" d="M1503.94 744.731c1.46 45.666 17.2 70.154 35.12 110.591 14.08 31.769 16.05 73.129 9.24 106.728-1.21 6.124-4.31 14.012-4.46 19.882l1.05.714c6.56-3.293 15.85-22.221 19.18-29.109-3.73 136.563-78.51 235.393-216.48 256.643 5.81-7.77 10.39-16.16 15.19-22.56 63.54-19.74 109.02-80.54 132.04-141.06 25.36-66.688 19.09-123.646-11.75-188.179l-.41-1.509c10.13-22.354 13.57-48.717 15.63-73.004.79-9.199 1.71-23.409 3.89-32.001z"/><path fill="#FBEDDF" d="M1482.66 856.872c-30.27-62.096-50.89-139.057-17.43-203.545 2.89-5.56 12.45-22.412 18.2-24.214l.49 2.164c19.74-27.974 59.6-39.827 92.58-38.309l-13.17 8.08c46.78-.756 58.96 10.316 87.56 46.938 5.07 30.58 2.75 61.399-9.31 90.113-3.38-4.212-9.35-25.85-14.75-35.036-9.38-17.184-25.54-30.695-45.07-34.212-3.16-.568-16.11-1.95-17.89-2.71-39.21 5.691-58.57 41.857-59.93 78.59l-1.76 7.136c-2.18 8.592-3.1 22.802-3.89 32.001-2.06 24.287-5.5 50.65-15.63 73.004"/><path fill="#D7926E" d="M1166.16 904.44c8.63 5.486 27.81-5.879 28.31-5.473 15.31 12.433 29.46-20.402 38.53-20.295 2.39 3.271 6.71 15.959 8.64 20.75 23.07 47.54 47.88 61.452 85.64 95.821 30.91 31.877 45.46 70.947 44.72 115.227-.55 33.02-9.27 74.42-34.1 98.01-12.81 12.17-31.66 22.78-49.35 24.93-3.3 3.22-.28 18.63-7.28 21.21-21.11 7.78-44.13 9.74-65.93 16.14-9.7 2.86-32.08 14.98-39.93 10.5-2.05-8.18 9.43-12.79 10.71-19.39-2.57-.8-4.42-.2-6.88.83-10.93 4.58-8 25.19-22.03 20.94-2.89-.87-3.56-1.31-5.65-3.54-2.66-11.69 14.29-18.87 15.03-24.94-8.92-1-16.26 6.92-19.98 14.25-1.49 2.94-1.12 7.44-4.04 7.82-6.98-6.34-2.4-18.11 3.51-23.48 11.34-10.3 29.45-13.7 43.96-17.45 12.38 5.25 32.81 12.05 45.55 5.24l-.26-1.24c-7.17-1.46-16.96-1.48-23.34-3.23-50.62-13.89-75.75-67.68-65.39-117.14.47-2.18.99-4.35 1.57-6.5 13.9-40.43 43.03-63.04 86.29-65.58 17.89-1.05 30.95 3.04 47.96 7.36-29.19-19.45-60.3-16.99-91.44-4.07-7.5-8.92-13.71-20.5-20.84-28.36l.14-.63-5.85-6.23c7.64-6.03 10.68-9.26 16.56-16.77 2.29-4.125 5.28-9.654 5.34-14.415l-1.31-.066-2.74 3.11c-9.47 17.821-32.44 31.571-52.33 32.841-4.83.31-13.95-1.36-17.22-.4 1.37 2.57 2.82 3.95 4.75 6.1-6.02 2.85-29.61-.88-36.78-2.96-11.51-3.35-22.39-11.47-32.91-17.32l-.95.59c.36 2.24.68 4.48.98 6.72-14.8-2.76-48.161-35.27-56.79-48.107-6.005-8.935-15.285-24.071-23.291-30.838-10.195-8.616-39.779-2.286-48.061-11.105l.231-1.812c7.948-6.708 13.319-4.767 22.024-7.893-9.87-8.664-21.075 2.236-29.535-.995l-.343-1.894c4.039-10.955 22.695-8.484 27.289-13.284-6.264-5.386-19.469-.58-26.41 1.284 1.436-1.667 2.886-3.289 4.486-4.804a33.83 33.83 0 0 1 19.097-9.046c24.178-3.237 38.477 14.353 58.152 24.142 24.711 12.296 54.701 19.423 82.081 12.192 9.92-2.62 30.95-9.587 38.3-16.808 3.81 1.121 16.39 1.882 21.04 2.263 10.46.05 19.76-.453 30.07-2.205"/><path fill="#B9755A" d="M1327.28 995.243c30.91 31.877 45.46 70.947 44.72 115.227-.55 33.02-9.27 74.42-34.1 98.01-12.81 12.17-31.66 22.78-49.35 24.93-3.3 3.22-.28 18.63-7.28 21.21-21.11 7.78-44.13 9.74-65.93 16.14-9.7 2.86-32.08 14.98-39.93 10.5-2.05-8.18 9.43-12.79 10.71-19.39-2.57-.8-4.42-.2-6.88.83-10.93 4.58-8 25.19-22.03 20.94-2.89-.87-3.56-1.31-5.65-3.54-2.66-11.69 14.29-18.87 15.03-24.94-8.92-1-16.26 6.92-19.98 14.25-1.49 2.94-1.12 7.44-4.04 7.82-6.98-6.34-2.4-18.11 3.51-23.48 11.34-10.3 29.45-13.7 43.96-17.45 12.38 5.25 32.81 12.05 45.55 5.24l-.26-1.24c-7.17-1.46-16.96-1.48-23.34-3.23-50.62-13.89-75.75-67.68-65.39-117.14.47-2.18.99-4.35 1.57-6.5 3.33 6.97 3.05 16.22 4.41 23.91 3.39 18.62 14.62 37.08 28.21 49.89 36.89 34.79 107.47 32.9 141.04-5.76 32.38-37.3 36.22-104.82 20-150.15-4.27-11.93-11.2-22.6-14.64-34.49z"/><path fill="#B9755A" d="M941.933 913.595c5.342 7.951 25.022 7.37 33.956 15.039 7.613 6.536 14.755 15.443 21.273 22.891 21.408 24.465 48.928 44.68 81.488 50.565 9.23 1.67 28.12 5.2 37.03 3.18 3.93-3.74 4.4-5.685 10.05-4.74 20.85 3.48 35.74-10.091 56.55-12.751-9.47 17.821-32.44 31.571-52.33 32.841-4.83.31-13.95-1.36-17.22-.4 1.37 2.57 2.82 3.95 4.75 6.1-6.02 2.85-29.61-.88-36.78-2.96-11.51-3.35-22.39-11.47-32.91-17.32l-.95.59c.36 2.24.68 4.48.98 6.72-14.8-2.76-48.161-35.27-56.79-48.107-6.005-8.935-15.285-24.071-23.291-30.838-10.195-8.616-39.779-2.286-48.061-11.105l.231-1.812c7.948-6.708 13.319-4.767 22.024-7.893"/><path fill="#B9755A" d="M1166.16 904.44c8.63 5.486 27.81-5.879 28.31-5.473 15.31 12.433 29.46-20.402 38.53-20.295 2.39 3.271 6.71 15.959 8.64 20.75-32.68 22.251-61.89 27.1-100.1 14.651-3.71-1.21-9.29-2.656-11.14-6.231 1.85-1.299 3.05-.951 5.69-1.197 10.46.05 19.76-.453 30.07-2.205"/><path fill="#B9755A" d="M1164.43 1015.92c7.64-6.03 10.68-9.26 16.56-16.77-.18 7.57-4.21 18.7-10.71 23z"/><path fill="#D7926E" d="M1162.37 708.918c.46-4.946.04-10.022.84-14.936 2.17-13.27 10.11-25.572 18.71-35.607 7.71-8.991 51.43-48.267 62.87-47.658 2.64.14 5.56 1.876 7.35 3.751 10.81 11.329 10.8 68.735 7.63 83.914-1.64 7.862-5.89 16.172-10.25 22.88-4 6.174-28.38 31.103-28.72 32.23-.23.736-.1 1.536-.15 2.304 4.75-.665 8.41-3.589 12.57-6.227 7.84 22.345 7.53 40.683 5.38 64.017-2.04-1.545-12.09-8.687-12.89-9.629-4.16-.656-3.18-1.12-6.48.313l-1.01 2.244c12.95 6.588 21.13 16.521 25.58 30.249q.915 2.864 1.71 5.762c-2.83-2.375-4.97-4.807-8.48-5.392-1.93 2.965 5.02 27.65-4.18 31.014-2.11-4.291-2.53-8.721-5.55-10.919l-1.36.694c-4.5 16.214-2.09 23.362-19.53 33.902l-1.16-.808c-.09-2.617.27-7.315-1.07-8.876-4.83 2.55-7.01 7.463-11.07 10.236-7.56 5.17-18.44 8.92-26.95 12.064-10.31 1.752-19.61 2.255-30.07 2.205-4.65-.381-17.23-1.142-21.04-2.263-2.29-.762-4.58-1.591-6.99-.782-24.16 8.098-45.75 15.287-71.65 11.134 2.23-7.894 3.71-13.98 5.33-22.016 5.02 1.768 21.84 8.149 26.24 5.264-1.13-2.069-1.83-2.656-4.15-3.622-27.68-11.523-61.18-23.247-81.507-46.238 2.634-1.691 2.531-1.933 5.576-2.133 8.082 4.178 10.581 4.961 20.041 6.054 8.09-1.356 20.57-6.811 23.24-15.188-9.58-4.756-4.43 4.178-19.74 7.328l-1.14.225c-14.537.187-24.042-3.595-30.23-17.425l-1.766-5.681c.591-8.762 16.012-11.214 17.96-19.235 3.188-13.133-6.904-17.942-17.266-21.5-2.621-.901-4.118-1.509-5.114-3.91l1.892-4.129c16.697-51.151 41.404-89.901 94.674-107.995 33.03-11.223 64.49-10.342 98.03-2.101-10.36 18.596-13.54 25.915-6.11 46.486"/><path fill="#FBEDDF" d="M975.776 772.528c38.554-.921 58.894 22.371 77.204 52.908 15.1 5.088 22.98 7.339 39.6 7.617 39.29.655 68.19-32.006 107.38-25.093 1.35.238 6.89 3.641 9.29 4.716 3.16-6.019 2.48-4.775 8.97-6.162 12.95 6.588 21.13 16.521 25.58 30.249q.915 2.864 1.71 5.762c-2.83-2.375-4.97-4.807-8.48-5.392-1.93 2.965 5.02 27.65-4.18 31.014-2.11-4.291-2.53-8.721-5.55-10.919l-1.36.694c-4.5 16.214-2.09 23.362-19.53 33.902l-1.16-.808c-.09-2.617.27-7.315-1.07-8.876-4.83 2.55-7.01 7.463-11.07 10.236-7.56 5.17-18.44 8.92-26.95 12.064-10.31 1.752-19.61 2.255-30.07 2.205-4.65-.381-17.23-1.142-21.04-2.263-2.29-.762-4.58-1.591-6.99-.782-24.16 8.098-45.75 15.287-71.65 11.134 2.23-7.894 3.71-13.98 5.33-22.016 5.02 1.768 21.84 8.149 26.24 5.264-1.13-2.069-1.83-2.656-4.15-3.622-27.68-11.523-61.18-23.247-81.507-46.238 2.634-1.691 2.531-1.933 5.576-2.133 8.082 4.178 10.581 4.961 20.041 6.054 8.09-1.356 20.57-6.811 23.24-15.188-9.58-4.756-4.43 4.178-19.74 7.328l-1.14.225c-14.537.187-24.042-3.595-30.23-17.425l-1.766-5.681c.591-8.762 16.012-11.214 17.96-19.235 3.188-13.133-6.904-17.942-17.266-21.5-2.621-.901-4.118-1.509-5.114-3.91z"/><path fill="#DECCBC" d="M1218.22 806.514c12.95 6.588 21.13 16.521 25.58 30.249q.915 2.864 1.71 5.762c-2.83-2.375-4.97-4.807-8.48-5.392-1.93 2.965 5.02 27.65-4.18 31.014-2.11-4.291-2.53-8.721-5.55-10.919l-1.36.694c-4.5 16.214-2.09 23.362-19.53 33.902l-1.16-.808c-.09-2.617.27-7.315-1.07-8.876-4.83 2.55-7.01 7.463-11.07 10.236-7.56 5.17-18.44 8.92-26.95 12.064-10.31 1.752-19.61 2.255-30.07 2.205-4.65-.381-17.23-1.142-21.04-2.263-2.29-.762-4.58-1.591-6.99-.782-24.16 8.098-45.75 15.287-71.65 11.134 2.23-7.894 3.71-13.98 5.33-22.016 5.02 1.768 21.84 8.149 26.24 5.264-1.13-2.069-1.83-2.656-4.15-3.622-27.68-11.523-61.18-23.247-81.507-46.238 2.634-1.691 2.531-1.933 5.576-2.133 8.082 4.178 10.581 4.961 20.041 6.054 24.94 19.289 90.32 38.701 122.01 37.598 27.66-.228 51.49-5.747 70.93-26.646 13.28-14.273 25.54-33.617 8.37-50.319 3.16-6.019 2.48-4.775 8.97-6.162"/><path fill="#DECCBC" d="M980.07 826.983c6.101.038 26.03 12.98 30.23 17.425-14.537.187-24.042-3.595-30.23-17.425"/><path fill="#B9755A" d="M1220.65 755.796c4.75-.665 8.41-3.589 12.57-6.227 7.84 22.345 7.53 40.683 5.38 64.017-2.04-1.545-12.09-8.687-12.89-9.629 4.05-9.245 2.14-40.083-5.06-48.161"/><path fill="#FBEDDF" d="M1099.89 722.368c64.36.782 62.85 85.412 1.29 86.903-19.07-1.447-36.36-13.158-50.8-25.12 2.13-29.557 17.27-58.263 49.51-61.783"/><path d="M1094.85 735.149c10.53-.586 19.61.505 28.09 7.342 4.2 3.385 14.27 15.002 16.26 19.855-11.35 7.515-2.55 26.611-33.09 36.069-20.19 1.425-27.83-7.275-44.41-14.82l-1.16-.516c6.73-23.265 6.88-40.234 34.31-47.93"/><path fill="#FAF9FA" d="M1090.02 746.578a10.017 10.017 0 0 1 13.46 4.104c2.6 4.818.85 10.837-3.93 13.505-3.15 1.758-7 1.684-10.08-.192a9.99 9.99 0 0 1-4.8-8.871 10 10 0 0 1 5.35-8.546"/><path d="M1239.82 628.146c2.43 1.384-1.38 1.564.27 2.828 4.2 3.215 6.07 2.259 9.58 6.479.57 3.869-1.16 6.196-2.93 9.814 9.33 32.719 6.21 59.955-22.11 82.957-5.96 4.846-12.99 7.663-19.02 12.887l-.64 1.164-1.6.38c-3.1-5.407-5.11-13.793-7.57-19.711-16.23-39.091 14.85-72.823 44.02-96.798"/><path fill="#875C4C" d="m1243.09 638.942.75.917c-1.97 17.345 1.66 27.353 1.47 43.746-.16 14.253-25.11 51.381-40.09 49.511-2.44-2.017-2.5-4.434-3.22-7.646 4.63-8.411 16.25-24.14 7.96-31.878-3.84-1.373-6.11-.443-10.32.344 8.26-21.892 22-44.004 43.45-54.994"/><path fill="#B9755A" d="M1204.71 700.879c2.59 3.607-4.52 13.706-6.59 17.221-2.63-.697-1.46-7.502-.85-9.467 1.48-4.757 3.36-5.656 7.44-7.754"/><path fill="#8FBB7A" d="M562.352 1173c1.131-4.14 2.985-11.34 4.582-15.11a54.73 54.73 0 0 1 30.475-29.63c29.86-11.58 51.634 2.11 61.988 30.53 18.322-18 45.846-22.76 54.902 6.33 19.842-7.71 44.661-11.21 60.288 8.28 3.459 4.31 6.002 10.9 5.203 16.52-7.52-1.32-21.923-14.37-28.811-11.24l-.045 2.38c3.37 7.69 24.3 25.69 31.69 32.97 8.677 8.72 19.64 19.33 26.45 29.4-.36 10.25-1.044 21.17-9.835 28.36-32.417 26.53-71.36-14.17-98.427-30.55-8.204-4.96-21.201-13.87-27.557-18.96-7.168-4.4-35.749-23.47-43.369-18.14.179 6.44 6.977 11.43 11.878 16.26 9.314 8.89 18.423 16.74 29.546 26.29 11.851 10.17 28.683 22.11 14.315 40.25-4.701 5.94-21.08-.89-27.498.66-6.855 1.04-11.255 3-17.448 5.71-7.059-8.71-13.47-15.4-25.695-16.49a27.9 27.9 0 0 0-21.295 6.97c-6.95 6.29-9.022 12.69-10.88 21.51-9.603.72-12.248 1.48-21.092 6.19-11.648-4.47-14.686-5.99-21.426-17.01-8.498 7.1-15.291 12.16-26.082 15.56-17.704 5.58-41.021 4.75-54.256-9.76-6.142-6.79-6.833-12.93-7.975-21.5-15.661.35-32.964.64-45.348-11.21a24.56 24.56 0 0 1-7.705-18.05c.034-3.9.834-6.76 2.146-10.37 11.567-23.9 34.51-26.46 57.982-27.29-1.615-40.09 24.009-51.16 59.793-49.66 15.595.65 29.108 4.96 43.506 10.8"/><path fill="#67925E" d="M641.764 1220.4c9.314 8.89 18.423 16.74 29.546 26.29 11.851 10.17 28.683 22.11 14.315 40.25-4.701 5.94-21.08-.89-27.498.66-6.855 1.04-11.255 3-17.448 5.71-7.059-8.71-13.47-15.4-25.695-16.49a27.9 27.9 0 0 0-21.295 6.97c-6.95 6.29-9.022 12.69-10.88 21.51-9.603.72-12.248 1.48-21.092 6.19-11.648-4.47-14.686-5.99-21.426-17.01-8.498 7.1-15.291 12.16-26.082 15.56-17.704 5.58-41.021 4.75-54.256-9.76-6.142-6.79-6.833-12.93-7.975-21.5-15.661.35-32.964.64-45.348-11.21a24.56 24.56 0 0 1-7.705-18.05c.034-3.9.834-6.76 2.146-10.37 16.892 16.7 38.996 13.71 59.419 6.54 3.492 9.55 6.661 15.8 16.493 20.24 13.182 5.96 28.239 1.23 37.43-9.08 5.434 4.58 8.643 6.36 15.927 6.84 6.59.43 19.493-4.5 19.393-12.09-3.007-.54-3.366.72-6.862 3.07-3.69 3.18-12.134 5.05-16.862 2.98-7.864-3.44-9.896-8.01-12.91-15.41 7.181-2.8 13.993 5.36 24.847 6.36 7.467-.83 13.315-5.97 20.428-9.78 8.883-4.76 20.652 2.76 25.165-5.41 14.892 22.04 52.48 16.03 52.92-.81 1.747-4.08 3.515-8.14 5.305-12.2"/><path fill="#67925E" d="M673.255 1222.28c8.505-6.2 10.248-11.68 15.132-15.53l1.829 1.9c1.299 3.71 4.181 5.13 7.608 7.18 11.588.77 15.412 1.03 25.552-5.49a29.47 29.47 0 0 0 13.43 17.6c16.535 9.96 39.137 6.01 45.818-13.91 8.677 8.72 19.64 19.33 26.45 29.4-.36 10.25-1.044 21.17-9.835 28.36-32.417 26.53-71.36-14.17-98.427-30.55-8.204-4.96-21.201-13.87-27.557-18.96"/><path d="M583.539 1233.41c-3.944-13.33-7.397-7.58-18.93-9.11-13.096-1.74-23.35-14.21-19.118-27.65a20.85 20.85 0 0 1 10.241-12.19c3.82-1.99 7.071-2.39 11.278-2.86l.946 1c-5.027 5.07-14.307 8.34-16.688 14.08-9.506 22.89 22.217 22.6 34.795 20.51.741 8.59.928 14.6 8.225 20.29 13.082 10.21 30.87 4.06 42.171-4.88-.44 16.84-38.028 22.85-52.92.81"/><path d="M514.413 1256.85c-4.958-8.01-3.132-7.93-13.286-6.98-10.76 1.02-17.125-.06-22.168-10.62a20.63 20.63 0 0 1-.803-16.14c1.55-4.27 3.732-7.22 7.839-9.18l1.506.57c-2.607 6.12-7.168 14.28-4.592 20.76 4.708 11.83 19.167 11.4 29.061 7.44l1.129-.46c3.014 7.4 5.046 11.97 12.91 15.41 4.728 2.07 13.172.2 16.862-2.98 3.496-2.35 3.855-3.61 6.862-3.07.1 7.59-12.803 12.52-19.393 12.09-7.284-.48-10.493-2.26-15.927-6.84"/><path d="M719.192 1206.9c1.951-2.95 3.667-6.49 6.805-7.6l1.238.71c.291 4.07-1.465 7.06-3.859 10.33-10.14 6.52-13.964 6.26-25.552 5.49-3.427-2.05-6.309-3.47-7.608-7.18 10.16 4.34 19.42 3.51 28.976-1.75"/><path fill="#B9755A" d="M767.338 1190.64c53.756 28.31 74.977 71.67 117.995 110.54 29.255 26.44 60.331 33.43 88.893 59.41 10.846 9.86 18.73 19.44 27.574 30.98 3.26 4.25 9.84 15.4 13.03 17.01.29-.48 1-1.51 1.13-1.98-1.82-5.85-6.45-13.66-9.51-19.27 3.92-22.52 2.31-44.36.34-66.88-2.75-17.5-6.14-33.52-11.356-50.49-1.245-4.06-5.031-15.03-5.183-18.47l1.862-1.18c11.557 4.2 26.597 78.21 32.387 93.27.03-13.24-2.01-20.3-3.02-32.47 12.42-24.8 21.3-42.49 37.58-65.15-17.57 44.24-37.1 81.31-27.47 131.05.91 4.72 3.84 26.57 6.49 29.34l1.49-.37c2.35 6.08 4.05 6.61 10.2 9.39-7.4 23.37-10.78 81.7-6.76 105.75-.3 17.7 5.7 61.79 12.35 77.67 3.93 20.04 9.67 31.37 20.57 49.01l-13.62-.17c-22.03-36.11-22.16-62.49-26.51-103.29-6.5 30.87 5.54 74.35 19.54 102.48l-.31.93c-5.4.77-17.3.18-23.28.04-2.44 1.63-4.34 2.73-6.49 4.72-1.41 1.5-.55.9-2.65 1.69-3.03-2.13-4.79-3.64-7.6-6.09-8.9-.56-21.772-.16-30.97-.16 5.862-23.05 13.677-46.14 17.25-69.61 1.31-8.6 7-50.87.82-56.14-.91 3.61-1.25 12.96-1.2 16.81.44 38.78-13.006 71.89-21.152 108.92-7.985-.08-15.968-.3-23.945-.68 15.522-24.47 28.925-52.37 32.073-81.47-5.537 10.46-10.238 27.19-15.028 38.72-7.013 16.87-13.509 27.22-23.201 42.27-9.055 1.12-8.167 4.38-14.204 6.33-.559-.44-4.778-3.76-3.984-4.78 59.463-77.05 80.041-205.03-3.849-272.91-40.592-32.85-105.896-41.7-156.722-39.14-18.183.91-35.938 4.72-54.165 6.91-7.994 3.07-47.465 4.29-54.399.22 17.179-.99 46.214-3.38 62.458-9.17 34.743-12.39 50.728-13.56 87.097-13.39a822 822 0 0 0-18.963-4.6c-7.932-.35-17.463-.8-24.688-4.26-26.932-12.91-69.008-47.79-90.892-68.11-11.615-10.18-24.683-21.2-35.65-31.89 34.288 17.8 64.821 42.17 97.803 63 51.998 32.85 93.74 35.32 150.685 49.2-4.205-3.63-5.531-4.97-10.656-7.35-2.479-.78-9.753-2.97-11.236-4.52-16.698-17.39-33.685-46.23-47.918-66.45-8.521-9.98-16.444-19.23-25.65-28.59-8.69-8.84-19.179-17.65-27.386-26.63"/><path fill="#875C4C" d="M716.733 1343.18c15.77-12.97 82.776-16.43 104.395-13.76 17.622 2.18 53.508 7.69 69.761 14.01 56.446 21.97 100.744 84.16 106.997 144.1.649 6.1 1.105 32.19 4.224 34.67-.91 3.61-1.25 12.96-1.2 16.81.44 38.78-13.006 71.89-21.152 108.92-7.985-.08-15.968-.3-23.945-.68 15.522-24.47 28.925-52.37 32.073-81.47-5.537 10.46-10.238 27.19-15.028 38.72-7.013 16.87-13.509 27.22-23.201 42.27-9.055 1.12-8.167 4.38-14.204 6.33-.559-.44-4.778-3.76-3.984-4.78 59.463-77.05 80.041-205.03-3.849-272.91-40.592-32.85-105.896-41.7-156.722-39.14-18.183.91-35.938 4.72-54.165 6.91"/><path fill="#875C4C" d="M677.346 1243.87c22.799 6.16 21.674 11.28 38.798 25.47 11.239 9.31 31.039 19.44 43.63 27.55 9.648 6.21 24.692 11.72 33.152 19.35-7.932-.35-17.463-.8-24.688-4.26-26.932-12.91-69.008-47.79-90.892-68.11"/><path fill="#875C4C" d="m1006.79 1320.45 1.77 1.72 1.98-.81c5.04 7.16 7.2 73.85 5.42 85.24-1.82-5.85-6.45-13.66-9.51-19.27 3.92-22.52 2.31-44.36.34-66.88"/><path fill="#875C4C" d="M820.374 1245.86c10.771 4.85 16.863 26.39 25.72 31.58-4.629-8.79-13.943-20.51-16.648-27.39l.55-.43c5.703 7.13 13.976 20.6 19.669 28.19 4.624 6.17 28.774 35.19 29.863 39.02-2.479-.78-9.753-2.97-11.236-4.52-16.698-17.39-33.685-46.23-47.918-66.45"/><path fill="#533324" d="M1025.26 1652.51c1.26-18.79-.41-38.42 1.35-59.32 2.68 16.88 4.61 36.29 7.12 53.73 6.72.17 15.06.61 21.61-.1l-.31.93c-5.4.77-17.3.18-23.28.04-2.44 1.63-4.34 2.73-6.49 4.72"/><path d="M909.574 1338.03c38.855 7.01 88.644 82.42 89.414 120.27-2.027-4.3-3.815-8.59-5.503-13.03-13.916-36.56-33.646-73.12-66.88-95.48-5.693-3.83-11.897-7.26-17.031-11.76"/><path d="M1017.16 1431.73c.64.51 1.45 1.07 1.75 1.8 9.59 23.7 8.63 65.96 2.97 89.04l-.45.79c-.9-8.85 1.12-26.96 1.08-37.03-.09-19.47-2.18-35.59-5.35-54.6"/><path fill="#8FBB7A" d="M984.064 1159.46c1.024-12.29 5.757-21.32 15.168-29.48a55.66 55.66 0 0 1 40.728-13.07c21.93 1.81 41.17 17.38 38.96 41.05-.39 4.24-1.84 9.79-1 13.86 5.62-1.41 10.87-3.66 16.37-.02 10.22 6.77 7.17 18.17 2.1 26.21-.45.72-.91 1.43-1.37 2.14 19.55-1.54 28.88 3.1 31.31 23.86-17.92 15.54-11.63 7.43-29.4 12.56-6.37 1.83-5.58 21.52-29.81 8.03 2.45-6.1 5.17-11.21 4.68-17.71l-1.42-1.19c-6.31 1.54-12.79 11.31-16.92 16.65a284 284 0 0 0-18.73 30.15c-4.46 8.36-9.89 19.83-15.17 27.36-7.39-18.95-10-34.31-19.656-54.06 13.956-5.47 16.956-8.67 21.556-22.48-2.29-10.46-12.04-26.18-23.824-17.13-5.826 4.96-15.612 10.57-23.169 6.31l-1.369-2.02c-14.351-13.81-29.915 6.07-24.553 23.81 4.891 7.07 7.955 11.25 16.045 14.72 7.691 3.3 8.193-1.75 14.016-.28 7.774 10.83 13.716 28.19 15.324 41.3.692 5.64-7.854 9.06-13.398 7.16-11.269-3.87-13.18-5.92-18.997-15.37-9.094 10.07-25.261 20.08-37.431 6.6-4.948-5.47-3.698-13.01-2.832-19.84-22.664 2.54-50.314-2.18-38.499-31.76-16.405-9.97-22.983-14.57-23.401-35.37 8.018-40.9 44.843-36.8 72.81-18.46 5.254-30.18 25.358-38.69 51.882-23.53"/><path fill="#67925E" d="M859.372 1201.45c8.767 23.57 38.613 28.9 59.467 17.22 5.541 8.35 18.744 21.6 29.706 15.62 4.891 7.07 7.955 11.25 16.045 14.72 7.691 3.3 8.193-1.75 14.016-.28 7.774 10.83 13.716 28.19 15.324 41.3.692 5.64-7.854 9.06-13.398 7.16-11.269-3.87-13.18-5.92-18.997-15.37-9.094 10.07-25.261 20.08-37.431 6.6-4.948-5.47-3.698-13.01-2.832-19.84-22.664 2.54-50.314-2.18-38.499-31.76-16.405-9.97-22.983-14.57-23.401-35.37"/><path fill="#67925E" d="M1021.46 1223.32c7.16-2.36 10.66-4.5 17.05-8.52.3 12.32 2.62 21.39 14.95 27.55a284 284 0 0 0-18.73 30.15c-4.46 8.36-9.89 19.83-15.17 27.36-7.39-18.95-10-34.31-19.656-54.06 13.956-5.47 16.956-8.67 21.556-22.48"/><path fill="url(#Gradient4)" d="M1490.14 1182.18c3.43-1.41 6.32-4.72 9-7 9.93-8.45 27.95-14.83 40.97-9.86 29.94 11.44 21.77 41.91 7.37 60.55 12.09 7.54 19.06 13.61 22.22 28.27-7.35 6.4-9.09 7.94-18.81 10.62-8.71 1.49-16.93-2.36-23.52-7.76-6.41 1.85-7.67 2.17-14.42 2.6-1.59.83-2.94 1.47-4.41 2.46-.02.05-12.56 17.49-12.45 17.42-5.25 1.97-3.74 5.04-7.02 7.49-12.84 9.55-18.42 8.11-30.15.77l-1.88.38c-5.78 3.08-18.25 6.97-22.32.78-10.7-16.29 5.94-29.18 15.43-36.84-2.56-9.64-3.73-14.18 1.09-23.4 5.58-10.69 15.32-14.51 25.66-7.65 2.25 1.49 5.17 3.78 7.67 3.39-1.1-18.41-34.28-16.88-42.54 10.02-.2 6.78.01 7.89 1.86 14.5-26.97 4.54-53.97 8.92-80.99 13.14-12.79-9.84-14.26-15.64-13.97-31.27 1.68-4.61 3.67-8.57 5.78-12.98 10.26-2.93 23.52-4.88 34.8-7.99 26.84-7.43 43.82-17.01 67.5-30.43 6.39-4.5 14.74-10.04 20.64-14.89 6.29 5.52 10.4 9.08 12.49 17.68"/><path fill="#67925E" d="M1407.78 1224.26c16.2-.79 20.88.42 34.25 10.16-.2 6.78.01 7.89 1.86 14.5-26.97 4.54-53.97 8.92-80.99 13.14-12.79-9.84-14.26-15.64-13.97-31.27 1.9 4.29 8.75 9.1 13.15 10.33 19.7 5.52 34.18-2.28 45.7-16.86"/><path d="M1502.94 1259.82c10.44-5.16 13.76-13.7 9.64-24.83-2.48-6.71-11.43-7.51-14.27-11.66 13.4-7.71 31.09 18.11 14.64 36.27-1.59.83-2.94 1.47-4.41 2.46-2.17-.6-3.55-1.33-5.6-2.24"/><path fill="#8FBB7A" d="M1457.01 1179.39c6.39-4.5 14.74-10.04 20.64-14.89 6.29 5.52 10.4 9.08 12.49 17.68-.66-.43-3.11-2.76-3.12-2.77-8.1-2.86-15.56.29-23.2-.36-3.72-.32-2.94-.34-6.81.34"/><path fill="url(#Gradient3)" d="M1496.09 1279.48c.74-1.83 2.81-5.63 3.79-7.55-2.36-1.49-2.23 1.57-7.26 2.11-3.18-2.8-4.06-5.51-6.19-8.89-1.7-2.69-1.36 2.1-3.67-2.33l1.3-1.52c3.28-1.28 14.97-1.58 18.88-1.48 2.05.91 3.43 1.64 5.6 2.24-.02.05-12.56 17.49-12.45 17.42"/><path fill="#8FBB7A" d="M1550.89 1264.76c-1.85-.38-1.03.03-2.45-1.25 8.09-.75 9.35-2.08 15.95-6.97-1.22-5.03-8.7-20.09-11.43-24.73-4.38-2.61-6.48-2.64-5.8-7.7l.32 1.76c12.09 7.54 19.06 13.61 22.22 28.27-7.35 6.4-9.09 7.94-18.81 10.62"/><path fill="#8FBB7A" d="M588.291 1312.45c1.689-9.89 2.948-18.72 11.982-25.12a21.45 21.45 0 0 1 16.588-3.56c8.57 1.65 14.399 7.59 18.857 14.65.751 1.19 1.481 2.4 2.191 3.62 7.105-3.5 13.454-7.05 21.451-7.59 26.868-1.84 39.671 14.62 33.023 39.59-12.648 1.81-50.396 1.51-56.992 5.02l-.583 1.82c4.169 5 15.87 7.84 22.321 9.4 18.461 3.07 27.442 2.9 45.771 1.91 8.355 16.68 4.985 34.63-15.89 38.9-10.262 2.1-17.828-2.46-26.007-7.99-11.048 13.26-25.256 21.01-42.805 10.58-9.22-5.48-10.904-14-12.667-23.94-25.549.13-51.958-6.04-49.361-37.78 6.507-17.15 13.931-20.38 32.121-19.51"/><path fill="#67925E" d="M605.531 1369.74c-25.549.13-51.958-6.04-49.361-37.78 8.188 11.26 18.171 15.59 31.632 17.9 5.485.94 20.916 1.39 24.4-3.61l2.843-2.43c8.37 3.28 2.812 16.86 28.827 10.86 7.093.21 8.843 1.25 13.257-4.4 18.461 3.07 27.442 2.9 45.771 1.91 8.355 16.68 4.985 34.63-15.89 38.9-10.262 2.1-17.828-2.46-26.007-7.99-11.048 13.26-25.256 21.01-42.805 10.58-9.22-5.48-10.904-14-12.667-23.94"/><path d="m612.202 1346.25 2.843-2.43c8.37 3.28 2.812 16.86 28.827 10.86-3.668 14.08-26.363 7.54-31.67-8.43"/><path fill="#DECCBC" d="M1563.87 666.141c1.78.76 14.73 2.142 17.89 2.71 19.53 3.517 35.69 17.028 45.07 34.212 5.4 9.186 11.37 30.824 14.75 35.036-5.37 12.586-10.79 18.758-19.1 29.515-.96-7.248-1.6-11.58-3.4-18.642-24.73 33.935-71.31 37.107-105.89 16.855-2.1-25.431-1.54-70.654 31.74-77.99 13.33-2.941 22.27 2.917 32.81 10.177-10.17-16.17-16.92-17.19-35.18-17.205 5.1-3.524 19.32-10.469 21.31-14.668"/><path fill="#DECCBC" d="M1047.84 1022.24c28.7 3.08 54.31 20.25 85.35 8.94 1.24-.45 2.63-4.87 10-5.57 5.64-.53 17-6.74 21.24-9.69l5.85 6.23-.14.63c7.13 7.86 13.34 19.44 20.84 28.36-20.46 10.6-35.98 25.45-45.67 46.66-3.48 8.01-5.99 16.42-7.46 25.03-5.28 30.66.83 58.25 18.68 83.5-48.28-31.36-66.49-74.66-70.9-129.98l-7.11 9.61c-6.68-14.89-6.86-26.47-7.89-42.45-3.36 6.78-4.81 9.49-6.83 16.7-5.69-12.12-6.5-20.81-6.92-33.9l-7.59 9.68c-.28-4.39-.95-9.34-1.45-13.75"/><path fill="#FBEDDF" d="M1170.14 1022.78c7.13 7.86 13.34 19.44 20.84 28.36-20.46 10.6-35.98 25.45-45.67 46.66-19.46-7.72-29.85-20.31-37.53-39.15 29.69-8.76 39.07-15.35 62.36-35.87"/><path fill="#8FBB7A" d="m1334.08 1349.26.87-2.03c3.73-8.99 8.76-14.88 18.72-17.18a25.85 25.85 0 0 1 19.62 3.37c8.4 5.32 10.85 11.82 12.62 20.85 22.48-6.84 41.99-5.99 51.11 18.56-.09 21.94-14.44 24.42-32.44 27-1.33 11.87-2.88 20.92-13.38 28.88a32.84 32.84 0 0 1-24.55 6.13c-13.76-2.03-19.27-9.71-26.09-20.56-11.05 3.58-22.23 7.03-33.32 1.62-13.61-6.63-11.14-20.17-6.11-31.31 12.63.53 29.18-.07 40.09.56 4.21-1.3 4.96-1.15 7.14-4.2-3.61-9.2-39.42-10-46.14-14.77-.85-5.55 3.27-13.58 8.14-16.41 7.9-4.59 15.48-2.87 23.72-.51"/><path fill="#67925E" d="M1437.02 1372.83c-.09 21.94-14.44 24.42-32.44 27-1.33 11.87-2.88 20.92-13.38 28.88a32.84 32.84 0 0 1-24.55 6.13c-13.76-2.03-19.27-9.71-26.09-20.56-11.05 3.58-22.23 7.03-33.32 1.62-13.61-6.63-11.14-20.17-6.11-31.31 12.63.53 29.18-.07 40.09.56 2.91 7.21 5.88 11.74 13.53 14.8 5.73 2.3 12.15 2.07 17.7-.63 4.53-2.15 6.63-4.57 9.61-8.44 12.02 7.76 22.91 1.61 28.78-10.03 9.68 1 17.85-3.94 26.18-8.02"/><path d="M1382.06 1390.88c1.32-10.87 26.15 11.15 21.36-22.81 6.62.84 7.17 7.12 7.42 12.78-5.87 11.64-16.76 17.79-28.78 10.03"/><path fill="#FCDC9A" d="M1118.55 1654.17c13.23-.57 82.74-1.83 90.45 1.39 4.28 9.06 4.74 77.23-.53 82.56-5.24 1.69-11.31 1.08-16.96.98-11.24-.04-21.55-.11-32.79.53-4.71 14.65-5.26 16.09-21.77 15.87-6.75-.09-14.25 1.17-20.17-2.78-4.5-7.77-1.18-60.79-2.44-72.37-.73-6.69-.65-21.05 4.21-26.18"/><path d="M1173.56 1680.28c6.72.09 21.01 3.46 21.19 11.41-6.86 8.75-19.67-14.26-27.79.93 3.6 7.43 28.24 6.43 28.94 18.04.69 11.66-9.78 14.5-19.36 15.7-8.71-.58-18.91-4.11-18.41-14.7 7.03-3.73 18.66 15.51 29.69 2.91l-1.96 2.23 1.82-2.61c-3.67-4.82-12.61-6.77-18.16-9.36-16.67-7.79-14.26-21.13 4.04-24.55"/><path d="M1138.98 1681.68c2.93.11 5.33-.24 7.48 1.52 1.33 9.01 1.05 44.41-.97 54.75-.59 3-5.77 4.82-8.67 5.78-3.11-.24-5.14-.02-7.58-1.88-.18-3.77-.64-2.13 1.09-5.17 2.74-.82 3.72-.91 6.51-1.3 3.49-4.59 2.09-44.93 2.14-53.7"/><path d="M1139.77 1666.82a4.86 4.86 0 0 1 5.25-.43c1.69.9 2.69 2.7 2.57 4.61a4.88 4.88 0 0 1-3.15 4.23c-2.25.85-4.79-.08-5.96-2.19a4.87 4.87 0 0 1 1.29-6.22"/><path fill="url(#Gradient2)" d="M1166.46 1332.43c20.61-8.07 39.4-20.73 60.37-28.4 54.4-19.92 111.97-30.19 168.8-40.53 12.06-2.2 24.54-4.2 36.66-5.53-18.89 7.46-58.52 18.84-78.58 23.55-17.44 6.99-54.31 16.15-74.16 22.25-32.39 9.96-52.72 19.67-82.75 31.39-15.62 7.62-32.94 12.67-49.3 20.18-18.07 2.15-52.73 20.64-67.56 32.05-6.77 5.21-16.51 18.06-21.55 19.4-12.56 21.11-11.19 64.53-12.64 88.74-.49 8.16-.11 17.83-2.74 25.59-4.02-24.05-.64-82.38 6.76-105.75-6.15-2.78-7.85-3.31-10.2-9.39-2.34-18.76 5.94-28.42 18.78-40.37 28.34-26.36 67.28-28.68 100.04-46.95 15.6-8.7 24.25-21.29 37.89-32.04 1.74-1.35 11.11-4.5 13.78-5.42-12.56 21.96-24.19 35.66-43.6 51.23"/><path d="M1049.77 1415.37c13.53-39.25 46.9-60.25 85.07-71.92-5.72 3.8-17.77 9.77-24.39 12.97-22.97 11.11-41.33 26.56-52.06 50.37-12.56 21.11-11.19 64.53-12.64 88.74-.49 8.16-.11 17.83-2.74 25.59-4.02-24.05-.64-82.38 6.76-105.75"/><path fill="#875C4C" d="m1196.8 1335.16.25-.38c7.65-11.91 115.46-40.92 118.25-45.99-12.05-1.84-23.55 6.42-36.8 7.83 15.91-6.8 59.63-18.79 76.78-17.08l-1.65 1.89-1.08-1.17 1.16 1.26c-17.44 6.99-54.31 16.15-74.16 22.25-32.39 9.96-52.72 19.67-82.75 31.39"/><path fill="#67925E" d="M1569.7 1254.14c1.24 29.97-20.12 38.14-46.02 39.32-.23 5.03-.27 10.31-1.92 15.11-12.12 35.17-65.51 41.11-88.07 13.24-3.35-4.13-5.62-8.82-7.66-13.7-23.94 5.25-60.78 10.91-68.57-20.31 23.09-7.45 46.66-13.47 69.73-21.02-6.65 23.23 6.37 37.22 29.31 28.21-.38.15 17.58 12.38 28.38 2.91 9.02-7.91 8.56-8.17 13.38-19.3-11.92 15.03-23.72 24.44-41.22 9.52l1.88-.38c11.73 7.34 17.31 8.78 30.15-.77 3.28-2.45 1.77-5.52 7.02-7.49-.11.07 12.43-17.37 12.45-17.42 1.47-.99 2.82-1.63 4.41-2.46 6.75-.43 8.01-.75 14.42-2.6 6.59 5.4 14.81 9.25 23.52 7.76 9.72-2.68 11.46-4.22 18.81-10.62"/><path fill="#AEDFE0" d="M1032.3 1654.11c11.45-.52 60.28-1.62 68.89 1.39 2.64 2.86 4.03 12.71 3.63 16.37-1.29 12.03 3.52 59.63-3.68 67.12-8.98.55-62.3.9-69.25-.61-2.99-2.97-3.7-9.89-3.61-14.71.37-21.2-1.67-44.55 1.06-65.46.16-1.24 2.18-3.3 2.96-4.1"/><path d="M1045.13 1668.27c11.6-.29 30.14-2.24 40.06 4.03 8.36 5.29 6.53 17.35.6 23.86-5.55 6.1-9.79 6.41-17.74 6.9l-15.04-.24c.07 6.91 2.57 18-2.06 22.65-3.77.39-2.17.83-5.12-.63-1.58-14.78-.74-40.94-.7-56.57"/><path fill="#AEDFE0" d="M1053.07 1675.16c11.8-.14 36.89-2.25 25.37 17.7-7.55 3.22-17 2.38-25.34 2.3z"/><path fill="#B3D6BA" d="M858.125 1654.12c7.216-.44 68.9-1.93 70.398 2.35 3.689 10.52 4.786 74.06-.694 82.51-10.482.78-58.62 1.49-70.259-1.79-1.396-1.09-2.513-8.11-2.454-9.15.749-13.14-3.663-65.77 3.009-73.92"/><path d="M870.098 1667.99c12.453-.11 42.017-3.75 46.429 10.3 3.628 11.56-3.468 17.86-13.1 21.08 4.764 5.13 16.244 18.35 16.49 25.16l-1.754 1.26c-3.341-.1-4.273-.44-7.416-1.26-4.781-8.44-10.331-16.3-16.18-24.02-4.95-.18-10.698.05-15.712.11.067 4.86.595 20.26-.207 24.21l-2.025 1.18c-4.203-.21-2.53.55-5.447-1.68-1.397-10.98-.738-42.97-1.078-56.34"/><path fill="#B3D6BA" d="M878.94 1675.3c10.919-.15 37.328-3.45 26.655 15.54-7.448 2.58-18.472 2.04-26.63 2.04z"/><path fill="#E9B4C3" d="M945.038 1654.33c11.541-.15 62.872-2.37 69.882 1.97 1.32 3.28 2.79 10.68 2.39 14.05-1.41 11.82 3.62 61.84-3.02 68.69-10.99.54-58.014 1.66-70.525-1.86-2.055-1.74-3.078-11.98-2.835-14 1.543-12.85-3.893-60.6 4.108-68.85"/><path d="M957.175 1667.88c9.72-.11 28.273-1.45 36.213 3.75 15.412 10.09 14.512 32.9 4.98 47.05-11.537 9.29-26.493 6.86-41.318 6.59q-.209-28.695.125-57.39"/><path fill="#E9B4C3" d="M965.467 1675.15c8.255-.08 14.996-.87 22.241 3.53a18.79 18.79 0 0 1 8.715 12.19c1.574 7.15-1.416 16.83-5.167 23.01-7.495 5.27-16.842 3.89-26.092 3.71z"/><path fill="#875C4C" d="M1147.5 1355.34c16.03.94 32.89-10.72 47.3-9.34 23.88 2.3 48.78 13.89 72.13 19.77 19.62 5.15 38.67 8.98 58.35 12.94-74.86 2.06-174.2-43.51-237.75 19.85-29.64 29.56-32.35 88.8-32.17 128.39.76 42.49 13.47 86.98 39.85 121.07l-13.82-.13c-8.98-14.06-15.65-26.04-21.12-41.97-1.06-3.09-1.82-7.2-4.06-8.21l-.85 1.08c-6.65-15.88-12.65-59.97-12.35-77.67 2.63-7.76 2.25-17.43 2.74-25.59 1.45-24.21.08-67.63 12.64-88.74 5.04-1.34 14.78-14.19 21.55-19.4 14.83-11.41 49.49-29.9 67.56-32.05"/><path fill="#B3D6BA" d="M531.189 871.217c11.424-.104 53.129-1.739 60.185 2.164 2.437 5.58 1.977 17.754 1.499 24.235-.695 9.429 2.475 31.024-2.112 38.572-10.061.974-52.642 1.853-60.018-1.355-2.665-5.777-2.949-57.824.446-63.616"/><path d="M545.467 893.283c11.739.349 21.322.235 33.053-.173-2.239 10.958-.856 19.01-1.741 29.904l-32.338-.137c.099-9.326-.768-18.54-.716-27.883z"/><path fill="#B3D6BA" d="m549.035 898.672 23.696.383-.054 18.932c-7.841-.085-15.821.015-23.675.036z"/><path d="M561.36 879.629c2.663 1.864 8.785 7.222 6.685 10.758-3.944-1.048-2.784-.809-6.081-4.094-3.109 2.098-3.965 3.034-7.731 3.428l-.768-1.187c1.674-4.305 4.314-5.886 7.895-8.905"/><path fill="#E9B4C3" d="M608.291 735.045c16.284-1.484 46.049-.287 63.427.05.951 17.638-1.394 44.405.583 60.843l-2.372 3.606c-17.534.395-44.745 1.151-61.735-.346-.905-17.333-.406-46.539.097-64.153"/><path d="M625.712 739.841c5.781 2.379 20.269 14.195 23.164 20.159l-1.191.467c-7.217-3.157-11.61-7.553-17.729-12.545.635 11.013.635 21.919.729 32.945l18.565-.067c6.873-1.07.748-12.581 6.223-17.754l1.664 1.251c1.557 4.24.43 16.091.075 20.931-10.371.172-21.29.006-31.704 0 .972-13.249.156-31.66.204-45.387"/><path fill="#AEDFE0" d="M626.102 1010.11c18.181-.63 40.992-1.12 58.828.52 6.503.59 4.592 57.72 2.369 63.68-9.962.97-51.485.33-61.932-.56-.814-8.96-1.125-56.69.735-63.64"/><path d="M655.939 1016.5c4.808 3.3 7.539 10.55 10.251 16l5.357.4c3.974.27 7.019-.37 8.193 3.98-1.949 4.16-6.902 7.9-10.495 11.13 1.384 4.28 5.144 11.67 1.353 14.7-4.244-.48-9.147-4.19-13.212-6.52-6.11.97-10.497 6.53-15.642 5.34-1.167-3.73 1.162-9.82 2.199-14.08-3.299-3.23-10.334-8.3-8.936-12.83 3.626-2.2 8.242-1.84 12.681-2.05 2.734-5.61 5.241-10.6 8.251-16.07"/><path fill="#AEDFE0" d="M656.059 1024.56c3.389 3.35 2.463 7.14 7.332 11.87 4.282 1.61 6.084 1.15 10.803.92-7.613 5.61-8.958 6.48-8.462 16.02l.067 1.09-1.04.39-6.527-4.03c-4.103.44-6.624 1.97-10.205 3.91-.446-2.83 1.003-6.04 1.929-8.91-3.089-2.8-6.827-5.81-10.049-8.54 4.409.1 7.395.64 11.266-1.34 3.008-2.81 3.707-7.28 4.886-11.38"/><path fill="#AEA1DB" d="M690.785 871.252c9.844-.369 52.887-1.259 59.657 2.084 3.236 8.04 1.156 23.479 1.253 32.606.07 6.648 1.805 25.967-1.938 30.425-9.6.847-51.369 1.173-59.14-1.433-2.522-3.192-2.751-59.13.168-63.682"/><path d="M701.858 880.451q20.02-.483 40.044-.237c.057 7.76 1.595 26.482-.618 32.683-2.695 1.41-4.16 1.603-7.07 2.28 1.644 5.462 9.436 6.794 8.682 12.933l-1.323.562c-3.468-1.66-7.367-5.905-10.27-8.706-15.969-17.38-18.318 3.311-31.531 7.923l-1.361-.853c1.105-5.768 9.489-8.788 9.085-13.582-3.054-.258-3.718-.198-6.693-1.142-2.186-4.843-.121-23.071-.534-29.317z"/><path fill="#AEA1DB" d="M720.653 885.516a488 488 0 0 1 16.269-.067l.356 23.675-17.1.318c-4.862.046-10.698-.246-15.633-.377l.359-23.324z"/><path fill="#FCDC9A" d="M783.342 1010.21c9.845-.77 53.406-1.63 61.009 1.64 3.947 6.04 2.323 52.96 1.402 61.69-8.677 1.69-51.567.79-62.587.58-.69-9.14-.653-54.82.176-63.91"/><path d="M827.171 1033.28c5.668-6.14 7.734-8.62 14.911-13.19a112.4 112.4 0 0 1-15.56 21.24c3.017 4.55 13.049 16.22 7.442 20.26-6.816.77-11.11-2.92-16.915-3.03-7.112-.12-15.134 4.49-21.95 1.95l-1.727-1.56c.54-4.14 6.817-12.42 9.537-16.38-6.023-8.28-9.951-12.99-14.381-22.39 7.55 5.13 18.88 18.7 25.354 25.97 5.114-4.35 8.64-8.03 13.289-12.87"/><path fill="#FBEDDF" d="M795.099 1060.51c4.583-6.02 9.352-13.74 16.488-14.92-2.439 6.03-11.104 11.29-16.488 14.92"/><path fill="#FBEDDF" d="m819.496 1043.5 2.863 1.08c2.721 3.49 9.934 11.31 9.796 14.7-5.064-4.1-9.952-7.47-13.408-12.95z"/><path fill="#FBEDDF" d="M813.911 1051.66c3.835.64 4.677 1.58 7.331 3.96l.01 1.15-2.489-.44c-3.931.14-6.004.34-9.848-.28.788-2.44 2.199-2.57 4.996-4.39"/><path d="m830.785 1021.16 1.091.21.065 1.25c-4.489 5.54-12.106 12.18-17.507 17.2l-8.149-7.67c-5.087-4.05-7.954-7.19-12.415-11.92 16.131 5.49 20.539 6.04 36.915.93"/><path fill="#B3D6BA" d="M732.923 533.498c9.281-.036 48.239-1.131 54.294 1.614 2.629 8.522 2.514 50.928 1.512 60.894-2.028 2.134-2.051 1.508-5.598 2.171-7.544.02-51.096 1.335-55.042-1.562-2.959-9.344-2.965-50.732-1.664-61.113 2.99-2.385 2.001-1.645 6.498-2.004"/><path d="M738.643 552.665c5.489 6.037 12.813 12.889 18.714 18.709 5.925-6.29 12.501-12.674 19.45-17.82l1.289.353c1.226 8.216-13.734 14.594-16.208 21.051l2.82 2.877c2.878 2.262 4.448 3.09 6.04 6.403l-.557 1.416c-6.476-.099-8.45-3.614-12.465-8.073-3.635 3.986-6.068 7.825-11.353 8.233l-.775-1.566c1.459-4.338 5.002-6.673 8.565-9.836-5.43-5.499-12.818-10.681-17.387-16.203-.696-.841 1.191-4.053 1.867-5.544"/><path d="M737.105 542.896c9.367-.312 32.187-.365 40.812.428 1.657 2.564.947 2.892.706 6.695-11.375-5.053-32.291.887-40.217-2.734z"/><path fill="#AEA1DB" d="M476.925 1010.21c14.288-.71 46.623-.74 59.92.72.737 18.01.468 41.74-.043 60.01-.038 1.37-1.17 2.71-2.046 3.68-7.076.55-60.005 3.06-59.516-4.57.773-12.04-2.626-51.72 1.685-59.84"/><path fill="#FCDC9A" d="M827.965 682.553c8.813-.498 49.208-1.974 55.264 1.25 3.163 7.491 2.067 49.72.89 59.903-.152 1.323-1.492 1.478-3.067 2.201-18.172-.155-39.991.213-57.864-.979-1.041-11.324-1.388-48.562.381-60.986.141-.991 2.8-1.085 4.396-1.389"/><path d="M833.81 689.867c10.846-.794 29.477-.362 40.575-.114.651 8.344.398 20.615.483 29.252-5.253.474-11.131.718-16.443 1.046 7.886 7.613 16.259 14.757 21.825 24.111-7.246-3.921-8.353-5.064-14.192-10.561-3.746-3.502-7.542-7.383-11.21-11.003-7.551 6.116-11.121 11.989-20.643 16.552l-.442-1.192c5.156-7.751 9.964-11.634 16.477-18.185l-17.096.16c.023-10.014-.113-20.088.666-30.066"/><path fill="#FCDC9A" d="m838.033 694.567 31.872.094.335 20.411-32.173-.028z"/><path fill="#B9755A" d="M899.356 846.877c6.489-18.06-11.666-14.13-17.455-17.632.55-1.877 2.406-4.014 4.162-4.616 18.753-6.432 28.681 22.026 42.637 29.023 24.652 12.358 45.878 19.574 72.99 21.723 3.74.297 27.14 12.983 34.34 15.608-2.49 8.409-5.33 14.583-8.11 22.577-7.74-2.713-26.6-8.611-32.707-12.851-26.269-18.236-55.292-37.914-85.598-11.342-3.853-4.675-6.095-7.674-10.871-11.544-5.768-.653-10.404-.895-15.833-3.109l-.732-1.403 1.088-.976c10.702-9.746 3.05-13.512 7.063-17.791 3.995 1.796 8.025 7.758 12.249 11.307l-.568-.324c1.968-3.691-1.4-12.706-2.655-18.075z"/><path fill="#E9B4C3" d="M826.977 802.117q1.58-.114 3.161-.191c9.001-.367 52.411-1.477 56.641 2.355 1.595 4.252 1.205 8.145 1.224 12.746-5.712 2.014-11.445 3.072-14.12 8.294.862 2.529 1.524 4.159 2.561 6.577-.64 12.198-12.939 12.031 7.464 20.816.28 2.285 1.752 12.57-1.371 12.922-12.111 1.364-44.675 3.071-55.375-.423-2.872-6.452-2.573-55.995-.185-63.096"/><path d="M850.766 815.114c23.996-2.803 23.88 12.708 9.877 27.331l-.827.847c-1.321 3.691-.239 7.869.324 11.872-3.075.138-2.958.276-5.802-.776l-.709-2.046c.925-3.543 1.493-6.53 2.165-10.134-12.85-7.725-18.365-15.637-5.028-27.094"/><path fill="#E9B4C3" d="M853.352 820.595a8.39 8.39 0 0 1 11.162 4.022 8.39 8.39 0 0 1-4.014 11.165 8.393 8.393 0 1 1-7.148-15.187"/><path fill="#67925E" d="M1067.12 1244.6c24.23 13.49 23.44-6.2 29.81-8.03 17.77-5.13 11.48 2.98 29.4-12.56-2.78 17.41-9.41 20.29-24.71 26.61 6.94 7.25 16.96 15.62 15.8 26.21-2.23 20.44-25.63 17.06-38.34 11.45-3.78 10.56-5.38 14.34-16.54 20.06-4.78 2.45-10.17 3.59-15.33 1.92-3.35-3.12-2.18-1.3-3.58-5.73 1.18-8.78 18.87-51.47 23.49-59.93"/><path fill="#B9755A" d="M1097.01 590.893c2.02.046 5.36-.01 6.55 1.175 9.64 9.55 18.2 44.381 20.34 56.635-17.46.273-24.37.662-41.85 4.324-7.1 1.748-14.78 4.319-21.84 6.522 5.47-23.948 16.8-53.11 36.8-68.656"/><path fill="url(#Gradient1)" d="M1075.85 1093.46c4.08 3.58 10.46 34.66 14.44 44.3a175.2 175.2 0 0 0 29.36 47.55c20.14 23.62 35.68 25.4 58.38 43.86l-14.43 1.51c-12.01.28-20.8 1.45-32.65 2.98 4.8-22.87-2.83-34.69-24.24-41.18 3.79-18.92-4.83-24.86-21.76-29.26 3.48-17.38-3.63-30.55-15.75-42.29 1.29-9.07 2.28-19.39 6.65-27.47"/><path fill="#67925E" d="m973.098 1210.48 1.369 2.02c7.557 4.26 17.343-1.35 23.169-6.31 2.904 1.51 4.054 1.32 6.344 2.23 20.26 8.06 10.69 24.43-6.205 33.19-19.484 10.09-49.075 5.86-43.184-22.9 1.32-6.45 12.488-7.89 18.507-8.23"/><path fill="#875C4C" d="M968.452 785.962c15.673.285 32.058 8.323 12.718 22.052-2.757 1.624-6.421 3.432-9.315 4.97-8.343-8.287-11.885-17.245-3.403-27.022"/><path fill="#B9755A" d="M899.356 847.452c-6.127-.662-14.973-.382-17.967-6.303l1.264-1.621c8.939-1.943 11.51.464 16.703 7.349z"/><path fill="#FAF9FA" d="M964.677 816.717c8.509 2.866 8.829 7.291 10.029 15.629-2.216.636-1.05.598-3.498-.072-3.312-4.747-4.66-10.021-6.531-15.557"/><path fill-opacity=".973" d="m672.301 795.938.711-.894c-.056-17.601-.754-40.812.822-57.896-.062 16.853.273 33.703.383 50.556.037 5.559.792 8.427-3.252 12.728l-1.036-.888z"/><path fill="#B9755A" d="M955.43 937.76c10.623 1.059 12.347 6.048 17.284 14.652-7.646-4.678-11.473-8.022-17.284-14.652"/><path fill="#FAF9FA" d="m975.724 837.938 12.175 8.051c-3.045.2-2.942.442-5.576 2.133-2.108-2.836-4.64-7.108-6.599-10.184"/></svg>