<?xml version="1.0" encoding="utf-8"?>
<!-- Generator: Adobe Illustrator 24.3.0, SVG Export Plug-In . SVG Version: 6.00 Build 0)  -->
<svg version="1.1" id="Layer_1" xmlns="http://www.w3.org/2000/svg" xmlns:xlink="http://www.w3.org/1999/xlink" x="0px" y="0px"
	 viewBox="0 0 352.93 80.58" style="enable-background:new 0 0 352.93 80.58;" xml:space="preserve">
<style type="text/css">
	.st0{fill:#DDDDDD;}
	.st1{fill:url(#SVGID_1_);}
	.st2{fill:#0056A3;}
	.st3{fill:url(#SVGID_2_);}
</style>
<g>
	<g>
		<g>
			<g>
				<path class="st0" d="M55.57,54.3c-1.17-1.17-3.26-1.17-4.43,0l-7.78,7.78c-2.04,2.04-4.76,3.16-7.66,3.16
					c-2.9,0-5.62-1.12-7.66-3.16l-9.75-9.75c-2.04-2.04-3.16-4.76-3.16-7.66c0-2.9,1.12-5.62,3.16-7.66l7.78-7.78
					c1.22-1.22,1.22-3.21,0-4.43l-8.93-8.93c-1.45,1.02-2.85,2.15-4.15,3.45l-3.83,3.83c-12.22,12.22-12.22,32.22,0,44.44l3.83,3.83
					c12.22,12.22,32.22,12.22,44.44,0l3.83-3.83c1.3-1.3,2.43-2.7,3.45-4.15L55.57,54.3z"/>
			</g>
			<g>
				<linearGradient id="SVGID_1_" gradientUnits="userSpaceOnUse" x1="0" y1="48.2234" x2="64.7074" y2="48.2234">
					<stop  offset="1.680046e-04" style="stop-color:#FFFFFF;stop-opacity:0"/>
					<stop  offset="0.9997" style="stop-color:#FFFFFF;stop-opacity:0.2"/>
				</linearGradient>
				<path class="st1" d="M55.57,54.3c-1.17-1.17-3.26-1.17-4.43,0l-7.78,7.78c-2.04,2.04-4.76,3.16-7.66,3.16
					c-2.9,0-5.62-1.12-7.66-3.16l-9.75-9.75c-2.04-2.04-3.16-4.76-3.16-7.66c0-2.9,1.12-5.62,3.16-7.66l7.78-7.78
					c1.22-1.22,1.22-3.21,0-4.43l-8.93-8.93c-1.45,1.02-2.85,2.15-4.15,3.45l-3.83,3.83c-12.22,12.22-12.22,32.22,0,44.44l3.83,3.83
					c12.22,12.22,32.22,12.22,44.44,0l3.83-3.83c1.3-1.3,2.43-2.7,3.45-4.15L55.57,54.3z"/>
			</g>
			<path class="st2" d="M78.54,40.43L64.32,26.21l-9.95-9.95L40.15,2.04c-2.72-2.72-7.16-2.72-9.88,0l-8.04,8.04l9.28,9.28
				c4.22,4.22,4.22,11.09,0,15.32l-7.78,7.78c-0.59,0.59-0.91,1.37-0.91,2.22c0,0.84,0.32,1.63,0.91,2.22l9.75,9.75
				c1.17,1.17,3.26,1.17,4.43,0l7.78-7.78c4.22-4.22,11.1-4.22,15.32,0l9.49,9.49l8.04-8.04C81.26,47.59,81.26,43.14,78.54,40.43z"
				/>
			<linearGradient id="SVGID_2_" gradientUnits="userSpaceOnUse" x1="22.2366" y1="29.1702" x2="80.5769" y2="29.1702">
				<stop  offset="1.680046e-04" style="stop-color:#FFFFFF;stop-opacity:0"/>
				<stop  offset="0.9997" style="stop-color:#FFFFFF;stop-opacity:0.3"/>
			</linearGradient>
			<path class="st3" d="M78.54,40.43L64.32,26.21l-9.95-9.95L40.15,2.04c-2.72-2.72-7.16-2.72-9.88,0l-8.04,8.04l9.28,9.28
				c4.22,4.22,4.22,11.09,0,15.32l-7.78,7.78c-0.59,0.59-0.91,1.37-0.91,2.22c0,0.84,0.32,1.63,0.91,2.22l9.75,9.75
				c1.17,1.17,3.26,1.17,4.43,0l7.78-7.78c4.22-4.22,11.1-4.22,15.32,0l9.49,9.49l8.04-8.04C81.26,47.59,81.26,43.14,78.54,40.43z"
				/>
		</g>
	</g>
	<g>
		<path class="st0" d="M127.54,12.09c2.7,2.17,4.45,5.1,5.24,8.79h-8.29c-0.61-1.5-1.55-2.67-2.82-3.53
			c-1.27-0.85-2.77-1.28-4.51-1.28c-2.29,0-4.14,0.84-5.54,2.52c-1.4,1.68-2.11,3.92-2.11,6.73c0,2.81,0.7,5.04,2.11,6.71
			c1.4,1.66,3.25,2.5,5.54,2.5c1.74,0,3.24-0.43,4.51-1.28c1.27-0.85,2.21-2.02,2.82-3.48h8.29c-0.79,3.66-2.54,6.59-5.24,8.77
			s-6.11,3.27-10.23,3.27c-3.14,0-5.91-0.69-8.29-2.08c-2.38-1.39-4.22-3.33-5.52-5.84c-1.3-2.5-1.95-5.36-1.95-8.56
			s0.65-6.06,1.95-8.56c1.3-2.5,3.14-4.45,5.52-5.84c2.38-1.39,5.14-2.08,8.29-2.08C121.43,8.84,124.84,9.92,127.54,12.09z"/>
		<path class="st0" d="M154.78,17.24c2,1.05,3.57,2.57,4.72,4.56c1.14,1.98,1.72,4.3,1.72,6.96s-0.57,4.98-1.72,6.96
			c-1.15,1.99-2.72,3.5-4.72,4.56c-2,1.05-4.27,1.58-6.8,1.58c-2.53,0-4.81-0.53-6.82-1.58c-2.01-1.05-3.59-2.57-4.74-4.56
			c-1.15-1.98-1.72-4.3-1.72-6.96s0.57-4.98,1.72-6.96c1.14-1.98,2.72-3.5,4.74-4.56s4.29-1.58,6.82-1.58
			C150.52,15.66,152.78,16.19,154.78,17.24z M144.21,24.06c-1.02,1.08-1.53,2.65-1.53,4.69c0,2.05,0.51,3.6,1.53,4.67
			c1.02,1.07,2.28,1.6,3.78,1.6c1.5,0,2.75-0.53,3.75-1.6c1.01-1.07,1.51-2.62,1.51-4.67c0-2.04-0.5-3.61-1.51-4.69
			c-1.01-1.08-2.26-1.63-3.75-1.63C146.49,22.44,145.23,22.98,144.21,24.06z"/>
		<path class="st0" d="M187.34,18.63c1.72,1.95,2.59,4.64,2.59,8.06v14.84h-7.83V27.61c0-1.71-0.45-3.04-1.35-4.01
			c-0.9-0.96-2.1-1.44-3.6-1.44c-1.59,0-2.85,0.5-3.78,1.51s-1.4,2.44-1.4,4.3v13.55h-7.83V15.98h7.83v4.67
			c0.73-1.53,1.82-2.73,3.27-3.62c1.45-0.88,3.15-1.33,5.11-1.33C183.29,15.7,185.61,16.68,187.34,18.63z"/>
		<path class="st0" d="M206.5,12.5c-1.28,0-2.21,0.27-2.79,0.82c-0.58,0.55-0.9,1.44-0.96,2.66h4.62v6.59h-4.62v18.96h-7.83V22.57
			h-3.07v-6.59h3.07V15.7c0-3.17,0.92-5.62,2.77-7.35c1.85-1.72,4.52-2.59,8.04-2.59c0.73,0,1.28,0.02,1.65,0.05v6.73L206.5,12.5z"
			/>
		<path class="st0" d="M210.21,5.84c0.85-0.78,1.98-1.17,3.39-1.17c1.4,0,2.53,0.39,3.39,1.17c0.85,0.78,1.28,1.76,1.28,2.95
			c0,1.16-0.43,2.13-1.28,2.91c-0.85,0.78-1.98,1.17-3.39,1.17c-1.41,0-2.53-0.39-3.39-1.17c-0.86-0.78-1.28-1.75-1.28-2.91
			C208.93,7.6,209.35,6.62,210.21,5.84z M217.49,15.98v25.55h-7.83V15.98H217.49z"/>
		<path class="st0" d="M236.49,16.99c1.4,0.89,2.44,2.09,3.11,3.62v-4.62h7.78v25.41c0,2.38-0.46,4.53-1.37,6.43
			c-0.92,1.91-2.32,3.43-4.21,4.56c-1.89,1.13-4.24,1.69-7.05,1.69c-3.85,0-6.92-0.91-9.23-2.72s-3.69-4.28-4.14-7.39h7.74
			c0.24,1.04,0.8,1.85,1.67,2.43c0.87,0.58,2.01,0.87,3.41,0.87c1.62,0,2.92-0.47,3.91-1.4c0.99-0.93,1.49-2.42,1.49-4.46V36.9
			c-0.67,1.53-1.71,2.73-3.11,3.62c-1.4,0.89-3.08,1.33-5.04,1.33c-2.11,0-3.99-0.53-5.65-1.58c-1.66-1.05-2.98-2.57-3.94-4.56
			c-0.96-1.98-1.44-4.3-1.44-6.96c0-2.69,0.48-5.01,1.44-6.98c0.96-1.97,2.27-3.48,3.94-4.53c1.66-1.05,3.55-1.58,5.65-1.58
			C233.41,15.66,235.09,16.1,236.49,16.99z M229.92,24.18c-1.02,1.1-1.53,2.63-1.53,4.58c0,1.95,0.51,3.48,1.53,4.58
			c1.02,1.1,2.37,1.65,4.05,1.65c1.65,0,3-0.56,4.05-1.69c1.05-1.13,1.58-2.64,1.58-4.53c0-1.92-0.53-3.44-1.58-4.56
			c-1.05-1.11-2.4-1.67-4.05-1.67C232.29,22.53,230.94,23.08,229.92,24.18z"/>
		<path class="st0" d="M277.06,15.98v25.55h-7.88V36.9c-0.73,1.5-1.82,2.69-3.27,3.57c-1.45,0.89-3.14,1.33-5.06,1.33
			c-2.93,0-5.26-0.98-6.98-2.93s-2.59-4.64-2.59-8.06V15.98h7.78v13.87c0,1.74,0.45,3.09,1.35,4.05s2.11,1.44,3.64,1.44
			c1.59,0,2.84-0.5,3.75-1.51c0.92-1.01,1.37-2.44,1.37-4.3V15.98H277.06z"/>
		<path class="st0" d="M292.92,17.08c1.54-0.92,3.21-1.37,5.01-1.37v8.38h-2.24c-2.08,0-3.69,0.44-4.83,1.33
			c-1.14,0.89-1.72,2.38-1.72,4.49v11.63h-7.83V15.98h7.83v4.81C290.12,19.23,291.38,17.99,292.92,17.08z"/>
		<path class="st0" d="M324.13,30.17h-17.72c0.09,1.92,0.58,3.3,1.46,4.14c0.88,0.84,2.01,1.26,3.39,1.26
			c1.16,0,2.12-0.29,2.88-0.87c0.76-0.58,1.27-1.33,1.51-2.24h8.29c-0.34,1.8-1.07,3.41-2.2,4.83c-1.13,1.42-2.56,2.53-4.3,3.34
			c-1.74,0.81-3.68,1.21-5.81,1.21c-2.5,0-4.72-0.53-6.66-1.58c-1.94-1.05-3.46-2.57-4.56-4.56c-1.1-1.98-1.65-4.3-1.65-6.96
			c0-2.69,0.54-5.01,1.62-6.98c1.08-1.97,2.6-3.48,4.56-4.53s4.18-1.58,6.69-1.58c2.53,0,4.76,0.52,6.68,1.56
			c1.92,1.04,3.41,2.5,4.46,4.37c1.05,1.88,1.58,4.04,1.58,6.48C324.36,28.71,324.28,29.41,324.13,30.17z M315.08,23.1
			c-0.93-0.84-2.08-1.26-3.46-1.26c-1.44,0-2.63,0.43-3.57,1.28c-0.95,0.85-1.48,2.11-1.6,3.75h9.98
			C316.47,25.2,316.02,23.94,315.08,23.1z"/>
		<path class="st0" d="M342.03,16.99c1.4,0.89,2.43,2.09,3.07,3.62V7.65h7.83v33.88h-7.83V36.9c-0.64,1.53-1.66,2.73-3.07,3.62
			c-1.4,0.89-3.08,1.33-5.04,1.33c-2.11,0-3.99-0.53-5.65-1.58c-1.66-1.05-2.98-2.57-3.94-4.56c-0.96-1.98-1.44-4.3-1.44-6.96
			c0-2.69,0.48-5.01,1.44-6.98c0.96-1.97,2.27-3.48,3.94-4.53c1.66-1.05,3.55-1.58,5.65-1.58C338.95,15.66,340.63,16.1,342.03,16.99
			z M335.46,24.18c-1.02,1.1-1.53,2.63-1.53,4.58c0,1.95,0.51,3.48,1.53,4.58c1.02,1.1,2.37,1.65,4.05,1.65c1.65,0,3-0.56,4.05-1.69
			c1.05-1.13,1.58-2.64,1.58-4.53c0-1.92-0.53-3.44-1.58-4.56c-1.05-1.11-2.4-1.67-4.05-1.67
			C337.83,22.53,336.48,23.08,335.46,24.18z"/>
	</g>
	<g>
		<g>
			<path class="st2" d="M120.03,50.69v4.43h-6.25v18.6h-5.6v-18.6h-6.19v-4.43H120.03z"/>
			<path class="st2" d="M141.46,50.69v23.03h-5.6v-9.61h-8.73v9.61h-5.57V50.69h5.57v8.93h8.73v-8.93H141.46z"/>
			<path class="st2" d="M150.06,50.69v23.03h-5.57V50.69H150.06z"/>
			<path class="st2" d="M173.55,73.72h-5.57l-9.32-14.14v14.14h-5.57V50.69h5.57l9.32,14.27V50.69h5.57V73.72z"/>
			<path class="st2" d="M194.49,52.58c1.87,1.41,3.03,3.32,3.48,5.73h-5.9c-0.39-0.83-0.99-1.48-1.79-1.97
				c-0.8-0.49-1.77-0.73-2.9-0.73c-1.76,0-3.17,0.59-4.24,1.78c-1.06,1.18-1.6,2.79-1.6,4.8c0,2.19,0.56,3.88,1.68,5.05
				s2.71,1.76,4.77,1.76c1.32,0,2.49-0.36,3.48-1.09s1.71-1.76,2.12-3.11h-7.04v-4.01h11.69v5.51c-0.43,1.35-1.13,2.59-2.08,3.75
				c-0.96,1.15-2.18,2.08-3.66,2.8c-1.49,0.72-3.19,1.08-5.1,1.08c-2.32,0-4.35-0.49-6.09-1.48c-1.74-0.99-3.08-2.37-4.02-4.15
				c-0.94-1.78-1.42-3.81-1.42-6.09s0.47-4.31,1.42-6.09c0.94-1.78,2.28-3.17,4.01-4.15s3.74-1.48,6.04-1.48
				C190.25,50.46,192.62,51.17,194.49,52.58z"/>
			<path class="st2" d="M216.2,70.6c-0.62,1.02-1.53,1.83-2.74,2.44c-1.21,0.61-2.67,0.91-4.38,0.91c-2.58,0-4.71-0.63-6.38-1.89
				s-2.58-3.02-2.74-5.28h5.93c0.09,0.87,0.4,1.55,0.93,2.05c0.53,0.5,1.21,0.75,2.04,0.75c0.72,0,1.28-0.2,1.69-0.59
				c0.41-0.39,0.62-0.91,0.62-1.56c0-0.59-0.19-1.08-0.57-1.47s-0.85-0.71-1.42-0.96c-0.56-0.25-1.35-0.55-2.34-0.9
				c-1.46-0.5-2.64-0.98-3.57-1.45c-0.92-0.47-1.72-1.16-2.38-2.08c-0.66-0.92-0.99-2.12-0.99-3.6c0-1.37,0.35-2.55,1.04-3.55
				c0.69-1,1.66-1.76,2.88-2.3s2.63-0.8,4.22-0.8c2.56,0,4.6,0.61,6.11,1.82c1.51,1.22,2.36,2.89,2.56,5.02h-6.03
				c-0.11-0.76-0.39-1.36-0.83-1.81c-0.45-0.44-1.05-0.67-1.81-0.67c-0.65,0-1.18,0.17-1.58,0.52c-0.4,0.35-0.6,0.86-0.6,1.53
				c0,0.54,0.18,1,0.54,1.38c0.36,0.38,0.81,0.69,1.35,0.93c0.54,0.24,1.32,0.54,2.34,0.91c1.48,0.5,2.68,0.99,3.62,1.48
				s1.74,1.2,2.41,2.13c0.67,0.93,1.01,2.15,1.01,3.65C217.13,68.46,216.82,69.58,216.2,70.6z"/>
		</g>
	</g>
</g>
</svg>
